<mxfile host="app.diagrams.net" modified="2023-06-10T12:26:01.566Z" agent="Mozilla/5.0 (Windows NT 10.0; Win64; x64) AppleWebKit/537.36 (KHTML, like Gecko) Chrome/114.0.0.0 Safari/537.36" etag="20DIqyUPjsskXofmjxTs" version="21.3.8" type="device" pages="9">
  <diagram id="k8Kthk2xclkbsUAtsgXS" name="Page-1">
    <mxGraphModel dx="1434" dy="774" grid="0" gridSize="10" guides="1" tooltips="1" connect="1" arrows="1" fold="1" page="1" pageScale="1" pageWidth="1169" pageHeight="827" math="0" shadow="0">
      <root>
        <mxCell id="0" />
        <mxCell id="1" parent="0" />
        <mxCell id="OYUqE8tZ7tr2SiqXzxwW-12" value="&lt;b&gt;Peripheral Driver&lt;/b&gt;" style="rounded=0;whiteSpace=wrap;html=1;dashed=1;dashPattern=1 4;labelBackgroundColor=none;labelBorderColor=none;fontSize=16;strokeWidth=1;fillColor=#fff2cc;strokeColor=#d6b656;align=right;verticalAlign=bottom;" parent="1" vertex="1">
          <mxGeometry x="320.5" y="481.5" width="372" height="139.5" as="geometry" />
        </mxCell>
        <mxCell id="OYUqE8tZ7tr2SiqXzxwW-11" value="Middleware" style="rounded=0;fontSize=16;fontColor=default;strokeWidth=1;dashed=1;dashPattern=1 4;fillColor=#FFE6CC;labelPosition=center;verticalLabelPosition=middle;align=right;verticalAlign=bottom;whiteSpace=wrap;html=1;labelBackgroundColor=none;labelBorderColor=none;fontStyle=1" parent="1" vertex="1">
          <mxGeometry x="308" y="196" width="397" height="260" as="geometry" />
        </mxCell>
        <mxCell id="OYUqE8tZ7tr2SiqXzxwW-8" style="edgeStyle=orthogonalEdgeStyle;rounded=0;orthogonalLoop=1;jettySize=auto;html=1;exitX=0.25;exitY=0;exitDx=0;exitDy=0;entryX=0.25;entryY=1;entryDx=0;entryDy=0;fontSize=16;fontColor=#B3B3B3;strokeWidth=4;" parent="1" source="OYUqE8tZ7tr2SiqXzxwW-1" target="OYUqE8tZ7tr2SiqXzxwW-2" edge="1">
          <mxGeometry relative="1" as="geometry" />
        </mxCell>
        <mxCell id="OYUqE8tZ7tr2SiqXzxwW-1" value="I2C PLIB&lt;br style=&quot;font-size: 16px;&quot;&gt;&lt;font color=&quot;#b3b3b3&quot; style=&quot;font-size: 16px;&quot;&gt;i2c1_master.c&lt;/font&gt;" style="rounded=1;whiteSpace=wrap;html=1;strokeWidth=3;fontSize=16;fontStyle=1" parent="1" vertex="1">
          <mxGeometry x="415.5" y="501" width="165" height="90" as="geometry" />
        </mxCell>
        <mxCell id="OYUqE8tZ7tr2SiqXzxwW-7" style="edgeStyle=orthogonalEdgeStyle;rounded=0;orthogonalLoop=1;jettySize=auto;html=1;exitX=0.75;exitY=1;exitDx=0;exitDy=0;entryX=0.768;entryY=0.017;entryDx=0;entryDy=0;fontSize=16;fontColor=#B3B3B3;strokeWidth=4;entryPerimeter=0;" parent="1" source="OYUqE8tZ7tr2SiqXzxwW-2" target="OYUqE8tZ7tr2SiqXzxwW-1" edge="1">
          <mxGeometry relative="1" as="geometry" />
        </mxCell>
        <mxCell id="OYUqE8tZ7tr2SiqXzxwW-9" style="edgeStyle=orthogonalEdgeStyle;rounded=0;orthogonalLoop=1;jettySize=auto;html=1;exitX=0.25;exitY=0;exitDx=0;exitDy=0;entryX=0.25;entryY=1;entryDx=0;entryDy=0;fontSize=16;fontColor=#B3B3B3;strokeWidth=4;" parent="1" source="OYUqE8tZ7tr2SiqXzxwW-2" target="OYUqE8tZ7tr2SiqXzxwW-3" edge="1">
          <mxGeometry relative="1" as="geometry" />
        </mxCell>
        <mxCell id="OYUqE8tZ7tr2SiqXzxwW-2" value="SH1106 Driver&lt;br style=&quot;font-size: 16px&quot;&gt;&lt;font color=&quot;#b3b3b3&quot; style=&quot;font-size: 16px&quot;&gt;sh1106.c&lt;/font&gt;" style="rounded=1;whiteSpace=wrap;html=1;strokeWidth=3;fontSize=16;fontStyle=1" parent="1" vertex="1">
          <mxGeometry x="415" y="350" width="170" height="90" as="geometry" />
        </mxCell>
        <mxCell id="OYUqE8tZ7tr2SiqXzxwW-6" style="edgeStyle=orthogonalEdgeStyle;rounded=0;orthogonalLoop=1;jettySize=auto;html=1;exitX=0.75;exitY=1;exitDx=0;exitDy=0;fontSize=16;fontColor=#B3B3B3;strokeWidth=4;" parent="1" source="OYUqE8tZ7tr2SiqXzxwW-3" edge="1">
          <mxGeometry relative="1" as="geometry">
            <mxPoint x="538" y="350" as="targetPoint" />
            <Array as="points">
              <mxPoint x="538" y="330" />
              <mxPoint x="538" y="330" />
              <mxPoint x="538" y="350" />
            </Array>
          </mxGeometry>
        </mxCell>
        <mxCell id="OYUqE8tZ7tr2SiqXzxwW-10" style="edgeStyle=orthogonalEdgeStyle;rounded=0;orthogonalLoop=1;jettySize=auto;html=1;exitX=0.25;exitY=0;exitDx=0;exitDy=0;entryX=0.25;entryY=1;entryDx=0;entryDy=0;fontSize=16;fontColor=#B3B3B3;strokeWidth=4;" parent="1" source="OYUqE8tZ7tr2SiqXzxwW-3" target="OYUqE8tZ7tr2SiqXzxwW-4" edge="1">
          <mxGeometry relative="1" as="geometry" />
        </mxCell>
        <mxCell id="OYUqE8tZ7tr2SiqXzxwW-3" value="Graphics Library&lt;br style=&quot;font-size: 16px&quot;&gt;&lt;font color=&quot;#b3b3b3&quot; style=&quot;font-size: 16px&quot;&gt;gfx.c&lt;/font&gt;" style="rounded=1;whiteSpace=wrap;html=1;strokeWidth=3;fontSize=16;fontStyle=1" parent="1" vertex="1">
          <mxGeometry x="417.5" y="220" width="160" height="90" as="geometry" />
        </mxCell>
        <mxCell id="OYUqE8tZ7tr2SiqXzxwW-5" style="edgeStyle=orthogonalEdgeStyle;rounded=0;orthogonalLoop=1;jettySize=auto;html=1;exitX=0.75;exitY=1;exitDx=0;exitDy=0;entryX=0.75;entryY=0;entryDx=0;entryDy=0;fontSize=16;fontColor=#B3B3B3;strokeWidth=4;" parent="1" source="OYUqE8tZ7tr2SiqXzxwW-4" target="OYUqE8tZ7tr2SiqXzxwW-3" edge="1">
          <mxGeometry relative="1" as="geometry" />
        </mxCell>
        <mxCell id="OYUqE8tZ7tr2SiqXzxwW-4" value="Application" style="rounded=1;whiteSpace=wrap;html=1;strokeWidth=3;fontSize=16;fontStyle=1" parent="1" vertex="1">
          <mxGeometry x="418" y="83" width="160" height="90" as="geometry" />
        </mxCell>
      </root>
    </mxGraphModel>
  </diagram>
  <diagram id="juF2DNDUJyws6R-KvByS" name="hal">
    <mxGraphModel dx="2049" dy="1106" grid="0" gridSize="10" guides="1" tooltips="1" connect="1" arrows="1" fold="1" page="1" pageScale="1" pageWidth="1169" pageHeight="827" math="0" shadow="0">
      <root>
        <mxCell id="zrdsWcb4Bhqk5OW8Jd19-0" />
        <mxCell id="liMYMqPauSzpus2wI1fg-15" value="Other HW" parent="zrdsWcb4Bhqk5OW8Jd19-0" visible="0" />
        <mxCell id="liMYMqPauSzpus2wI1fg-13" value="BG" style="locked=1;" parent="zrdsWcb4Bhqk5OW8Jd19-0" />
        <mxCell id="liMYMqPauSzpus2wI1fg-14" value="PIC18F47K42" style="rounded=0;fontSize=16;strokeWidth=1;dashed=1;dashPattern=1 4;fillColor=#dae8fc;labelPosition=center;verticalLabelPosition=middle;align=right;verticalAlign=bottom;whiteSpace=wrap;html=1;labelBackgroundColor=none;labelBorderColor=none;fontStyle=1;strokeColor=#6c8ebf;" parent="liMYMqPauSzpus2wI1fg-13" vertex="1">
          <mxGeometry x="18" y="20" width="1132" height="620" as="geometry" />
        </mxCell>
        <mxCell id="liMYMqPauSzpus2wI1fg-41" value="&lt;b&gt;PLIB&lt;br&gt;&lt;/b&gt;" style="rounded=0;whiteSpace=wrap;html=1;dashed=1;dashPattern=1 4;labelBackgroundColor=none;labelBorderColor=none;fontSize=16;strokeWidth=1;fillColor=#fff2cc;strokeColor=#d6b656;align=right;verticalAlign=bottom;" parent="liMYMqPauSzpus2wI1fg-13" vertex="1">
          <mxGeometry x="44" y="450" width="1076" height="150" as="geometry" />
        </mxCell>
        <mxCell id="liMYMqPauSzpus2wI1fg-42" value="Middleware" style="rounded=0;fontSize=16;fontColor=default;strokeWidth=1;dashed=1;dashPattern=1 4;fillColor=#FFE6CC;labelPosition=center;verticalLabelPosition=middle;align=right;verticalAlign=bottom;whiteSpace=wrap;html=1;labelBackgroundColor=none;labelBorderColor=none;fontStyle=1" parent="liMYMqPauSzpus2wI1fg-13" vertex="1">
          <mxGeometry x="44" y="150" width="1076" height="160" as="geometry" />
        </mxCell>
        <mxCell id="liMYMqPauSzpus2wI1fg-43" value="Driver" style="rounded=0;fontSize=16;strokeWidth=1;dashed=1;dashPattern=1 4;fillColor=#d5e8d4;labelPosition=center;verticalLabelPosition=middle;align=right;verticalAlign=bottom;whiteSpace=wrap;html=1;labelBackgroundColor=none;labelBorderColor=none;fontStyle=1;strokeColor=#82b366;" parent="liMYMqPauSzpus2wI1fg-13" vertex="1">
          <mxGeometry x="44" y="310" width="1076" height="140" as="geometry" />
        </mxCell>
        <mxCell id="liMYMqPauSzpus2wI1fg-45" style="edgeStyle=orthogonalEdgeStyle;rounded=0;orthogonalLoop=1;jettySize=auto;html=1;exitX=0.5;exitY=0;exitDx=0;exitDy=0;entryX=0.486;entryY=1.013;entryDx=0;entryDy=0;entryPerimeter=0;fontColor=#B3B3B3;strokeWidth=4;startArrow=classic;startFill=0;" parent="liMYMqPauSzpus2wI1fg-13" source="liMYMqPauSzpus2wI1fg-35" target="liMYMqPauSzpus2wI1fg-11" edge="1">
          <mxGeometry relative="1" as="geometry" />
        </mxCell>
        <mxCell id="zrdsWcb4Bhqk5OW8Jd19-1" style="locked=1;" parent="zrdsWcb4Bhqk5OW8Jd19-0" />
        <mxCell id="liMYMqPauSzpus2wI1fg-3" value="I2C PLIB&lt;br style=&quot;font-size: 16px;&quot;&gt;&lt;font color=&quot;#b3b3b3&quot; style=&quot;font-size: 16px;&quot;&gt;i2c1_master.c&lt;/font&gt;" style="rounded=1;whiteSpace=wrap;html=1;strokeWidth=3;fontSize=16;fontStyle=1" parent="zrdsWcb4Bhqk5OW8Jd19-1" vertex="1">
          <mxGeometry x="67.5" y="478" width="132.5" height="90" as="geometry" />
        </mxCell>
        <mxCell id="liMYMqPauSzpus2wI1fg-61" style="edgeStyle=orthogonalEdgeStyle;rounded=0;orthogonalLoop=1;jettySize=auto;html=1;exitX=0.5;exitY=0;exitDx=0;exitDy=0;entryX=0.5;entryY=1;entryDx=0;entryDy=0;fontColor=#B3B3B3;startArrow=classic;startFill=0;strokeWidth=4;" parent="zrdsWcb4Bhqk5OW8Jd19-1" source="liMYMqPauSzpus2wI1fg-6" target="liMYMqPauSzpus2wI1fg-9" edge="1">
          <mxGeometry relative="1" as="geometry" />
        </mxCell>
        <mxCell id="liMYMqPauSzpus2wI1fg-62" style="edgeStyle=orthogonalEdgeStyle;rounded=0;orthogonalLoop=1;jettySize=auto;html=1;exitX=0.5;exitY=1;exitDx=0;exitDy=0;entryX=0.5;entryY=0;entryDx=0;entryDy=0;fontColor=#B3B3B3;startArrow=classic;startFill=0;strokeWidth=4;" parent="zrdsWcb4Bhqk5OW8Jd19-1" source="liMYMqPauSzpus2wI1fg-6" target="liMYMqPauSzpus2wI1fg-3" edge="1">
          <mxGeometry relative="1" as="geometry" />
        </mxCell>
        <mxCell id="liMYMqPauSzpus2wI1fg-6" value="SH1106 Driver&lt;br style=&quot;font-size: 16px&quot;&gt;&lt;font color=&quot;#b3b3b3&quot; style=&quot;font-size: 16px&quot;&gt;sh1106.c&lt;/font&gt;" style="rounded=1;whiteSpace=wrap;html=1;strokeWidth=3;fontSize=16;fontStyle=1" parent="zrdsWcb4Bhqk5OW8Jd19-1" vertex="1">
          <mxGeometry x="72.5" y="324" width="125" height="90" as="geometry" />
        </mxCell>
        <mxCell id="liMYMqPauSzpus2wI1fg-67" style="edgeStyle=orthogonalEdgeStyle;rounded=0;orthogonalLoop=1;jettySize=auto;html=1;entryX=0.084;entryY=1.013;entryDx=0;entryDy=0;entryPerimeter=0;fontColor=#B3B3B3;startArrow=classic;startFill=0;strokeWidth=4;" parent="zrdsWcb4Bhqk5OW8Jd19-1" source="liMYMqPauSzpus2wI1fg-9" target="liMYMqPauSzpus2wI1fg-11" edge="1">
          <mxGeometry relative="1" as="geometry" />
        </mxCell>
        <mxCell id="liMYMqPauSzpus2wI1fg-9" value="Graphics Library&lt;br style=&quot;font-size: 16px&quot;&gt;&lt;font color=&quot;#b3b3b3&quot; style=&quot;font-size: 16px&quot;&gt;gfx.c&lt;/font&gt;" style="rounded=1;whiteSpace=wrap;html=1;strokeWidth=3;fontSize=16;fontStyle=1" parent="zrdsWcb4Bhqk5OW8Jd19-1" vertex="1">
          <mxGeometry x="70" y="190" width="130" height="90" as="geometry" />
        </mxCell>
        <mxCell id="liMYMqPauSzpus2wI1fg-11" value="Application&lt;br&gt;&lt;font color=&quot;#b3b3b3&quot;&gt;main.c&lt;/font&gt;" style="rounded=1;whiteSpace=wrap;html=1;strokeWidth=3;fontSize=16;fontStyle=1" parent="zrdsWcb4Bhqk5OW8Jd19-1" vertex="1">
          <mxGeometry x="44" y="50" width="1080" height="90" as="geometry" />
        </mxCell>
        <mxCell id="liMYMqPauSzpus2wI1fg-63" style="edgeStyle=orthogonalEdgeStyle;rounded=0;orthogonalLoop=1;jettySize=auto;html=1;entryX=0.5;entryY=1;entryDx=0;entryDy=0;fontColor=#B3B3B3;startArrow=classic;startFill=0;strokeWidth=4;" parent="zrdsWcb4Bhqk5OW8Jd19-1" source="liMYMqPauSzpus2wI1fg-20" target="liMYMqPauSzpus2wI1fg-3" edge="1">
          <mxGeometry relative="1" as="geometry" />
        </mxCell>
        <mxCell id="liMYMqPauSzpus2wI1fg-20" value="SH1106 OLED Display" style="rounded=1;whiteSpace=wrap;html=1;strokeWidth=3;fontSize=16;fontStyle=1" parent="zrdsWcb4Bhqk5OW8Jd19-1" vertex="1">
          <mxGeometry x="82.5" y="660" width="102.5" height="85" as="geometry" />
        </mxCell>
        <mxCell id="liMYMqPauSzpus2wI1fg-64" style="edgeStyle=orthogonalEdgeStyle;rounded=0;orthogonalLoop=1;jettySize=auto;html=1;fontColor=#B3B3B3;startArrow=classic;startFill=0;strokeWidth=4;" parent="zrdsWcb4Bhqk5OW8Jd19-1" source="liMYMqPauSzpus2wI1fg-24" target="liMYMqPauSzpus2wI1fg-36" edge="1">
          <mxGeometry relative="1" as="geometry" />
        </mxCell>
        <mxCell id="liMYMqPauSzpus2wI1fg-24" value="Rotary Encoder" style="rounded=1;whiteSpace=wrap;html=1;strokeWidth=3;fontSize=16;fontStyle=1" parent="zrdsWcb4Bhqk5OW8Jd19-1" vertex="1">
          <mxGeometry x="296.25" y="660" width="100" height="90" as="geometry" />
        </mxCell>
        <mxCell id="liMYMqPauSzpus2wI1fg-25" value="ESP-01" style="rounded=1;whiteSpace=wrap;html=1;strokeWidth=3;fontSize=16;fontStyle=1" parent="zrdsWcb4Bhqk5OW8Jd19-1" vertex="1">
          <mxGeometry x="520" y="690" width="100" height="40" as="geometry" />
        </mxCell>
        <mxCell id="liMYMqPauSzpus2wI1fg-26" value="Addressable&lt;br&gt;LEDs" style="rounded=1;whiteSpace=wrap;html=1;strokeWidth=3;fontSize=16;fontStyle=1" parent="zrdsWcb4Bhqk5OW8Jd19-1" vertex="1">
          <mxGeometry x="762.5" y="680" width="117.5" height="50" as="geometry" />
        </mxCell>
        <mxCell id="liMYMqPauSzpus2wI1fg-27" value="ADC&lt;br style=&quot;font-size: 16px&quot;&gt;&lt;font color=&quot;#b3b3b3&quot; style=&quot;font-size: 16px&quot;&gt;adc.c&lt;/font&gt;" style="rounded=1;whiteSpace=wrap;html=1;strokeWidth=3;fontSize=16;fontStyle=1" parent="zrdsWcb4Bhqk5OW8Jd19-1" vertex="1">
          <mxGeometry x="927.5" y="480" width="72.5" height="90" as="geometry" />
        </mxCell>
        <mxCell id="liMYMqPauSzpus2wI1fg-53" style="edgeStyle=orthogonalEdgeStyle;rounded=0;orthogonalLoop=1;jettySize=auto;html=1;exitX=0.5;exitY=1;exitDx=0;exitDy=0;entryX=0.377;entryY=-0.012;entryDx=0;entryDy=0;entryPerimeter=0;fontColor=#B3B3B3;startArrow=classic;startFill=0;strokeWidth=4;" parent="zrdsWcb4Bhqk5OW8Jd19-1" source="liMYMqPauSzpus2wI1fg-28" target="liMYMqPauSzpus2wI1fg-27" edge="1">
          <mxGeometry relative="1" as="geometry" />
        </mxCell>
        <mxCell id="liMYMqPauSzpus2wI1fg-54" style="edgeStyle=orthogonalEdgeStyle;rounded=0;orthogonalLoop=1;jettySize=auto;html=1;exitX=0.5;exitY=0;exitDx=0;exitDy=0;entryX=0.724;entryY=1.005;entryDx=0;entryDy=0;entryPerimeter=0;fontColor=#B3B3B3;startArrow=classic;startFill=0;strokeWidth=4;" parent="zrdsWcb4Bhqk5OW8Jd19-1" source="liMYMqPauSzpus2wI1fg-28" target="liMYMqPauSzpus2wI1fg-29" edge="1">
          <mxGeometry relative="1" as="geometry" />
        </mxCell>
        <mxCell id="liMYMqPauSzpus2wI1fg-28" value="Audio In&lt;br style=&quot;font-size: 16px&quot;&gt;&lt;font color=&quot;#b3b3b3&quot; style=&quot;font-size: 16px&quot;&gt;mic_in.c&lt;/font&gt;" style="rounded=1;whiteSpace=wrap;html=1;strokeWidth=3;fontSize=16;fontStyle=1" parent="zrdsWcb4Bhqk5OW8Jd19-1" vertex="1">
          <mxGeometry x="910" y="330" width="90" height="90" as="geometry" />
        </mxCell>
        <mxCell id="liMYMqPauSzpus2wI1fg-50" style="edgeStyle=orthogonalEdgeStyle;rounded=0;orthogonalLoop=1;jettySize=auto;html=1;exitX=0.5;exitY=0;exitDx=0;exitDy=0;entryX=0.789;entryY=0.999;entryDx=0;entryDy=0;entryPerimeter=0;fontColor=#B3B3B3;startArrow=classic;startFill=0;strokeWidth=4;" parent="zrdsWcb4Bhqk5OW8Jd19-1" source="liMYMqPauSzpus2wI1fg-29" target="liMYMqPauSzpus2wI1fg-11" edge="1">
          <mxGeometry relative="1" as="geometry" />
        </mxCell>
        <mxCell id="liMYMqPauSzpus2wI1fg-52" style="edgeStyle=orthogonalEdgeStyle;rounded=0;orthogonalLoop=1;jettySize=auto;html=1;entryX=0.5;entryY=0;entryDx=0;entryDy=0;fontColor=#B3B3B3;startArrow=classic;startFill=0;strokeWidth=4;" parent="zrdsWcb4Bhqk5OW8Jd19-1" target="liMYMqPauSzpus2wI1fg-30" edge="1">
          <mxGeometry relative="1" as="geometry">
            <mxPoint x="825" y="275" as="sourcePoint" />
            <Array as="points">
              <mxPoint x="825" y="275" />
            </Array>
          </mxGeometry>
        </mxCell>
        <mxCell id="liMYMqPauSzpus2wI1fg-29" value="LED Profiles&lt;br style=&quot;font-size: 16px&quot;&gt;&lt;font color=&quot;#b3b3b3&quot; style=&quot;font-size: 16px&quot;&gt;led_profiles.c&lt;/font&gt;" style="rounded=1;whiteSpace=wrap;html=1;strokeWidth=3;fontSize=16;fontStyle=1" parent="zrdsWcb4Bhqk5OW8Jd19-1" vertex="1">
          <mxGeometry x="760" y="184" width="270" height="90" as="geometry" />
        </mxCell>
        <mxCell id="liMYMqPauSzpus2wI1fg-55" style="edgeStyle=orthogonalEdgeStyle;rounded=0;orthogonalLoop=1;jettySize=auto;html=1;exitX=0.5;exitY=1;exitDx=0;exitDy=0;entryX=0.43;entryY=0.01;entryDx=0;entryDy=0;entryPerimeter=0;fontColor=#B3B3B3;startArrow=classic;startFill=0;strokeWidth=4;" parent="zrdsWcb4Bhqk5OW8Jd19-1" source="liMYMqPauSzpus2wI1fg-30" target="liMYMqPauSzpus2wI1fg-31" edge="1">
          <mxGeometry relative="1" as="geometry" />
        </mxCell>
        <mxCell id="liMYMqPauSzpus2wI1fg-30" value="SPI DRV&lt;br style=&quot;font-size: 16px&quot;&gt;&lt;font color=&quot;#b3b3b3&quot; style=&quot;font-size: 16px&quot;&gt;spi_led.c&lt;/font&gt;" style="rounded=1;whiteSpace=wrap;html=1;strokeWidth=3;fontSize=16;fontStyle=1" parent="zrdsWcb4Bhqk5OW8Jd19-1" vertex="1">
          <mxGeometry x="780" y="330" width="90" height="90" as="geometry" />
        </mxCell>
        <mxCell id="liMYMqPauSzpus2wI1fg-31" value="SPI PLIB&lt;br style=&quot;font-size: 16px&quot;&gt;&lt;font color=&quot;#b3b3b3&quot; style=&quot;font-size: 16px&quot;&gt;spi1.c&lt;/font&gt;" style="rounded=1;whiteSpace=wrap;html=1;strokeWidth=3;fontSize=16;fontStyle=1" parent="zrdsWcb4Bhqk5OW8Jd19-1" vertex="1">
          <mxGeometry x="760" y="478" width="150" height="90" as="geometry" />
        </mxCell>
        <mxCell id="liMYMqPauSzpus2wI1fg-56" style="edgeStyle=orthogonalEdgeStyle;rounded=0;orthogonalLoop=1;jettySize=auto;html=1;exitX=0.5;exitY=1;exitDx=0;exitDy=0;entryX=0.5;entryY=0;entryDx=0;entryDy=0;fontColor=#B3B3B3;startArrow=classic;startFill=0;strokeWidth=4;" parent="zrdsWcb4Bhqk5OW8Jd19-1" source="liMYMqPauSzpus2wI1fg-32" target="liMYMqPauSzpus2wI1fg-26" edge="1">
          <mxGeometry relative="1" as="geometry" />
        </mxCell>
        <mxCell id="liMYMqPauSzpus2wI1fg-32" value="CLC, PWM, TMR2" style="rounded=1;whiteSpace=wrap;html=1;strokeWidth=3;fontSize=16;fontStyle=1" parent="zrdsWcb4Bhqk5OW8Jd19-1" vertex="1">
          <mxGeometry x="760" y="550" width="150" height="20" as="geometry" />
        </mxCell>
        <mxCell id="liMYMqPauSzpus2wI1fg-57" style="edgeStyle=orthogonalEdgeStyle;rounded=0;orthogonalLoop=1;jettySize=auto;html=1;entryX=0.5;entryY=1;entryDx=0;entryDy=0;fontColor=#B3B3B3;startArrow=classic;startFill=0;strokeWidth=4;" parent="zrdsWcb4Bhqk5OW8Jd19-1" source="liMYMqPauSzpus2wI1fg-33" target="liMYMqPauSzpus2wI1fg-27" edge="1">
          <mxGeometry relative="1" as="geometry" />
        </mxCell>
        <mxCell id="liMYMqPauSzpus2wI1fg-33" value="Mic" style="rounded=1;whiteSpace=wrap;html=1;strokeWidth=3;fontSize=16;fontStyle=1" parent="zrdsWcb4Bhqk5OW8Jd19-1" vertex="1">
          <mxGeometry x="926.25" y="680" width="75" height="40" as="geometry" />
        </mxCell>
        <mxCell id="liMYMqPauSzpus2wI1fg-58" style="edgeStyle=orthogonalEdgeStyle;rounded=0;orthogonalLoop=1;jettySize=auto;html=1;exitX=0.5;exitY=1;exitDx=0;exitDy=0;entryX=0.5;entryY=0;entryDx=0;entryDy=0;fontColor=#B3B3B3;startArrow=classic;startFill=0;strokeWidth=4;" parent="zrdsWcb4Bhqk5OW8Jd19-1" source="liMYMqPauSzpus2wI1fg-34" target="liMYMqPauSzpus2wI1fg-25" edge="1">
          <mxGeometry relative="1" as="geometry" />
        </mxCell>
        <mxCell id="liMYMqPauSzpus2wI1fg-66" style="edgeStyle=orthogonalEdgeStyle;rounded=0;orthogonalLoop=1;jettySize=auto;html=1;entryX=0.5;entryY=1;entryDx=0;entryDy=0;fontColor=#B3B3B3;startArrow=classic;startFill=0;strokeWidth=4;" parent="zrdsWcb4Bhqk5OW8Jd19-1" source="liMYMqPauSzpus2wI1fg-34" target="liMYMqPauSzpus2wI1fg-35" edge="1">
          <mxGeometry relative="1" as="geometry" />
        </mxCell>
        <mxCell id="liMYMqPauSzpus2wI1fg-34" value="UART PLIB&lt;br style=&quot;font-size: 16px&quot;&gt;&lt;font color=&quot;#b3b3b3&quot; style=&quot;font-size: 16px&quot;&gt;uart1.c&lt;/font&gt;" style="rounded=1;whiteSpace=wrap;html=1;strokeWidth=3;fontSize=16;fontStyle=1" parent="zrdsWcb4Bhqk5OW8Jd19-1" vertex="1">
          <mxGeometry x="503.75" y="474.75" width="132.5" height="90" as="geometry" />
        </mxCell>
        <mxCell id="liMYMqPauSzpus2wI1fg-68" style="edgeStyle=orthogonalEdgeStyle;rounded=0;orthogonalLoop=1;jettySize=auto;html=1;entryX=0.487;entryY=1.026;entryDx=0;entryDy=0;entryPerimeter=0;fontColor=#B3B3B3;startArrow=classic;startFill=0;strokeWidth=4;" parent="zrdsWcb4Bhqk5OW8Jd19-1" source="liMYMqPauSzpus2wI1fg-35" target="liMYMqPauSzpus2wI1fg-11" edge="1">
          <mxGeometry relative="1" as="geometry" />
        </mxCell>
        <mxCell id="liMYMqPauSzpus2wI1fg-35" value="ESP-01 Driver&lt;br style=&quot;font-size: 16px&quot;&gt;&lt;font color=&quot;#b3b3b3&quot; style=&quot;font-size: 16px&quot;&gt;esp_01.c&lt;/font&gt;" style="rounded=1;whiteSpace=wrap;html=1;strokeWidth=3;fontSize=16;fontStyle=1" parent="zrdsWcb4Bhqk5OW8Jd19-1" vertex="1">
          <mxGeometry x="503.75" y="330" width="132.5" height="90" as="geometry" />
        </mxCell>
        <mxCell id="liMYMqPauSzpus2wI1fg-65" style="edgeStyle=orthogonalEdgeStyle;rounded=0;orthogonalLoop=1;jettySize=auto;html=1;entryX=0.5;entryY=1;entryDx=0;entryDy=0;fontColor=#B3B3B3;startArrow=classic;startFill=0;strokeWidth=4;" parent="zrdsWcb4Bhqk5OW8Jd19-1" source="liMYMqPauSzpus2wI1fg-36" target="liMYMqPauSzpus2wI1fg-38" edge="1">
          <mxGeometry relative="1" as="geometry" />
        </mxCell>
        <mxCell id="liMYMqPauSzpus2wI1fg-36" value="CLC&lt;br style=&quot;font-size: 16px&quot;&gt;&lt;font color=&quot;#b3b3b3&quot; style=&quot;font-size: 16px&quot;&gt;clc2.c&lt;/font&gt;" style="rounded=1;whiteSpace=wrap;html=1;strokeWidth=3;fontSize=16;fontStyle=1" parent="zrdsWcb4Bhqk5OW8Jd19-1" vertex="1">
          <mxGeometry x="280" y="480" width="132.5" height="90" as="geometry" />
        </mxCell>
        <mxCell id="liMYMqPauSzpus2wI1fg-60" style="edgeStyle=orthogonalEdgeStyle;rounded=0;orthogonalLoop=1;jettySize=auto;html=1;exitX=0.5;exitY=0;exitDx=0;exitDy=0;entryX=0.5;entryY=1;entryDx=0;entryDy=0;fontColor=#B3B3B3;startArrow=classic;startFill=0;strokeWidth=4;" parent="zrdsWcb4Bhqk5OW8Jd19-1" source="liMYMqPauSzpus2wI1fg-38" target="liMYMqPauSzpus2wI1fg-39" edge="1">
          <mxGeometry relative="1" as="geometry" />
        </mxCell>
        <mxCell id="liMYMqPauSzpus2wI1fg-38" value="&lt;font style=&quot;font-size: 16px&quot;&gt;Inputs&lt;br&gt;&lt;/font&gt;&lt;font color=&quot;#b3b3b3&quot; style=&quot;font-size: 16px&quot;&gt;buttons.c&lt;/font&gt;" style="rounded=1;whiteSpace=wrap;html=1;strokeWidth=3;fontSize=16;fontStyle=1" parent="zrdsWcb4Bhqk5OW8Jd19-1" vertex="1">
          <mxGeometry x="290" y="350" width="90" height="50" as="geometry" />
        </mxCell>
        <mxCell id="liMYMqPauSzpus2wI1fg-49" style="edgeStyle=orthogonalEdgeStyle;rounded=0;orthogonalLoop=1;jettySize=auto;html=1;exitX=0;exitY=0.5;exitDx=0;exitDy=0;entryX=1;entryY=0.75;entryDx=0;entryDy=0;fontColor=#B3B3B3;startArrow=classic;startFill=0;strokeWidth=4;" parent="zrdsWcb4Bhqk5OW8Jd19-1" source="liMYMqPauSzpus2wI1fg-39" target="liMYMqPauSzpus2wI1fg-9" edge="1">
          <mxGeometry relative="1" as="geometry" />
        </mxCell>
        <mxCell id="liMYMqPauSzpus2wI1fg-59" style="edgeStyle=orthogonalEdgeStyle;rounded=0;orthogonalLoop=1;jettySize=auto;html=1;exitX=1;exitY=0.5;exitDx=0;exitDy=0;entryX=0;entryY=0.5;entryDx=0;entryDy=0;fontColor=#B3B3B3;startArrow=classic;startFill=0;strokeWidth=4;" parent="zrdsWcb4Bhqk5OW8Jd19-1" source="liMYMqPauSzpus2wI1fg-39" target="liMYMqPauSzpus2wI1fg-35" edge="1">
          <mxGeometry relative="1" as="geometry" />
        </mxCell>
        <mxCell id="liMYMqPauSzpus2wI1fg-39" value="&lt;font style=&quot;font-size: 16px&quot;&gt;Menu&lt;br&gt;&lt;/font&gt;&lt;font color=&quot;#b3b3b3&quot; style=&quot;font-size: 16px&quot;&gt;menu.c&lt;/font&gt;" style="rounded=1;whiteSpace=wrap;html=1;strokeWidth=3;fontSize=16;fontStyle=1" parent="zrdsWcb4Bhqk5OW8Jd19-1" vertex="1">
          <mxGeometry x="290" y="250" width="90" height="50" as="geometry" />
        </mxCell>
        <mxCell id="liMYMqPauSzpus2wI1fg-48" style="edgeStyle=orthogonalEdgeStyle;rounded=0;orthogonalLoop=1;jettySize=auto;html=1;exitX=0;exitY=0.5;exitDx=0;exitDy=0;entryX=1;entryY=0.25;entryDx=0;entryDy=0;fontColor=#B3B3B3;startArrow=classic;startFill=0;strokeWidth=4;" parent="zrdsWcb4Bhqk5OW8Jd19-1" source="liMYMqPauSzpus2wI1fg-46" target="liMYMqPauSzpus2wI1fg-9" edge="1">
          <mxGeometry relative="1" as="geometry" />
        </mxCell>
        <mxCell id="liMYMqPauSzpus2wI1fg-46" value="&lt;font style=&quot;font-size: 16px&quot;&gt;Canvas&lt;br&gt;&lt;/font&gt;&lt;font color=&quot;#b3b3b3&quot; style=&quot;font-size: 16px&quot;&gt;bitmaps.c&lt;br&gt;fonts.c&lt;br&gt;&lt;/font&gt;" style="rounded=1;whiteSpace=wrap;html=1;strokeWidth=3;fontSize=16;fontStyle=1" parent="zrdsWcb4Bhqk5OW8Jd19-1" vertex="1">
          <mxGeometry x="290" y="177" width="90" height="70" as="geometry" />
        </mxCell>
      </root>
    </mxGraphModel>
  </diagram>
  <diagram id="7KvmjyCfTDRov8npjRAZ" name="Page-3">
    <mxGraphModel dx="1434" dy="774" grid="1" gridSize="10" guides="1" tooltips="1" connect="1" arrows="1" fold="1" page="1" pageScale="1" pageWidth="1169" pageHeight="827" math="0" shadow="0">
      <root>
        <mxCell id="0" />
        <mxCell id="1" parent="0" />
        <mxCell id="qykAchQCvCf3oqYdzRTr-1" value="" style="rounded=1;whiteSpace=wrap;html=1;strokeWidth=3;" parent="1" vertex="1">
          <mxGeometry x="170" y="240" width="210" height="200" as="geometry" />
        </mxCell>
        <mxCell id="qykAchQCvCf3oqYdzRTr-2" value="char *option1 = &quot;About&quot;" style="text;html=1;align=center;verticalAlign=middle;resizable=0;points=[];autosize=1;strokeColor=none;fillColor=none;fontStyle=1" parent="1" vertex="1">
          <mxGeometry x="185" y="270" width="150" height="20" as="geometry" />
        </mxCell>
        <mxCell id="qykAchQCvCf3oqYdzRTr-3" value="object_t *opt1Obj = &amp;amp;aboutObj" style="text;html=1;align=center;verticalAlign=middle;resizable=0;points=[];autosize=1;strokeColor=none;fillColor=none;fontStyle=1" parent="1" vertex="1">
          <mxGeometry x="175" y="290" width="190" height="20" as="geometry" />
        </mxCell>
        <mxCell id="qykAchQCvCf3oqYdzRTr-4" value="char *option2 = &quot;Select LED Profile&quot;" style="text;html=1;align=center;verticalAlign=middle;resizable=0;points=[];autosize=1;strokeColor=none;fillColor=none;fontStyle=1" parent="1" vertex="1">
          <mxGeometry x="165" y="320" width="220" height="20" as="geometry" />
        </mxCell>
        <mxCell id="qykAchQCvCf3oqYdzRTr-5" value="object_t *opt2Obj = &amp;amp;ledProfileObj" style="text;html=1;align=center;verticalAlign=middle;resizable=0;points=[];autosize=1;strokeColor=none;fillColor=none;fontStyle=1" parent="1" vertex="1">
          <mxGeometry x="165" y="340" width="210" height="20" as="geometry" />
        </mxCell>
        <mxCell id="qykAchQCvCf3oqYdzRTr-8" value="" style="rounded=1;whiteSpace=wrap;html=1;strokeWidth=3;" parent="1" vertex="1">
          <mxGeometry x="460" y="110" width="210" height="200" as="geometry" />
        </mxCell>
        <mxCell id="qykAchQCvCf3oqYdzRTr-9" value="About" style="text;html=1;align=center;verticalAlign=middle;resizable=0;points=[];autosize=1;strokeColor=none;fillColor=none;fontStyle=1" parent="1" vertex="1">
          <mxGeometry x="540" y="120" width="50" height="20" as="geometry" />
        </mxCell>
        <mxCell id="qykAchQCvCf3oqYdzRTr-10" value="char *option1" style="text;html=1;align=center;verticalAlign=middle;resizable=0;points=[];autosize=1;strokeColor=none;fillColor=none;fontStyle=1" parent="1" vertex="1">
          <mxGeometry x="485" y="160" width="90" height="20" as="geometry" />
        </mxCell>
        <mxCell id="qykAchQCvCf3oqYdzRTr-11" value="object_t *opt1Obj" style="text;html=1;align=center;verticalAlign=middle;resizable=0;points=[];autosize=1;strokeColor=none;fillColor=none;fontStyle=1" parent="1" vertex="1">
          <mxGeometry x="485" y="180" width="110" height="20" as="geometry" />
        </mxCell>
        <mxCell id="qykAchQCvCf3oqYdzRTr-12" value="char *option2" style="text;html=1;align=center;verticalAlign=middle;resizable=0;points=[];autosize=1;strokeColor=none;fillColor=none;fontStyle=1" parent="1" vertex="1">
          <mxGeometry x="485" y="210" width="90" height="20" as="geometry" />
        </mxCell>
        <mxCell id="qykAchQCvCf3oqYdzRTr-13" value="object_t *opt2Obj" style="text;html=1;align=center;verticalAlign=middle;resizable=0;points=[];autosize=1;strokeColor=none;fillColor=none;fontStyle=1" parent="1" vertex="1">
          <mxGeometry x="485" y="230" width="110" height="20" as="geometry" />
        </mxCell>
        <mxCell id="qykAchQCvCf3oqYdzRTr-14" value="" style="rounded=1;whiteSpace=wrap;html=1;strokeWidth=3;" parent="1" vertex="1">
          <mxGeometry x="460" y="360" width="210" height="200" as="geometry" />
        </mxCell>
        <mxCell id="qykAchQCvCf3oqYdzRTr-15" value="Select LED Profile" style="text;html=1;align=center;verticalAlign=middle;resizable=0;points=[];autosize=1;strokeColor=none;fillColor=none;fontStyle=1" parent="1" vertex="1">
          <mxGeometry x="505" y="370" width="120" height="20" as="geometry" />
        </mxCell>
        <mxCell id="qykAchQCvCf3oqYdzRTr-16" value="char *option1" style="text;html=1;align=center;verticalAlign=middle;resizable=0;points=[];autosize=1;strokeColor=none;fillColor=none;fontStyle=1" parent="1" vertex="1">
          <mxGeometry x="485" y="410" width="90" height="20" as="geometry" />
        </mxCell>
        <mxCell id="qykAchQCvCf3oqYdzRTr-17" value="object_t *opt1Obj" style="text;html=1;align=center;verticalAlign=middle;resizable=0;points=[];autosize=1;strokeColor=none;fillColor=none;fontStyle=1" parent="1" vertex="1">
          <mxGeometry x="485" y="430" width="110" height="20" as="geometry" />
        </mxCell>
        <mxCell id="qykAchQCvCf3oqYdzRTr-18" value="char *option2" style="text;html=1;align=center;verticalAlign=middle;resizable=0;points=[];autosize=1;strokeColor=none;fillColor=none;fontStyle=1" parent="1" vertex="1">
          <mxGeometry x="485" y="460" width="90" height="20" as="geometry" />
        </mxCell>
        <mxCell id="qykAchQCvCf3oqYdzRTr-19" value="object_t *opt2Obj" style="text;html=1;align=center;verticalAlign=middle;resizable=0;points=[];autosize=1;strokeColor=none;fillColor=none;fontStyle=1" parent="1" vertex="1">
          <mxGeometry x="485" y="480" width="110" height="20" as="geometry" />
        </mxCell>
        <mxCell id="qykAchQCvCf3oqYdzRTr-20" value="object_t *prevObj" style="text;html=1;align=center;verticalAlign=middle;resizable=0;points=[];autosize=1;strokeColor=none;fillColor=none;fontStyle=1" parent="1" vertex="1">
          <mxGeometry x="485" y="280" width="110" height="20" as="geometry" />
        </mxCell>
        <mxCell id="qykAchQCvCf3oqYdzRTr-21" value="object_t *prevObj" style="text;html=1;align=center;verticalAlign=middle;resizable=0;points=[];autosize=1;strokeColor=none;fillColor=none;fontStyle=1" parent="1" vertex="1">
          <mxGeometry x="485" y="530" width="110" height="20" as="geometry" />
        </mxCell>
        <mxCell id="qykAchQCvCf3oqYdzRTr-28" style="rounded=0;orthogonalLoop=1;jettySize=auto;html=1;exitX=1;exitY=0;exitDx=0;exitDy=0;entryX=0;entryY=0.5;entryDx=0;entryDy=0;strokeWidth=3;" parent="1" source="qykAchQCvCf3oqYdzRTr-67" target="qykAchQCvCf3oqYdzRTr-8" edge="1">
          <mxGeometry relative="1" as="geometry">
            <mxPoint x="330" y="290" as="sourcePoint" />
          </mxGeometry>
        </mxCell>
        <mxCell id="qykAchQCvCf3oqYdzRTr-29" style="edgeStyle=none;rounded=0;orthogonalLoop=1;jettySize=auto;html=1;exitX=0.979;exitY=1.055;exitDx=0;exitDy=0;entryX=0;entryY=0.5;entryDx=0;entryDy=0;strokeWidth=3;exitPerimeter=0;" parent="1" source="qykAchQCvCf3oqYdzRTr-5" target="qykAchQCvCf3oqYdzRTr-14" edge="1">
          <mxGeometry relative="1" as="geometry">
            <mxPoint x="330" y="340" as="sourcePoint" />
          </mxGeometry>
        </mxCell>
        <mxCell id="qykAchQCvCf3oqYdzRTr-55" style="edgeStyle=none;rounded=0;orthogonalLoop=1;jettySize=auto;html=1;exitX=1;exitY=0.5;exitDx=0;exitDy=0;entryX=0;entryY=0.5;entryDx=0;entryDy=0;strokeWidth=3;" parent="1" target="qykAchQCvCf3oqYdzRTr-35" edge="1">
          <mxGeometry relative="1" as="geometry">
            <mxPoint x="605" y="430" as="sourcePoint" />
          </mxGeometry>
        </mxCell>
        <mxCell id="qykAchQCvCf3oqYdzRTr-57" style="edgeStyle=none;rounded=0;orthogonalLoop=1;jettySize=auto;html=1;exitX=1;exitY=0.5;exitDx=0;exitDy=0;entryX=0;entryY=0.5;entryDx=0;entryDy=0;strokeWidth=3;" parent="1" target="qykAchQCvCf3oqYdzRTr-45" edge="1">
          <mxGeometry relative="1" as="geometry">
            <mxPoint x="605" y="480" as="sourcePoint" />
          </mxGeometry>
        </mxCell>
        <mxCell id="qykAchQCvCf3oqYdzRTr-34" style="edgeStyle=none;rounded=0;orthogonalLoop=1;jettySize=auto;html=1;exitX=0;exitY=0.5;exitDx=0;exitDy=0;entryX=1;entryY=0.25;entryDx=0;entryDy=0;strokeWidth=3;" parent="1" target="qykAchQCvCf3oqYdzRTr-1" edge="1">
          <mxGeometry relative="1" as="geometry">
            <mxPoint x="480" y="290" as="sourcePoint" />
          </mxGeometry>
        </mxCell>
        <mxCell id="qykAchQCvCf3oqYdzRTr-32" style="edgeStyle=none;rounded=0;orthogonalLoop=1;jettySize=auto;html=1;exitX=0;exitY=0.5;exitDx=0;exitDy=0;entryX=1;entryY=1;entryDx=0;entryDy=0;strokeWidth=3;" parent="1" target="qykAchQCvCf3oqYdzRTr-1" edge="1">
          <mxGeometry relative="1" as="geometry">
            <mxPoint x="480" y="540" as="sourcePoint" />
          </mxGeometry>
        </mxCell>
        <mxCell id="qykAchQCvCf3oqYdzRTr-35" value="" style="rounded=1;whiteSpace=wrap;html=1;strokeWidth=3;" parent="1" vertex="1">
          <mxGeometry x="740" y="240" width="210" height="200" as="geometry" />
        </mxCell>
        <mxCell id="qykAchQCvCf3oqYdzRTr-36" value="Comet&#39;s Tail" style="text;html=1;align=center;verticalAlign=middle;resizable=0;points=[];autosize=1;strokeColor=none;fillColor=none;fontStyle=1" parent="1" vertex="1">
          <mxGeometry x="800" y="250" width="90" height="20" as="geometry" />
        </mxCell>
        <mxCell id="qykAchQCvCf3oqYdzRTr-37" value="char *option1" style="text;html=1;align=center;verticalAlign=middle;resizable=0;points=[];autosize=1;strokeColor=none;fillColor=none;fontStyle=1" parent="1" vertex="1">
          <mxGeometry x="765" y="290" width="90" height="20" as="geometry" />
        </mxCell>
        <mxCell id="qykAchQCvCf3oqYdzRTr-38" value="object_t *opt1Obj" style="text;html=1;align=center;verticalAlign=middle;resizable=0;points=[];autosize=1;strokeColor=none;fillColor=none;fontStyle=1" parent="1" vertex="1">
          <mxGeometry x="765" y="310" width="110" height="20" as="geometry" />
        </mxCell>
        <mxCell id="qykAchQCvCf3oqYdzRTr-39" value="char *option2" style="text;html=1;align=center;verticalAlign=middle;resizable=0;points=[];autosize=1;strokeColor=none;fillColor=none;fontStyle=1" parent="1" vertex="1">
          <mxGeometry x="765" y="340" width="90" height="20" as="geometry" />
        </mxCell>
        <mxCell id="qykAchQCvCf3oqYdzRTr-40" value="object_t *opt2Obj" style="text;html=1;align=center;verticalAlign=middle;resizable=0;points=[];autosize=1;strokeColor=none;fillColor=none;fontStyle=1" parent="1" vertex="1">
          <mxGeometry x="765" y="360" width="110" height="20" as="geometry" />
        </mxCell>
        <mxCell id="qykAchQCvCf3oqYdzRTr-41" value="object_t *prevObj" style="text;html=1;align=center;verticalAlign=middle;resizable=0;points=[];autosize=1;strokeColor=none;fillColor=none;fontStyle=1" parent="1" vertex="1">
          <mxGeometry x="765" y="410" width="110" height="20" as="geometry" />
        </mxCell>
        <mxCell id="qykAchQCvCf3oqYdzRTr-56" style="edgeStyle=none;rounded=0;orthogonalLoop=1;jettySize=auto;html=1;exitX=0;exitY=0.5;exitDx=0;exitDy=0;entryX=1;entryY=0.25;entryDx=0;entryDy=0;strokeWidth=3;" parent="1" target="qykAchQCvCf3oqYdzRTr-14" edge="1">
          <mxGeometry relative="1" as="geometry">
            <mxPoint x="760" y="420" as="sourcePoint" />
          </mxGeometry>
        </mxCell>
        <mxCell id="qykAchQCvCf3oqYdzRTr-45" value="" style="rounded=1;whiteSpace=wrap;html=1;strokeWidth=3;" parent="1" vertex="1">
          <mxGeometry x="740" y="470" width="210" height="200" as="geometry" />
        </mxCell>
        <mxCell id="qykAchQCvCf3oqYdzRTr-46" value="Theater Chase" style="text;html=1;align=center;verticalAlign=middle;resizable=0;points=[];autosize=1;strokeColor=none;fillColor=none;fontStyle=1" parent="1" vertex="1">
          <mxGeometry x="795" y="480" width="100" height="20" as="geometry" />
        </mxCell>
        <mxCell id="qykAchQCvCf3oqYdzRTr-47" value="char *option1" style="text;html=1;align=center;verticalAlign=middle;resizable=0;points=[];autosize=1;strokeColor=none;fillColor=none;fontStyle=1" parent="1" vertex="1">
          <mxGeometry x="765" y="520" width="90" height="20" as="geometry" />
        </mxCell>
        <mxCell id="qykAchQCvCf3oqYdzRTr-48" value="object_t *opt1Obj" style="text;html=1;align=center;verticalAlign=middle;resizable=0;points=[];autosize=1;strokeColor=none;fillColor=none;fontStyle=1" parent="1" vertex="1">
          <mxGeometry x="765" y="540" width="110" height="20" as="geometry" />
        </mxCell>
        <mxCell id="qykAchQCvCf3oqYdzRTr-49" value="char *option2" style="text;html=1;align=center;verticalAlign=middle;resizable=0;points=[];autosize=1;strokeColor=none;fillColor=none;fontStyle=1" parent="1" vertex="1">
          <mxGeometry x="765" y="570" width="90" height="20" as="geometry" />
        </mxCell>
        <mxCell id="qykAchQCvCf3oqYdzRTr-50" value="object_t *opt2Obj" style="text;html=1;align=center;verticalAlign=middle;resizable=0;points=[];autosize=1;strokeColor=none;fillColor=none;fontStyle=1" parent="1" vertex="1">
          <mxGeometry x="765" y="590" width="110" height="20" as="geometry" />
        </mxCell>
        <mxCell id="qykAchQCvCf3oqYdzRTr-51" value="object_t *prevObj" style="text;html=1;align=center;verticalAlign=middle;resizable=0;points=[];autosize=1;strokeColor=none;fillColor=none;fontStyle=1" parent="1" vertex="1">
          <mxGeometry x="765" y="640" width="110" height="20" as="geometry" />
        </mxCell>
        <mxCell id="qykAchQCvCf3oqYdzRTr-58" style="edgeStyle=none;rounded=0;orthogonalLoop=1;jettySize=auto;html=1;exitX=0;exitY=0.5;exitDx=0;exitDy=0;entryX=1;entryY=1;entryDx=0;entryDy=0;strokeWidth=3;" parent="1" target="qykAchQCvCf3oqYdzRTr-14" edge="1">
          <mxGeometry relative="1" as="geometry">
            <mxPoint x="760" y="650" as="sourcePoint" />
          </mxGeometry>
        </mxCell>
        <mxCell id="qykAchQCvCf3oqYdzRTr-59" value="Main Menu" style="text;html=1;align=center;verticalAlign=middle;resizable=0;points=[];autosize=1;strokeColor=none;fillColor=none;fontStyle=1" parent="1" vertex="1">
          <mxGeometry x="235" y="240" width="80" height="20" as="geometry" />
        </mxCell>
        <mxCell id="qykAchQCvCf3oqYdzRTr-61" value="object_t *prevObj" style="text;html=1;align=center;verticalAlign=middle;resizable=0;points=[];autosize=1;strokeColor=none;fillColor=none;fontStyle=1" parent="1" vertex="1">
          <mxGeometry x="220" y="410" width="110" height="20" as="geometry" />
        </mxCell>
        <mxCell id="qykAchQCvCf3oqYdzRTr-64" style="edgeStyle=none;rounded=0;orthogonalLoop=1;jettySize=auto;html=1;exitX=0.5;exitY=1;exitDx=0;exitDy=0;entryX=0.564;entryY=-0.04;entryDx=0;entryDy=0;entryPerimeter=0;strokeWidth=3;" parent="1" target="qykAchQCvCf3oqYdzRTr-63" edge="1">
          <mxGeometry relative="1" as="geometry">
            <mxPoint x="275" y="430" as="sourcePoint" />
          </mxGeometry>
        </mxCell>
        <mxCell id="qykAchQCvCf3oqYdzRTr-63" value="NULL" style="text;html=1;align=center;verticalAlign=middle;resizable=0;points=[];autosize=1;strokeColor=none;fillColor=none;fontStyle=1" parent="1" vertex="1">
          <mxGeometry x="245" y="470" width="50" height="20" as="geometry" />
        </mxCell>
        <mxCell id="qykAchQCvCf3oqYdzRTr-65" value="" style="rounded=1;whiteSpace=wrap;html=1;strokeWidth=3;fillColor=none;" parent="1" vertex="1">
          <mxGeometry x="210" y="470" width="120" height="20" as="geometry" />
        </mxCell>
        <mxCell id="qykAchQCvCf3oqYdzRTr-66" value="Untitled Layer" style="" parent="0" />
        <mxCell id="qykAchQCvCf3oqYdzRTr-67" value="" style="rounded=1;whiteSpace=wrap;html=1;strokeWidth=3;fillColor=none;" parent="qykAchQCvCf3oqYdzRTr-66" vertex="1">
          <mxGeometry x="180" y="270" width="180" height="40" as="geometry" />
        </mxCell>
        <mxCell id="qykAchQCvCf3oqYdzRTr-68" value="" style="rounded=1;whiteSpace=wrap;html=1;strokeWidth=3;fillColor=none;" parent="qykAchQCvCf3oqYdzRTr-66" vertex="1">
          <mxGeometry x="170" y="320" width="210" height="40" as="geometry" />
        </mxCell>
        <mxCell id="qykAchQCvCf3oqYdzRTr-69" value="" style="rounded=1;whiteSpace=wrap;html=1;strokeWidth=3;fillColor=none;" parent="qykAchQCvCf3oqYdzRTr-66" vertex="1">
          <mxGeometry x="485" y="160" width="120" height="40" as="geometry" />
        </mxCell>
        <mxCell id="qykAchQCvCf3oqYdzRTr-70" value="" style="rounded=1;whiteSpace=wrap;html=1;strokeWidth=3;fillColor=none;" parent="qykAchQCvCf3oqYdzRTr-66" vertex="1">
          <mxGeometry x="485" y="210" width="120" height="40" as="geometry" />
        </mxCell>
        <mxCell id="qykAchQCvCf3oqYdzRTr-71" value="" style="rounded=1;whiteSpace=wrap;html=1;strokeWidth=3;fillColor=none;" parent="qykAchQCvCf3oqYdzRTr-66" vertex="1">
          <mxGeometry x="485" y="410" width="120" height="40" as="geometry" />
        </mxCell>
        <mxCell id="qykAchQCvCf3oqYdzRTr-72" value="" style="rounded=1;whiteSpace=wrap;html=1;strokeWidth=3;fillColor=none;" parent="qykAchQCvCf3oqYdzRTr-66" vertex="1">
          <mxGeometry x="485" y="460" width="120" height="40" as="geometry" />
        </mxCell>
        <mxCell id="qykAchQCvCf3oqYdzRTr-73" value="" style="rounded=1;whiteSpace=wrap;html=1;strokeWidth=3;fillColor=none;" parent="qykAchQCvCf3oqYdzRTr-66" vertex="1">
          <mxGeometry x="480" y="280" width="120" height="20" as="geometry" />
        </mxCell>
        <mxCell id="qykAchQCvCf3oqYdzRTr-74" value="" style="rounded=1;whiteSpace=wrap;html=1;strokeWidth=3;fillColor=none;" parent="qykAchQCvCf3oqYdzRTr-66" vertex="1">
          <mxGeometry x="480" y="530" width="120" height="20" as="geometry" />
        </mxCell>
        <mxCell id="qykAchQCvCf3oqYdzRTr-75" value="" style="rounded=1;whiteSpace=wrap;html=1;strokeWidth=3;fillColor=none;" parent="qykAchQCvCf3oqYdzRTr-66" vertex="1">
          <mxGeometry x="765" y="290" width="120" height="40" as="geometry" />
        </mxCell>
        <mxCell id="qykAchQCvCf3oqYdzRTr-76" value="" style="rounded=1;whiteSpace=wrap;html=1;strokeWidth=3;fillColor=none;" parent="qykAchQCvCf3oqYdzRTr-66" vertex="1">
          <mxGeometry x="765" y="340" width="120" height="40" as="geometry" />
        </mxCell>
        <mxCell id="qykAchQCvCf3oqYdzRTr-77" value="" style="rounded=1;whiteSpace=wrap;html=1;strokeWidth=3;fillColor=none;" parent="qykAchQCvCf3oqYdzRTr-66" vertex="1">
          <mxGeometry x="760" y="410" width="120" height="20" as="geometry" />
        </mxCell>
        <mxCell id="qykAchQCvCf3oqYdzRTr-78" value="" style="rounded=1;whiteSpace=wrap;html=1;strokeWidth=3;fillColor=none;" parent="qykAchQCvCf3oqYdzRTr-66" vertex="1">
          <mxGeometry x="765" y="520" width="120" height="40" as="geometry" />
        </mxCell>
        <mxCell id="qykAchQCvCf3oqYdzRTr-79" value="" style="rounded=1;whiteSpace=wrap;html=1;strokeWidth=3;fillColor=none;" parent="qykAchQCvCf3oqYdzRTr-66" vertex="1">
          <mxGeometry x="765" y="570" width="120" height="40" as="geometry" />
        </mxCell>
        <mxCell id="qykAchQCvCf3oqYdzRTr-80" value="" style="rounded=1;whiteSpace=wrap;html=1;strokeWidth=3;fillColor=none;" parent="qykAchQCvCf3oqYdzRTr-66" vertex="1">
          <mxGeometry x="760" y="640" width="120" height="20" as="geometry" />
        </mxCell>
        <mxCell id="qykAchQCvCf3oqYdzRTr-81" value="" style="rounded=1;whiteSpace=wrap;html=1;strokeWidth=3;fillColor=none;" parent="qykAchQCvCf3oqYdzRTr-66" vertex="1">
          <mxGeometry x="215" y="410" width="120" height="20" as="geometry" />
        </mxCell>
      </root>
    </mxGraphModel>
  </diagram>
  <diagram id="siaWzGCfGx6vfQ_DLDgL" name="menu_oop">
    <mxGraphModel dx="1434" dy="774" grid="0" gridSize="10" guides="1" tooltips="1" connect="1" arrows="1" fold="1" page="1" pageScale="1" pageWidth="1169" pageHeight="827" math="0" shadow="0">
      <root>
        <mxCell id="0" />
        <mxCell id="1" parent="0" />
        <UserObject label="https://www.state-machine.com/oop" link="https://www.state-machine.com/oop" id="jHnZ6Z0_haO_pZHqLzwJ-1">
          <mxCell style="text;whiteSpace=wrap;html=1;fontStyle=1" parent="1" vertex="1">
            <mxGeometry x="233" y="212" width="220" height="30" as="geometry" />
          </mxCell>
        </UserObject>
        <mxCell id="afi00lwD2IgmirAtlPNy-7" style="edgeStyle=orthogonalEdgeStyle;rounded=0;orthogonalLoop=1;jettySize=auto;html=1;exitX=1;exitY=0.5;exitDx=0;exitDy=0;entryX=0;entryY=0.5;entryDx=0;entryDy=0;entryPerimeter=0;strokeWidth=3;dashed=1;endArrow=circle;endFill=0;endSize=1;" parent="1" source="afi00lwD2IgmirAtlPNy-1" target="afi00lwD2IgmirAtlPNy-4" edge="1">
          <mxGeometry relative="1" as="geometry" />
        </mxCell>
        <mxCell id="afi00lwD2IgmirAtlPNy-1" value="Menu" style="rounded=1;whiteSpace=wrap;html=1;strokeWidth=3;arcSize=0;fontStyle=1" parent="1" vertex="1">
          <mxGeometry x="170" y="290" width="180" height="40" as="geometry" />
        </mxCell>
        <mxCell id="afi00lwD2IgmirAtlPNy-8" style="edgeStyle=orthogonalEdgeStyle;rounded=0;orthogonalLoop=1;jettySize=auto;html=1;exitX=1;exitY=0.5;exitDx=0;exitDy=0;dashed=1;endArrow=circle;endFill=0;endSize=1;strokeWidth=3;" parent="1" source="afi00lwD2IgmirAtlPNy-2" target="afi00lwD2IgmirAtlPNy-5" edge="1">
          <mxGeometry relative="1" as="geometry" />
        </mxCell>
        <mxCell id="afi00lwD2IgmirAtlPNy-2" value="self: &lt;span style=&quot;font-weight: normal&quot;&gt;char *&lt;/span&gt;&lt;br&gt;optionObj: &lt;span style=&quot;font-weight: normal&quot;&gt;menu_object_t **&lt;/span&gt;&lt;br&gt;prevOption: &lt;span style=&quot;font-weight: normal&quot;&gt;menu_object_t *&lt;/span&gt;" style="rounded=1;whiteSpace=wrap;html=1;strokeWidth=3;arcSize=0;fontStyle=1;align=left;verticalAlign=middle;" parent="1" vertex="1">
          <mxGeometry x="170" y="330" width="180" height="100" as="geometry" />
        </mxCell>
        <mxCell id="afi00lwD2IgmirAtlPNy-9" style="edgeStyle=orthogonalEdgeStyle;rounded=0;orthogonalLoop=1;jettySize=auto;html=1;exitX=1;exitY=0.5;exitDx=0;exitDy=0;dashed=1;endArrow=circle;endFill=0;endSize=1;strokeWidth=3;" parent="1" source="afi00lwD2IgmirAtlPNy-3" target="afi00lwD2IgmirAtlPNy-6" edge="1">
          <mxGeometry relative="1" as="geometry" />
        </mxCell>
        <mxCell id="afi00lwD2IgmirAtlPNy-3" value="&lt;span style=&quot;font-weight: normal&quot;&gt;&lt;i&gt;menuCtor()&lt;br&gt;displayOptions()&lt;br&gt;selfHandler()&lt;br&gt;// Function that processes inputs&lt;br&gt;// Function that processes outputs&amp;nbsp;&lt;/i&gt;&lt;/span&gt;" style="rounded=1;whiteSpace=wrap;html=1;strokeWidth=3;arcSize=0;fontStyle=1;align=left;verticalAlign=middle;" parent="1" vertex="1">
          <mxGeometry x="170" y="430" width="180" height="100" as="geometry" />
        </mxCell>
        <mxCell id="afi00lwD2IgmirAtlPNy-4" value="Name&lt;br&gt;Compartment" style="shape=note;whiteSpace=wrap;html=1;backgroundOutline=1;darkOpacity=0.05;strokeWidth=3;size=17;" parent="1" vertex="1">
          <mxGeometry x="420" y="290" width="130" height="40" as="geometry" />
        </mxCell>
        <mxCell id="afi00lwD2IgmirAtlPNy-5" value="Data/Attributes&lt;br&gt;Compartment" style="shape=note;whiteSpace=wrap;html=1;backgroundOutline=1;darkOpacity=0.05;strokeWidth=3;size=17;" parent="1" vertex="1">
          <mxGeometry x="420" y="360" width="130" height="40" as="geometry" />
        </mxCell>
        <mxCell id="afi00lwD2IgmirAtlPNy-6" value="Operations Compartment" style="shape=note;whiteSpace=wrap;html=1;backgroundOutline=1;darkOpacity=0.05;strokeWidth=3;size=17;" parent="1" vertex="1">
          <mxGeometry x="420" y="460" width="130" height="40" as="geometry" />
        </mxCell>
      </root>
    </mxGraphModel>
  </diagram>
  <diagram id="yPzKZL1pQhQ66E1cjsK0" name="Page-5">
    <mxGraphModel dx="1434" dy="774" grid="0" gridSize="10" guides="1" tooltips="1" connect="1" arrows="1" fold="1" page="1" pageScale="1" pageWidth="1169" pageHeight="827" math="0" shadow="0">
      <root>
        <mxCell id="0" />
        <mxCell id="1" parent="0" />
        <mxCell id="B-g5OKu3k29l7cU8etRb-1" style="edgeStyle=orthogonalEdgeStyle;rounded=0;jumpStyle=arc;orthogonalLoop=1;jettySize=auto;html=1;exitX=1;exitY=0.3;exitDx=0;exitDy=0;exitPerimeter=0;fontSize=14;endArrow=none;endFill=0;strokeWidth=2;" parent="1" source="B-g5OKu3k29l7cU8etRb-2" target="B-g5OKu3k29l7cU8etRb-8" edge="1">
          <mxGeometry relative="1" as="geometry" />
        </mxCell>
        <mxCell id="B-g5OKu3k29l7cU8etRb-2" value="CLC2" style="verticalLabelPosition=top;shadow=0;dashed=0;align=center;html=1;verticalAlign=bottom;shape=mxgraph.electrical.logic_gates.d_type_rs_flip-flop;strokeWidth=2;fontStyle=1;labelPosition=center;" parent="1" vertex="1">
          <mxGeometry x="370" y="110" width="190" height="210" as="geometry" />
        </mxCell>
        <mxCell id="B-g5OKu3k29l7cU8etRb-3" style="edgeStyle=orthogonalEdgeStyle;rounded=0;orthogonalLoop=1;jettySize=auto;html=1;entryX=0;entryY=0.7;entryDx=0;entryDy=0;entryPerimeter=0;fontSize=14;endArrow=none;endFill=0;strokeWidth=2;" parent="1" source="B-g5OKu3k29l7cU8etRb-4" target="B-g5OKu3k29l7cU8etRb-2" edge="1">
          <mxGeometry relative="1" as="geometry" />
        </mxCell>
        <mxCell id="B-g5OKu3k29l7cU8etRb-4" value="RA2/DT || rotB" style="text;html=1;align=center;verticalAlign=middle;resizable=0;points=[];autosize=1;strokeColor=none;fillColor=none;fontStyle=1;fontSize=14;" parent="1" vertex="1">
          <mxGeometry x="135" y="247" width="110" height="20" as="geometry" />
        </mxCell>
        <mxCell id="B-g5OKu3k29l7cU8etRb-5" style="edgeStyle=orthogonalEdgeStyle;rounded=0;orthogonalLoop=1;jettySize=auto;html=1;entryX=0;entryY=0.3;entryDx=0;entryDy=0;entryPerimeter=0;fontSize=14;strokeWidth=2;endArrow=none;endFill=0;" parent="1" source="B-g5OKu3k29l7cU8etRb-6" target="B-g5OKu3k29l7cU8etRb-2" edge="1">
          <mxGeometry relative="1" as="geometry" />
        </mxCell>
        <mxCell id="B-g5OKu3k29l7cU8etRb-6" value="RA1/CLK || rotA" style="text;html=1;align=center;verticalAlign=middle;resizable=0;points=[];autosize=1;strokeColor=none;fillColor=none;fontStyle=1;fontSize=14;" parent="1" vertex="1">
          <mxGeometry x="135" y="163" width="120" height="20" as="geometry" />
        </mxCell>
        <mxCell id="B-g5OKu3k29l7cU8etRb-7" style="edgeStyle=orthogonalEdgeStyle;rounded=0;orthogonalLoop=1;jettySize=auto;html=1;exitX=0.5;exitY=1;exitDx=0;exitDy=0;exitPerimeter=0;fontSize=14;endArrow=oval;endFill=1;strokeWidth=2;jumpStyle=arc;" parent="1" source="B-g5OKu3k29l7cU8etRb-2" edge="1">
          <mxGeometry relative="1" as="geometry">
            <mxPoint x="330" y="170" as="targetPoint" />
            <Array as="points">
              <mxPoint x="465" y="340" />
              <mxPoint x="330" y="340" />
            </Array>
          </mxGeometry>
        </mxCell>
        <mxCell id="B-g5OKu3k29l7cU8etRb-8" value="RA7 / CLC2OUT" style="text;html=1;align=center;verticalAlign=middle;resizable=0;points=[];autosize=1;strokeColor=none;fillColor=none;fontStyle=1;fontSize=14;" parent="1" vertex="1">
          <mxGeometry x="585" y="163" width="120" height="20" as="geometry" />
        </mxCell>
        <mxCell id="B-g5OKu3k29l7cU8etRb-9" style="edgeStyle=orthogonalEdgeStyle;rounded=0;jumpStyle=arc;orthogonalLoop=1;jettySize=auto;html=1;exitX=1;exitY=0.3;exitDx=0;exitDy=0;exitPerimeter=0;fontSize=14;endArrow=none;endFill=0;strokeWidth=2;" parent="1" source="B-g5OKu3k29l7cU8etRb-10" target="B-g5OKu3k29l7cU8etRb-16" edge="1">
          <mxGeometry relative="1" as="geometry" />
        </mxCell>
        <mxCell id="B-g5OKu3k29l7cU8etRb-10" value="CLC3" style="verticalLabelPosition=top;shadow=0;dashed=0;align=center;html=1;verticalAlign=bottom;shape=mxgraph.electrical.logic_gates.d_type_rs_flip-flop;strokeWidth=2;fontStyle=1;labelPosition=center;" parent="1" vertex="1">
          <mxGeometry x="370" y="400" width="190" height="210" as="geometry" />
        </mxCell>
        <mxCell id="B-g5OKu3k29l7cU8etRb-11" style="edgeStyle=orthogonalEdgeStyle;rounded=0;orthogonalLoop=1;jettySize=auto;html=1;entryX=0;entryY=0.7;entryDx=0;entryDy=0;entryPerimeter=0;fontSize=14;endArrow=none;endFill=0;strokeWidth=2;" parent="1" source="B-g5OKu3k29l7cU8etRb-12" target="B-g5OKu3k29l7cU8etRb-10" edge="1">
          <mxGeometry relative="1" as="geometry" />
        </mxCell>
        <mxCell id="B-g5OKu3k29l7cU8etRb-12" value="RA1/CLK || rotA" style="text;html=1;align=center;verticalAlign=middle;resizable=0;points=[];autosize=1;strokeColor=none;fillColor=none;fontStyle=1;fontSize=14;" parent="1" vertex="1">
          <mxGeometry x="130" y="537" width="120" height="20" as="geometry" />
        </mxCell>
        <mxCell id="B-g5OKu3k29l7cU8etRb-13" style="edgeStyle=orthogonalEdgeStyle;rounded=0;orthogonalLoop=1;jettySize=auto;html=1;entryX=0;entryY=0.3;entryDx=0;entryDy=0;entryPerimeter=0;fontSize=14;strokeWidth=2;endArrow=none;endFill=0;" parent="1" source="B-g5OKu3k29l7cU8etRb-14" target="B-g5OKu3k29l7cU8etRb-10" edge="1">
          <mxGeometry relative="1" as="geometry" />
        </mxCell>
        <mxCell id="B-g5OKu3k29l7cU8etRb-14" value="RA2/DT || rotB" style="text;html=1;align=center;verticalAlign=middle;resizable=0;points=[];autosize=1;strokeColor=none;fillColor=none;fontStyle=1;fontSize=14;" parent="1" vertex="1">
          <mxGeometry x="140" y="453" width="110" height="20" as="geometry" />
        </mxCell>
        <mxCell id="B-g5OKu3k29l7cU8etRb-15" style="edgeStyle=orthogonalEdgeStyle;rounded=0;orthogonalLoop=1;jettySize=auto;html=1;exitX=0.5;exitY=1;exitDx=0;exitDy=0;exitPerimeter=0;fontSize=14;endArrow=oval;endFill=1;strokeWidth=2;jumpStyle=arc;" parent="1" source="B-g5OKu3k29l7cU8etRb-10" edge="1">
          <mxGeometry relative="1" as="geometry">
            <mxPoint x="330" y="460" as="targetPoint" />
            <Array as="points">
              <mxPoint x="465" y="630" />
              <mxPoint x="330" y="630" />
            </Array>
          </mxGeometry>
        </mxCell>
        <mxCell id="B-g5OKu3k29l7cU8etRb-16" value="RB0 / CLC3OUT" style="text;html=1;align=center;verticalAlign=middle;resizable=0;points=[];autosize=1;strokeColor=none;fillColor=none;fontStyle=1;fontSize=14;" parent="1" vertex="1">
          <mxGeometry x="585" y="453" width="120" height="20" as="geometry" />
        </mxCell>
      </root>
    </mxGraphModel>
  </diagram>
  <diagram id="FXscBJJbBAMDmPuRQ-5S" name="button_sm">
    <mxGraphModel dx="1434" dy="774" grid="0" gridSize="10" guides="1" tooltips="1" connect="1" arrows="1" fold="1" page="1" pageScale="1" pageWidth="1169" pageHeight="827" math="0" shadow="0">
      <root>
        <mxCell id="0" />
        <mxCell id="1" parent="0" />
        <mxCell id="M1j5nHwE4MFbPSNGTNRG-1" value="" style="rounded=0;whiteSpace=wrap;html=1;strokeWidth=3;dashed=1;fillColor=#fff2cc;strokeColor=#d6b656;" vertex="1" parent="1">
          <mxGeometry x="671" y="71.5" width="483" height="600.5" as="geometry" />
        </mxCell>
        <mxCell id="JYbGDjcSvytj4fvBMPeJ-1" value="&lt;span style=&quot;font-size: 16px;&quot;&gt;&lt;b&gt;Flowchart&lt;/b&gt;&lt;br&gt;&lt;i&gt;Assuming that code is a self-contained module that runs on its own&lt;/i&gt;&lt;br style=&quot;font-size: 16px;&quot;&gt;&lt;/span&gt;" style="text;html=1;strokeColor=none;fillColor=none;align=center;verticalAlign=middle;whiteSpace=wrap;rounded=0;fontSize=16;" parent="1" vertex="1">
          <mxGeometry x="108" y="56" width="190" height="30" as="geometry" />
        </mxCell>
        <mxCell id="JYbGDjcSvytj4fvBMPeJ-15" style="edgeStyle=orthogonalEdgeStyle;rounded=0;orthogonalLoop=1;jettySize=auto;html=1;exitX=0.5;exitY=1;exitDx=0;exitDy=0;exitPerimeter=0;entryX=0.5;entryY=0;entryDx=0;entryDy=0;entryPerimeter=0;fontSize=16;strokeWidth=3;" parent="1" source="JYbGDjcSvytj4fvBMPeJ-2" target="JYbGDjcSvytj4fvBMPeJ-5" edge="1">
          <mxGeometry relative="1" as="geometry" />
        </mxCell>
        <mxCell id="JYbGDjcSvytj4fvBMPeJ-2" value="Start" style="strokeWidth=2;html=1;shape=mxgraph.flowchart.start_2;whiteSpace=wrap;fontSize=16;" parent="1" vertex="1">
          <mxGeometry x="168" y="126" width="70" height="50" as="geometry" />
        </mxCell>
        <mxCell id="JYbGDjcSvytj4fvBMPeJ-16" style="edgeStyle=orthogonalEdgeStyle;rounded=0;orthogonalLoop=1;jettySize=auto;html=1;exitX=0.5;exitY=1;exitDx=0;exitDy=0;exitPerimeter=0;entryX=0.5;entryY=0;entryDx=0;entryDy=0;strokeWidth=3;fontSize=16;" parent="1" source="JYbGDjcSvytj4fvBMPeJ-5" target="JYbGDjcSvytj4fvBMPeJ-6" edge="1">
          <mxGeometry relative="1" as="geometry" />
        </mxCell>
        <mxCell id="JYbGDjcSvytj4fvBMPeJ-27" style="edgeStyle=orthogonalEdgeStyle;rounded=0;orthogonalLoop=1;jettySize=auto;html=1;exitX=1;exitY=0.5;exitDx=0;exitDy=0;exitPerimeter=0;strokeWidth=3;fontSize=16;" parent="1" source="JYbGDjcSvytj4fvBMPeJ-5" edge="1">
          <mxGeometry relative="1" as="geometry">
            <mxPoint x="228" y="186" as="targetPoint" />
            <Array as="points">
              <mxPoint x="277" y="241" />
              <mxPoint x="277" y="186" />
            </Array>
          </mxGeometry>
        </mxCell>
        <mxCell id="JYbGDjcSvytj4fvBMPeJ-5" value="button pressed?" style="strokeWidth=2;html=1;shape=mxgraph.flowchart.decision;whiteSpace=wrap;fontSize=16;" parent="1" vertex="1">
          <mxGeometry x="149.25" y="196" width="107.5" height="90" as="geometry" />
        </mxCell>
        <mxCell id="JYbGDjcSvytj4fvBMPeJ-17" style="edgeStyle=orthogonalEdgeStyle;rounded=0;orthogonalLoop=1;jettySize=auto;html=1;exitX=0.5;exitY=1;exitDx=0;exitDy=0;entryX=0.5;entryY=0;entryDx=0;entryDy=0;entryPerimeter=0;strokeWidth=3;fontSize=16;" parent="1" source="JYbGDjcSvytj4fvBMPeJ-6" target="JYbGDjcSvytj4fvBMPeJ-7" edge="1">
          <mxGeometry relative="1" as="geometry" />
        </mxCell>
        <mxCell id="JYbGDjcSvytj4fvBMPeJ-6" value="counter++" style="rounded=1;whiteSpace=wrap;html=1;absoluteArcSize=1;arcSize=14;strokeWidth=2;fontSize=16;" parent="1" vertex="1">
          <mxGeometry x="153" y="306" width="100" height="46" as="geometry" />
        </mxCell>
        <mxCell id="JYbGDjcSvytj4fvBMPeJ-18" style="edgeStyle=orthogonalEdgeStyle;rounded=0;orthogonalLoop=1;jettySize=auto;html=1;exitX=1;exitY=0.5;exitDx=0;exitDy=0;exitPerimeter=0;entryX=0;entryY=0.5;entryDx=0;entryDy=0;strokeWidth=3;fontSize=16;" parent="1" source="JYbGDjcSvytj4fvBMPeJ-7" target="JYbGDjcSvytj4fvBMPeJ-8" edge="1">
          <mxGeometry relative="1" as="geometry" />
        </mxCell>
        <mxCell id="JYbGDjcSvytj4fvBMPeJ-28" style="edgeStyle=orthogonalEdgeStyle;rounded=0;orthogonalLoop=1;jettySize=auto;html=1;exitX=0;exitY=0.5;exitDx=0;exitDy=0;exitPerimeter=0;entryX=0;entryY=0.5;entryDx=0;entryDy=0;entryPerimeter=0;strokeWidth=3;fontSize=16;" parent="1" source="JYbGDjcSvytj4fvBMPeJ-7" target="JYbGDjcSvytj4fvBMPeJ-5" edge="1">
          <mxGeometry relative="1" as="geometry">
            <Array as="points">
              <mxPoint x="108" y="426" />
              <mxPoint x="108" y="241" />
            </Array>
          </mxGeometry>
        </mxCell>
        <mxCell id="JYbGDjcSvytj4fvBMPeJ-7" value="counter &amp;gt;= limit?" style="strokeWidth=2;html=1;shape=mxgraph.flowchart.decision;whiteSpace=wrap;fontSize=16;" parent="1" vertex="1">
          <mxGeometry x="149.25" y="377" width="107.5" height="99" as="geometry" />
        </mxCell>
        <mxCell id="JYbGDjcSvytj4fvBMPeJ-19" style="edgeStyle=orthogonalEdgeStyle;rounded=0;orthogonalLoop=1;jettySize=auto;html=1;exitX=0.5;exitY=1;exitDx=0;exitDy=0;entryX=0.5;entryY=0;entryDx=0;entryDy=0;strokeWidth=3;fontSize=16;" parent="1" source="JYbGDjcSvytj4fvBMPeJ-8" target="JYbGDjcSvytj4fvBMPeJ-9" edge="1">
          <mxGeometry relative="1" as="geometry" />
        </mxCell>
        <mxCell id="JYbGDjcSvytj4fvBMPeJ-8" value="button is pressed" style="rounded=1;whiteSpace=wrap;html=1;absoluteArcSize=1;arcSize=14;strokeWidth=2;fontSize=16;" parent="1" vertex="1">
          <mxGeometry x="345.5" y="226" width="100" height="46" as="geometry" />
        </mxCell>
        <mxCell id="JYbGDjcSvytj4fvBMPeJ-20" style="edgeStyle=orthogonalEdgeStyle;rounded=0;orthogonalLoop=1;jettySize=auto;html=1;exitX=0.5;exitY=1;exitDx=0;exitDy=0;entryX=0.5;entryY=0;entryDx=0;entryDy=0;entryPerimeter=0;strokeWidth=3;fontSize=16;" parent="1" source="JYbGDjcSvytj4fvBMPeJ-9" target="JYbGDjcSvytj4fvBMPeJ-10" edge="1">
          <mxGeometry relative="1" as="geometry" />
        </mxCell>
        <mxCell id="JYbGDjcSvytj4fvBMPeJ-9" value="presscount++" style="rounded=1;whiteSpace=wrap;html=1;absoluteArcSize=1;arcSize=14;strokeWidth=2;fontSize=16;" parent="1" vertex="1">
          <mxGeometry x="345.5" y="296" width="100" height="46" as="geometry" />
        </mxCell>
        <mxCell id="JYbGDjcSvytj4fvBMPeJ-22" style="edgeStyle=orthogonalEdgeStyle;rounded=0;orthogonalLoop=1;jettySize=auto;html=1;exitX=1;exitY=0.5;exitDx=0;exitDy=0;exitPerimeter=0;entryX=0;entryY=0.5;entryDx=0;entryDy=0;strokeWidth=3;fontSize=16;" parent="1" source="JYbGDjcSvytj4fvBMPeJ-10" target="JYbGDjcSvytj4fvBMPeJ-12" edge="1">
          <mxGeometry relative="1" as="geometry" />
        </mxCell>
        <mxCell id="QdNmXt8nhnXr5sKHDVsm-7" style="edgeStyle=orthogonalEdgeStyle;curved=1;rounded=0;orthogonalLoop=1;jettySize=auto;html=1;exitX=0.5;exitY=1;exitDx=0;exitDy=0;exitPerimeter=0;entryX=0.5;entryY=0;entryDx=0;entryDy=0;entryPerimeter=0;strokeColor=#FF0000;strokeWidth=3;fontColor=#FF0000;" parent="1" source="JYbGDjcSvytj4fvBMPeJ-10" target="QdNmXt8nhnXr5sKHDVsm-6" edge="1">
          <mxGeometry relative="1" as="geometry" />
        </mxCell>
        <mxCell id="JYbGDjcSvytj4fvBMPeJ-10" value="button still pressed?" style="strokeWidth=2;html=1;shape=mxgraph.flowchart.decision;whiteSpace=wrap;fontSize=16;" parent="1" vertex="1">
          <mxGeometry x="341.75" y="366" width="107.5" height="99" as="geometry" />
        </mxCell>
        <mxCell id="QdNmXt8nhnXr5sKHDVsm-12" style="edgeStyle=orthogonalEdgeStyle;rounded=0;jumpStyle=arc;orthogonalLoop=1;jettySize=auto;html=1;exitX=0;exitY=0.5;exitDx=0;exitDy=0;strokeColor=#FF0000;strokeWidth=3;fontColor=#FF0000;" parent="1" source="JYbGDjcSvytj4fvBMPeJ-11" edge="1">
          <mxGeometry relative="1" as="geometry">
            <mxPoint x="322.3333740234375" y="535.3333079020183" as="targetPoint" />
          </mxGeometry>
        </mxCell>
        <mxCell id="JYbGDjcSvytj4fvBMPeJ-11" value="button is held" style="rounded=1;whiteSpace=wrap;html=1;absoluteArcSize=1;arcSize=14;strokeWidth=2;fontSize=16;" parent="1" vertex="1">
          <mxGeometry x="345.5" y="646" width="100" height="46" as="geometry" />
        </mxCell>
        <mxCell id="JYbGDjcSvytj4fvBMPeJ-23" style="edgeStyle=orthogonalEdgeStyle;rounded=0;orthogonalLoop=1;jettySize=auto;html=1;exitX=0.5;exitY=1;exitDx=0;exitDy=0;entryX=0.5;entryY=0;entryDx=0;entryDy=0;entryPerimeter=0;strokeWidth=3;fontSize=16;" parent="1" source="JYbGDjcSvytj4fvBMPeJ-12" target="JYbGDjcSvytj4fvBMPeJ-13" edge="1">
          <mxGeometry relative="1" as="geometry" />
        </mxCell>
        <mxCell id="JYbGDjcSvytj4fvBMPeJ-12" value="counter++" style="rounded=1;whiteSpace=wrap;html=1;absoluteArcSize=1;arcSize=14;strokeWidth=2;fontSize=16;" parent="1" vertex="1">
          <mxGeometry x="498" y="392.5" width="100" height="46" as="geometry" />
        </mxCell>
        <mxCell id="JYbGDjcSvytj4fvBMPeJ-24" style="edgeStyle=orthogonalEdgeStyle;rounded=0;orthogonalLoop=1;jettySize=auto;html=1;exitX=0.5;exitY=1;exitDx=0;exitDy=0;exitPerimeter=0;entryX=0.5;entryY=0;entryDx=0;entryDy=0;strokeWidth=3;fontSize=16;" parent="1" source="JYbGDjcSvytj4fvBMPeJ-13" target="JYbGDjcSvytj4fvBMPeJ-14" edge="1">
          <mxGeometry relative="1" as="geometry" />
        </mxCell>
        <mxCell id="JYbGDjcSvytj4fvBMPeJ-37" style="edgeStyle=orthogonalEdgeStyle;rounded=0;orthogonalLoop=1;jettySize=auto;html=1;exitX=1;exitY=0.5;exitDx=0;exitDy=0;exitPerimeter=0;strokeWidth=3;fontSize=16;" parent="1" source="JYbGDjcSvytj4fvBMPeJ-13" edge="1">
          <mxGeometry relative="1" as="geometry">
            <mxPoint x="398" y="356" as="targetPoint" />
            <Array as="points">
              <mxPoint x="648" y="509" />
              <mxPoint x="648" y="356" />
            </Array>
          </mxGeometry>
        </mxCell>
        <mxCell id="JYbGDjcSvytj4fvBMPeJ-13" value="counter &amp;gt;= limit?" style="strokeWidth=2;html=1;shape=mxgraph.flowchart.decision;whiteSpace=wrap;fontSize=16;" parent="1" vertex="1">
          <mxGeometry x="494.25" y="459.5" width="107.5" height="99" as="geometry" />
        </mxCell>
        <mxCell id="JYbGDjcSvytj4fvBMPeJ-40" style="edgeStyle=orthogonalEdgeStyle;rounded=0;orthogonalLoop=1;jettySize=auto;html=1;exitX=0;exitY=0.5;exitDx=0;exitDy=0;strokeWidth=3;fontSize=16;jumpStyle=arc;" parent="1" source="JYbGDjcSvytj4fvBMPeJ-14" edge="1">
          <mxGeometry relative="1" as="geometry">
            <mxPoint x="178" y="186" as="targetPoint" />
            <Array as="points">
              <mxPoint x="68" y="609" />
              <mxPoint x="68" y="186" />
            </Array>
          </mxGeometry>
        </mxCell>
        <mxCell id="JYbGDjcSvytj4fvBMPeJ-14" value="button is not pressed" style="rounded=1;whiteSpace=wrap;html=1;absoluteArcSize=1;arcSize=14;strokeWidth=2;fontSize=16;" parent="1" vertex="1">
          <mxGeometry x="498" y="586" width="100" height="46" as="geometry" />
        </mxCell>
        <mxCell id="JYbGDjcSvytj4fvBMPeJ-29" value="Y" style="text;html=1;align=center;verticalAlign=middle;resizable=0;points=[];autosize=1;strokeColor=none;fillColor=none;fontSize=16;" parent="1" vertex="1">
          <mxGeometry x="208" y="266" width="30" height="30" as="geometry" />
        </mxCell>
        <mxCell id="JYbGDjcSvytj4fvBMPeJ-31" value="N" style="text;html=1;align=center;verticalAlign=middle;resizable=0;points=[];autosize=1;strokeColor=none;fillColor=none;fontSize=16;" parent="1" vertex="1">
          <mxGeometry x="238" y="216" width="40" height="30" as="geometry" />
        </mxCell>
        <mxCell id="JYbGDjcSvytj4fvBMPeJ-32" value="N" style="text;html=1;align=center;verticalAlign=middle;resizable=0;points=[];autosize=1;strokeColor=none;fillColor=none;fontSize=16;" parent="1" vertex="1">
          <mxGeometry x="128" y="400.5" width="40" height="30" as="geometry" />
        </mxCell>
        <mxCell id="JYbGDjcSvytj4fvBMPeJ-33" value="Y" style="text;html=1;align=center;verticalAlign=middle;resizable=0;points=[];autosize=1;strokeColor=none;fillColor=none;fontSize=16;" parent="1" vertex="1">
          <mxGeometry x="248" y="400.5" width="30" height="30" as="geometry" />
        </mxCell>
        <mxCell id="JYbGDjcSvytj4fvBMPeJ-34" value="Y" style="text;html=1;align=center;verticalAlign=middle;resizable=0;points=[];autosize=1;strokeColor=none;fillColor=none;fontSize=16;" parent="1" vertex="1">
          <mxGeometry x="365" y="456" width="30" height="30" as="geometry" />
        </mxCell>
        <mxCell id="JYbGDjcSvytj4fvBMPeJ-36" value="N" style="text;html=1;align=center;verticalAlign=middle;resizable=0;points=[];autosize=1;strokeColor=none;fillColor=none;fontSize=16;" parent="1" vertex="1">
          <mxGeometry x="428" y="386" width="40" height="30" as="geometry" />
        </mxCell>
        <mxCell id="JYbGDjcSvytj4fvBMPeJ-38" value="N" style="text;html=1;align=center;verticalAlign=middle;resizable=0;points=[];autosize=1;strokeColor=none;fillColor=none;fontSize=16;" parent="1" vertex="1">
          <mxGeometry x="578" y="476" width="40" height="30" as="geometry" />
        </mxCell>
        <mxCell id="JYbGDjcSvytj4fvBMPeJ-39" value="Y" style="text;html=1;align=center;verticalAlign=middle;resizable=0;points=[];autosize=1;strokeColor=none;fillColor=none;fontSize=16;" parent="1" vertex="1">
          <mxGeometry x="518" y="546" width="30" height="30" as="geometry" />
        </mxCell>
        <mxCell id="JYbGDjcSvytj4fvBMPeJ-41" value="&lt;span style=&quot;font-size: 16px;&quot;&gt;&lt;b&gt;State Machine&lt;/b&gt;&lt;br style=&quot;font-size: 16px;&quot;&gt;&lt;/span&gt;" style="text;html=1;strokeColor=none;fillColor=none;align=center;verticalAlign=middle;whiteSpace=wrap;rounded=0;fontSize=16;" parent="1" vertex="1">
          <mxGeometry x="811" y="91" width="190" height="30" as="geometry" />
        </mxCell>
        <mxCell id="JYbGDjcSvytj4fvBMPeJ-48" style="edgeStyle=orthogonalEdgeStyle;rounded=0;orthogonalLoop=1;jettySize=auto;html=1;exitX=1;exitY=0.5;exitDx=0;exitDy=0;entryX=0.5;entryY=0;entryDx=0;entryDy=0;strokeWidth=3;fontSize=16;curved=1;" parent="1" source="JYbGDjcSvytj4fvBMPeJ-42" target="JYbGDjcSvytj4fvBMPeJ-44" edge="1">
          <mxGeometry relative="1" as="geometry">
            <Array as="points">
              <mxPoint x="781" y="151" />
              <mxPoint x="931" y="151" />
            </Array>
          </mxGeometry>
        </mxCell>
        <mxCell id="JYbGDjcSvytj4fvBMPeJ-42" value="INIT" style="ellipse;whiteSpace=wrap;html=1;aspect=fixed;fontSize=16;strokeWidth=3;" parent="1" vertex="1">
          <mxGeometry x="681" y="111" width="80" height="80" as="geometry" />
        </mxCell>
        <mxCell id="JYbGDjcSvytj4fvBMPeJ-51" style="edgeStyle=orthogonalEdgeStyle;curved=1;rounded=0;orthogonalLoop=1;jettySize=auto;html=1;exitX=0.75;exitY=1;exitDx=0;exitDy=0;entryX=0.75;entryY=0;entryDx=0;entryDy=0;strokeWidth=3;fontSize=16;" parent="1" source="JYbGDjcSvytj4fvBMPeJ-44" target="JYbGDjcSvytj4fvBMPeJ-45" edge="1">
          <mxGeometry relative="1" as="geometry" />
        </mxCell>
        <mxCell id="JYbGDjcSvytj4fvBMPeJ-44" value="BTN_WAIT_PRESS" style="rounded=1;whiteSpace=wrap;html=1;strokeWidth=3;fontSize=16;" parent="1" vertex="1">
          <mxGeometry x="851" y="191" width="160" height="60" as="geometry" />
        </mxCell>
        <mxCell id="JYbGDjcSvytj4fvBMPeJ-52" style="edgeStyle=orthogonalEdgeStyle;curved=1;rounded=0;orthogonalLoop=1;jettySize=auto;html=1;exitX=0.25;exitY=0;exitDx=0;exitDy=0;entryX=0.25;entryY=1;entryDx=0;entryDy=0;strokeWidth=3;fontSize=16;" parent="1" source="JYbGDjcSvytj4fvBMPeJ-45" target="JYbGDjcSvytj4fvBMPeJ-44" edge="1">
          <mxGeometry relative="1" as="geometry" />
        </mxCell>
        <mxCell id="JYbGDjcSvytj4fvBMPeJ-55" style="edgeStyle=orthogonalEdgeStyle;curved=1;rounded=0;orthogonalLoop=1;jettySize=auto;html=1;exitX=0.75;exitY=1;exitDx=0;exitDy=0;entryX=0.75;entryY=0;entryDx=0;entryDy=0;strokeWidth=3;fontSize=16;" parent="1" source="JYbGDjcSvytj4fvBMPeJ-45" target="JYbGDjcSvytj4fvBMPeJ-46" edge="1">
          <mxGeometry relative="1" as="geometry" />
        </mxCell>
        <mxCell id="JYbGDjcSvytj4fvBMPeJ-45" value="BTN_DEBOUNCE" style="rounded=1;whiteSpace=wrap;html=1;strokeWidth=3;fontSize=16;" parent="1" vertex="1">
          <mxGeometry x="851" y="291" width="160" height="60" as="geometry" />
        </mxCell>
        <mxCell id="JYbGDjcSvytj4fvBMPeJ-54" style="edgeStyle=orthogonalEdgeStyle;curved=1;rounded=0;orthogonalLoop=1;jettySize=auto;html=1;exitX=0.25;exitY=0;exitDx=0;exitDy=0;entryX=0.25;entryY=1;entryDx=0;entryDy=0;strokeWidth=3;fontSize=16;" parent="1" source="JYbGDjcSvytj4fvBMPeJ-46" target="JYbGDjcSvytj4fvBMPeJ-45" edge="1">
          <mxGeometry relative="1" as="geometry" />
        </mxCell>
        <mxCell id="QdNmXt8nhnXr5sKHDVsm-4" style="edgeStyle=orthogonalEdgeStyle;curved=1;rounded=0;orthogonalLoop=1;jettySize=auto;html=1;exitX=0.75;exitY=1;exitDx=0;exitDy=0;entryX=0.25;entryY=0;entryDx=0;entryDy=0;strokeWidth=3;strokeColor=#FF0000;" parent="1" source="JYbGDjcSvytj4fvBMPeJ-46" target="JYbGDjcSvytj4fvBMPeJ-47" edge="1">
          <mxGeometry relative="1" as="geometry" />
        </mxCell>
        <mxCell id="JYbGDjcSvytj4fvBMPeJ-46" value="BTN_PRESSED" style="rounded=1;whiteSpace=wrap;html=1;strokeWidth=3;fontSize=16;" parent="1" vertex="1">
          <mxGeometry x="851" y="401" width="160" height="60" as="geometry" />
        </mxCell>
        <mxCell id="JYbGDjcSvytj4fvBMPeJ-60" style="edgeStyle=orthogonalEdgeStyle;curved=1;rounded=0;orthogonalLoop=1;jettySize=auto;html=1;exitX=1;exitY=0.5;exitDx=0;exitDy=0;entryX=1;entryY=0.5;entryDx=0;entryDy=0;strokeWidth=3;fontSize=16;" parent="1" source="JYbGDjcSvytj4fvBMPeJ-47" target="JYbGDjcSvytj4fvBMPeJ-45" edge="1">
          <mxGeometry relative="1" as="geometry">
            <Array as="points">
              <mxPoint x="1061" y="609" />
              <mxPoint x="1061" y="321" />
            </Array>
          </mxGeometry>
        </mxCell>
        <mxCell id="JYbGDjcSvytj4fvBMPeJ-47" value="BTN_HELD" style="rounded=1;whiteSpace=wrap;html=1;strokeWidth=3;fontSize=16;" parent="1" vertex="1">
          <mxGeometry x="851" y="579" width="160" height="60" as="geometry" />
        </mxCell>
        <mxCell id="JYbGDjcSvytj4fvBMPeJ-50" style="edgeStyle=orthogonalEdgeStyle;curved=1;rounded=0;orthogonalLoop=1;jettySize=auto;html=1;exitX=0;exitY=0.75;exitDx=0;exitDy=0;entryX=0;entryY=0.25;entryDx=0;entryDy=0;strokeWidth=3;fontSize=16;" parent="1" source="JYbGDjcSvytj4fvBMPeJ-44" target="JYbGDjcSvytj4fvBMPeJ-44" edge="1">
          <mxGeometry relative="1" as="geometry">
            <Array as="points">
              <mxPoint x="811" y="236" />
              <mxPoint x="811" y="206" />
            </Array>
          </mxGeometry>
        </mxCell>
        <mxCell id="JYbGDjcSvytj4fvBMPeJ-53" style="edgeStyle=orthogonalEdgeStyle;curved=1;rounded=0;orthogonalLoop=1;jettySize=auto;html=1;exitX=0;exitY=0.75;exitDx=0;exitDy=0;entryX=0;entryY=0.25;entryDx=0;entryDy=0;strokeWidth=3;fontSize=16;" parent="1" source="JYbGDjcSvytj4fvBMPeJ-45" target="JYbGDjcSvytj4fvBMPeJ-45" edge="1">
          <mxGeometry relative="1" as="geometry">
            <Array as="points">
              <mxPoint x="811" y="336" />
              <mxPoint x="811" y="306" />
            </Array>
          </mxGeometry>
        </mxCell>
        <mxCell id="JYbGDjcSvytj4fvBMPeJ-59" style="edgeStyle=orthogonalEdgeStyle;curved=1;rounded=0;orthogonalLoop=1;jettySize=auto;html=1;exitX=0;exitY=0.75;exitDx=0;exitDy=0;entryX=0;entryY=0.25;entryDx=0;entryDy=0;strokeWidth=3;fontSize=16;" parent="1" source="JYbGDjcSvytj4fvBMPeJ-47" target="JYbGDjcSvytj4fvBMPeJ-47" edge="1">
          <mxGeometry relative="1" as="geometry">
            <Array as="points">
              <mxPoint x="851" y="633" />
              <mxPoint x="799" y="633" />
              <mxPoint x="799" y="595" />
              <mxPoint x="851" y="595" />
            </Array>
          </mxGeometry>
        </mxCell>
        <mxCell id="JYbGDjcSvytj4fvBMPeJ-61" value="button not&lt;br&gt;pressed" style="text;html=1;align=center;verticalAlign=middle;resizable=0;points=[];autosize=1;strokeColor=none;fillColor=none;fontSize=16;" parent="1" vertex="1">
          <mxGeometry x="711" y="196" width="90" height="50" as="geometry" />
        </mxCell>
        <mxCell id="JYbGDjcSvytj4fvBMPeJ-62" value="button pressed" style="text;html=1;align=center;verticalAlign=middle;resizable=0;points=[];autosize=1;strokeColor=none;fillColor=none;fontSize=16;" parent="1" vertex="1">
          <mxGeometry x="971" y="251" width="130" height="30" as="geometry" />
        </mxCell>
        <mxCell id="JYbGDjcSvytj4fvBMPeJ-63" value="button not pressed" style="text;html=1;align=center;verticalAlign=middle;resizable=0;points=[];autosize=1;strokeColor=none;fillColor=none;fontSize=16;" parent="1" vertex="1">
          <mxGeometry x="726" y="256" width="160" height="30" as="geometry" />
        </mxCell>
        <mxCell id="JYbGDjcSvytj4fvBMPeJ-64" value="counter &amp;lt;= limit" style="text;html=1;align=center;verticalAlign=middle;resizable=0;points=[];autosize=1;strokeColor=none;fillColor=none;fontSize=16;" parent="1" vertex="1">
          <mxGeometry x="681" y="306" width="130" height="30" as="geometry" />
        </mxCell>
        <mxCell id="JYbGDjcSvytj4fvBMPeJ-65" value="button&lt;br&gt;pressed" style="text;html=1;align=center;verticalAlign=middle;resizable=0;points=[];autosize=1;strokeColor=none;fillColor=none;fontSize=16;" parent="1" vertex="1">
          <mxGeometry x="963" y="346" width="80" height="50" as="geometry" />
        </mxCell>
        <mxCell id="JYbGDjcSvytj4fvBMPeJ-67" value="button&lt;br&gt;pressed" style="text;html=1;align=center;verticalAlign=middle;resizable=0;points=[];autosize=1;strokeColor=none;fillColor=none;fontSize=16;" parent="1" vertex="1">
          <mxGeometry x="721" y="586" width="80" height="50" as="geometry" />
        </mxCell>
        <mxCell id="JYbGDjcSvytj4fvBMPeJ-68" value="button&lt;br&gt;not &lt;br&gt;pressed" style="text;html=1;align=center;verticalAlign=middle;resizable=0;points=[];autosize=1;strokeColor=none;fillColor=none;fontSize=16;" parent="1" vertex="1">
          <mxGeometry x="1060" y="396" width="80" height="70" as="geometry" />
        </mxCell>
        <mxCell id="JYbGDjcSvytj4fvBMPeJ-69" value="button not&lt;br&gt;pressed" style="text;html=1;align=center;verticalAlign=middle;resizable=0;points=[];autosize=1;strokeColor=none;fillColor=none;fontSize=16;" parent="1" vertex="1">
          <mxGeometry x="796" y="351" width="90" height="50" as="geometry" />
        </mxCell>
        <mxCell id="QdNmXt8nhnXr5sKHDVsm-2" value="btn pressed&lt;br&gt;AND&lt;br&gt;counter &amp;lt;= limit" style="text;html=1;align=center;verticalAlign=middle;resizable=0;points=[];autosize=1;strokeColor=none;fillColor=none;fontSize=16;fontColor=#FF0000;" parent="1" vertex="1">
          <mxGeometry x="716" y="459.5" width="127" height="70" as="geometry" />
        </mxCell>
        <mxCell id="QdNmXt8nhnXr5sKHDVsm-3" style="edgeStyle=orthogonalEdgeStyle;curved=1;rounded=0;orthogonalLoop=1;jettySize=auto;html=1;exitX=0.5;exitY=1;exitDx=0;exitDy=0;entryX=0;entryY=0.75;entryDx=0;entryDy=0;strokeWidth=3;fontColor=#FF0000;strokeColor=#FF0000;" parent="1" source="JYbGDjcSvytj4fvBMPeJ-46" target="JYbGDjcSvytj4fvBMPeJ-46" edge="1">
          <mxGeometry relative="1" as="geometry">
            <Array as="points">
              <mxPoint x="931" y="495" />
              <mxPoint x="831" y="495" />
              <mxPoint x="831" y="446" />
            </Array>
          </mxGeometry>
        </mxCell>
        <mxCell id="QdNmXt8nhnXr5sKHDVsm-5" value="btn pressed&lt;br&gt;AND&lt;br&gt;counter &amp;gt; limit" style="text;html=1;align=center;verticalAlign=middle;resizable=0;points=[];autosize=1;strokeColor=none;fillColor=none;fontSize=16;fontColor=#FF0000;" parent="1" vertex="1">
          <mxGeometry x="912" y="512" width="118" height="70" as="geometry" />
        </mxCell>
        <mxCell id="QdNmXt8nhnXr5sKHDVsm-8" style="edgeStyle=orthogonalEdgeStyle;curved=1;rounded=0;orthogonalLoop=1;jettySize=auto;html=1;exitX=0.5;exitY=1;exitDx=0;exitDy=0;exitPerimeter=0;entryX=0.5;entryY=0;entryDx=0;entryDy=0;strokeColor=#FF0000;strokeWidth=3;fontColor=#FF0000;" parent="1" source="QdNmXt8nhnXr5sKHDVsm-6" target="JYbGDjcSvytj4fvBMPeJ-11" edge="1">
          <mxGeometry relative="1" as="geometry" />
        </mxCell>
        <mxCell id="QdNmXt8nhnXr5sKHDVsm-11" style="edgeStyle=orthogonalEdgeStyle;rounded=0;jumpStyle=arc;orthogonalLoop=1;jettySize=auto;html=1;exitX=0;exitY=0.5;exitDx=0;exitDy=0;exitPerimeter=0;entryX=0;entryY=0.5;entryDx=0;entryDy=0;entryPerimeter=0;strokeColor=#FF0000;strokeWidth=3;fontColor=#FF0000;" parent="1" source="QdNmXt8nhnXr5sKHDVsm-6" target="JYbGDjcSvytj4fvBMPeJ-10" edge="1">
          <mxGeometry relative="1" as="geometry" />
        </mxCell>
        <mxCell id="QdNmXt8nhnXr5sKHDVsm-6" value="counter &amp;gt; limit?" style="strokeWidth=2;html=1;shape=mxgraph.flowchart.decision;whiteSpace=wrap;fontSize=16;" parent="1" vertex="1">
          <mxGeometry x="341.75" y="500" width="107.5" height="66.5" as="geometry" />
        </mxCell>
        <mxCell id="QdNmXt8nhnXr5sKHDVsm-9" value="Y" style="text;html=1;align=center;verticalAlign=middle;resizable=0;points=[];autosize=1;strokeColor=none;fillColor=none;fontSize=16;" parent="1" vertex="1">
          <mxGeometry x="367" y="558.5" width="30" height="30" as="geometry" />
        </mxCell>
        <mxCell id="QdNmXt8nhnXr5sKHDVsm-10" value="N" style="text;html=1;align=center;verticalAlign=middle;resizable=0;points=[];autosize=1;strokeColor=none;fillColor=none;fontSize=16;" parent="1" vertex="1">
          <mxGeometry x="329" y="506" width="30" height="31" as="geometry" />
        </mxCell>
      </root>
    </mxGraphModel>
  </diagram>
  <diagram name="oled_sm" id="7cicNBCjoWia4MM6Rt6Q">
    <mxGraphModel dx="1687" dy="911" grid="0" gridSize="10" guides="1" tooltips="1" connect="1" arrows="1" fold="1" page="1" pageScale="1" pageWidth="1169" pageHeight="827" math="0" shadow="0">
      <root>
        <mxCell id="EVUiXvpgTrYDO9BWVGgy-0" />
        <mxCell id="EVUiXvpgTrYDO9BWVGgy-1" parent="EVUiXvpgTrYDO9BWVGgy-0" />
        <mxCell id="OUoZBvlqKyzsMe28DwqA-1" style="edgeStyle=orthogonalEdgeStyle;rounded=0;orthogonalLoop=1;jettySize=auto;html=1;exitX=1;exitY=0.5;exitDx=0;exitDy=0;entryX=0;entryY=0.5;entryDx=0;entryDy=0;curved=1;strokeWidth=3;" parent="EVUiXvpgTrYDO9BWVGgy-1" source="EVUiXvpgTrYDO9BWVGgy-39" target="EVUiXvpgTrYDO9BWVGgy-41" edge="1">
          <mxGeometry relative="1" as="geometry" />
        </mxCell>
        <mxCell id="EVUiXvpgTrYDO9BWVGgy-39" value="OLED_INIT" style="ellipse;whiteSpace=wrap;html=1;aspect=fixed;fontSize=16;strokeWidth=3;" parent="EVUiXvpgTrYDO9BWVGgy-1" vertex="1">
          <mxGeometry x="158" y="223.5" width="97" height="97" as="geometry" />
        </mxCell>
        <mxCell id="OUoZBvlqKyzsMe28DwqA-4" style="edgeStyle=orthogonalEdgeStyle;curved=1;rounded=0;orthogonalLoop=1;jettySize=auto;html=1;exitX=1;exitY=0.5;exitDx=0;exitDy=0;entryX=0;entryY=0.5;entryDx=0;entryDy=0;strokeWidth=3;" parent="EVUiXvpgTrYDO9BWVGgy-1" source="EVUiXvpgTrYDO9BWVGgy-41" target="EVUiXvpgTrYDO9BWVGgy-44" edge="1">
          <mxGeometry relative="1" as="geometry" />
        </mxCell>
        <mxCell id="EVUiXvpgTrYDO9BWVGgy-41" value="OLED_WAIT_FOR_OP" style="rounded=1;whiteSpace=wrap;html=1;strokeWidth=3;fontSize=16;glass=0;sketch=0;shadow=0;" parent="EVUiXvpgTrYDO9BWVGgy-1" vertex="1">
          <mxGeometry x="357" y="242" width="185" height="60" as="geometry" />
        </mxCell>
        <mxCell id="OUoZBvlqKyzsMe28DwqA-6" style="edgeStyle=orthogonalEdgeStyle;curved=1;rounded=0;orthogonalLoop=1;jettySize=auto;html=1;exitX=0.5;exitY=1;exitDx=0;exitDy=0;entryX=0.5;entryY=0;entryDx=0;entryDy=0;strokeWidth=3;" parent="EVUiXvpgTrYDO9BWVGgy-1" source="EVUiXvpgTrYDO9BWVGgy-44" target="EVUiXvpgTrYDO9BWVGgy-47" edge="1">
          <mxGeometry relative="1" as="geometry" />
        </mxCell>
        <mxCell id="EVUiXvpgTrYDO9BWVGgy-44" value="OLED_START_OP" style="rounded=1;whiteSpace=wrap;html=1;strokeWidth=3;fontSize=16;" parent="EVUiXvpgTrYDO9BWVGgy-1" vertex="1">
          <mxGeometry x="701" y="242" width="160" height="60" as="geometry" />
        </mxCell>
        <mxCell id="OUoZBvlqKyzsMe28DwqA-9" style="edgeStyle=orthogonalEdgeStyle;curved=1;rounded=0;orthogonalLoop=1;jettySize=auto;html=1;exitX=0;exitY=0.5;exitDx=0;exitDy=0;entryX=1;entryY=0.5;entryDx=0;entryDy=0;strokeWidth=3;" parent="EVUiXvpgTrYDO9BWVGgy-1" source="EVUiXvpgTrYDO9BWVGgy-47" target="EVUiXvpgTrYDO9BWVGgy-49" edge="1">
          <mxGeometry relative="1" as="geometry" />
        </mxCell>
        <mxCell id="EVUiXvpgTrYDO9BWVGgy-47" value="OLED_CHECK_OP_STAT" style="rounded=1;whiteSpace=wrap;html=1;strokeWidth=3;fontSize=16;" parent="EVUiXvpgTrYDO9BWVGgy-1" vertex="1">
          <mxGeometry x="662.5" y="409" width="237" height="60" as="geometry" />
        </mxCell>
        <mxCell id="OUoZBvlqKyzsMe28DwqA-11" style="edgeStyle=orthogonalEdgeStyle;curved=1;rounded=0;orthogonalLoop=1;jettySize=auto;html=1;exitX=0.5;exitY=0;exitDx=0;exitDy=0;strokeWidth=3;" parent="EVUiXvpgTrYDO9BWVGgy-1" source="EVUiXvpgTrYDO9BWVGgy-49" target="EVUiXvpgTrYDO9BWVGgy-41" edge="1">
          <mxGeometry relative="1" as="geometry" />
        </mxCell>
        <mxCell id="9ZQs2PDsZJtnaHFbOT1S-1" style="rounded=0;orthogonalLoop=1;jettySize=auto;html=1;exitX=1;exitY=0;exitDx=0;exitDy=0;entryX=0;entryY=1;entryDx=0;entryDy=0;fontColor=#CC0000;strokeWidth=3;strokeColor=#CC0000;" parent="EVUiXvpgTrYDO9BWVGgy-1" source="EVUiXvpgTrYDO9BWVGgy-49" target="EVUiXvpgTrYDO9BWVGgy-44" edge="1">
          <mxGeometry relative="1" as="geometry" />
        </mxCell>
        <mxCell id="EVUiXvpgTrYDO9BWVGgy-49" value="OLED_WRAP_UP_OP" style="rounded=1;whiteSpace=wrap;html=1;strokeWidth=3;fontSize=16;" parent="EVUiXvpgTrYDO9BWVGgy-1" vertex="1">
          <mxGeometry x="355" y="409" width="189" height="60" as="geometry" />
        </mxCell>
        <mxCell id="OUoZBvlqKyzsMe28DwqA-2" style="edgeStyle=orthogonalEdgeStyle;curved=1;rounded=0;orthogonalLoop=1;jettySize=auto;html=1;exitX=0.25;exitY=0;exitDx=0;exitDy=0;entryX=0.75;entryY=0;entryDx=0;entryDy=0;strokeWidth=3;" parent="EVUiXvpgTrYDO9BWVGgy-1" source="EVUiXvpgTrYDO9BWVGgy-41" target="EVUiXvpgTrYDO9BWVGgy-41" edge="1">
          <mxGeometry relative="1" as="geometry">
            <Array as="points">
              <mxPoint x="403" y="222" />
              <mxPoint x="403" y="155" />
              <mxPoint x="496" y="155" />
            </Array>
          </mxGeometry>
        </mxCell>
        <mxCell id="OUoZBvlqKyzsMe28DwqA-3" value="ring buffer empty" style="text;html=1;align=center;verticalAlign=middle;resizable=0;points=[];autosize=1;strokeColor=none;fillColor=none;fontStyle=1" parent="EVUiXvpgTrYDO9BWVGgy-1" vertex="1">
          <mxGeometry x="391" y="112" width="117" height="26" as="geometry" />
        </mxCell>
        <mxCell id="OUoZBvlqKyzsMe28DwqA-5" value="ring buffer not empty" style="text;html=1;align=center;verticalAlign=middle;resizable=0;points=[];autosize=1;strokeColor=none;fillColor=none;fontStyle=1" parent="EVUiXvpgTrYDO9BWVGgy-1" vertex="1">
          <mxGeometry x="546" y="237" width="139" height="26" as="geometry" />
        </mxCell>
        <mxCell id="OUoZBvlqKyzsMe28DwqA-7" style="edgeStyle=orthogonalEdgeStyle;curved=1;rounded=0;orthogonalLoop=1;jettySize=auto;html=1;exitX=0.75;exitY=1;exitDx=0;exitDy=0;entryX=0.25;entryY=1;entryDx=0;entryDy=0;strokeWidth=3;" parent="EVUiXvpgTrYDO9BWVGgy-1" source="EVUiXvpgTrYDO9BWVGgy-47" target="EVUiXvpgTrYDO9BWVGgy-47" edge="1">
          <mxGeometry relative="1" as="geometry">
            <Array as="points">
              <mxPoint x="840" y="542" />
              <mxPoint x="722" y="542" />
            </Array>
          </mxGeometry>
        </mxCell>
        <mxCell id="OUoZBvlqKyzsMe28DwqA-8" value="flag variable not set" style="text;html=1;align=center;verticalAlign=middle;resizable=0;points=[];autosize=1;strokeColor=none;fillColor=none;fontStyle=1" parent="EVUiXvpgTrYDO9BWVGgy-1" vertex="1">
          <mxGeometry x="713" y="548" width="131" height="26" as="geometry" />
        </mxCell>
        <mxCell id="OUoZBvlqKyzsMe28DwqA-10" value="flag variable set" style="text;html=1;align=center;verticalAlign=middle;resizable=0;points=[];autosize=1;strokeColor=none;fillColor=none;fontStyle=1" parent="EVUiXvpgTrYDO9BWVGgy-1" vertex="1">
          <mxGeometry x="557" y="406" width="109" height="26" as="geometry" />
        </mxCell>
        <mxCell id="9ZQs2PDsZJtnaHFbOT1S-0" value="&lt;font color=&quot;#cc0000&quot;&gt;ring buffer&lt;br&gt;empty&lt;/font&gt;" style="text;html=1;align=center;verticalAlign=middle;resizable=0;points=[];autosize=1;strokeColor=none;fillColor=none;fontStyle=1" parent="EVUiXvpgTrYDO9BWVGgy-1" vertex="1">
          <mxGeometry x="365" y="335" width="78" height="41" as="geometry" />
        </mxCell>
        <mxCell id="9ZQs2PDsZJtnaHFbOT1S-2" value="&lt;font color=&quot;#cc0000&quot;&gt;ring buffer &lt;br&gt;not empty&lt;/font&gt;" style="text;html=1;align=center;verticalAlign=middle;resizable=0;points=[];autosize=1;strokeColor=none;fillColor=none;fontStyle=1" parent="EVUiXvpgTrYDO9BWVGgy-1" vertex="1">
          <mxGeometry x="522" y="330" width="78" height="41" as="geometry" />
        </mxCell>
      </root>
    </mxGraphModel>
  </diagram>
  <diagram id="XS7yJ0Ev-VmZBI3naj-u" name="hw-connections">
    <mxGraphModel dx="2390" dy="1290" grid="0" gridSize="10" guides="1" tooltips="1" connect="1" arrows="1" fold="1" page="1" pageScale="1" pageWidth="3300" pageHeight="2339" math="0" shadow="0">
      <root>
        <mxCell id="0" />
        <mxCell id="1" style="locked=1;" parent="0" />
        <mxCell id="iDJwnyWc_OIMwmr35-Ot-1" value="" style="rounded=1;whiteSpace=wrap;html=1;strokeWidth=3;fillColor=#A680B8;" parent="1" vertex="1">
          <mxGeometry x="1110" y="830" width="535" height="1120" as="geometry" />
        </mxCell>
        <mxCell id="iDJwnyWc_OIMwmr35-Ot-2" value="OLED" style="locked=1;" parent="0" />
        <mxCell id="iDJwnyWc_OIMwmr35-Ot-19" style="edgeStyle=orthogonalEdgeStyle;rounded=0;orthogonalLoop=1;jettySize=auto;html=1;exitX=0.25;exitY=0;exitDx=0;exitDy=0;entryX=1;entryY=0.75;entryDx=0;entryDy=0;strokeWidth=3;endArrow=none;endFill=0;" parent="iDJwnyWc_OIMwmr35-Ot-2" source="iDJwnyWc_OIMwmr35-Ot-4" target="iDJwnyWc_OIMwmr35-Ot-27" edge="1">
          <mxGeometry relative="1" as="geometry">
            <Array as="points">
              <mxPoint x="1963" y="1281" />
              <mxPoint x="1963" y="1252" />
              <mxPoint x="1563" y="1252" />
              <mxPoint x="1563" y="1254" />
            </Array>
          </mxGeometry>
        </mxCell>
        <mxCell id="iDJwnyWc_OIMwmr35-Ot-20" style="edgeStyle=orthogonalEdgeStyle;rounded=0;orthogonalLoop=1;jettySize=auto;html=1;exitX=0.5;exitY=0;exitDx=0;exitDy=0;entryX=1;entryY=0.25;entryDx=0;entryDy=0;strokeWidth=3;endArrow=none;endFill=0;" parent="iDJwnyWc_OIMwmr35-Ot-2" source="iDJwnyWc_OIMwmr35-Ot-4" target="iDJwnyWc_OIMwmr35-Ot-27" edge="1">
          <mxGeometry relative="1" as="geometry" />
        </mxCell>
        <mxCell id="iDJwnyWc_OIMwmr35-Ot-4" value="" style="rounded=1;whiteSpace=wrap;html=1;strokeWidth=3;fillColor=#0000A3;" parent="iDJwnyWc_OIMwmr35-Ot-2" vertex="1">
          <mxGeometry x="1853" y="1281" width="310" height="240" as="geometry" />
        </mxCell>
        <mxCell id="iDJwnyWc_OIMwmr35-Ot-5" value="" style="rounded=1;whiteSpace=wrap;html=1;strokeWidth=3;fillColor=#000000;" parent="iDJwnyWc_OIMwmr35-Ot-2" vertex="1">
          <mxGeometry x="1873" y="1351" width="270" height="150" as="geometry" />
        </mxCell>
        <mxCell id="iDJwnyWc_OIMwmr35-Ot-7" value="V&lt;sub&gt;dd&lt;/sub&gt;" style="verticalLabelPosition=top;verticalAlign=bottom;shape=mxgraph.electrical.signal_sources.vdd;shadow=0;dashed=0;align=center;strokeWidth=3;fontSize=24;html=1;flipV=1;fillColor=#0000A3;" parent="iDJwnyWc_OIMwmr35-Ot-2" vertex="1">
          <mxGeometry x="1783" y="1041" width="60" height="40" as="geometry" />
        </mxCell>
        <mxCell id="iDJwnyWc_OIMwmr35-Ot-21" style="edgeStyle=orthogonalEdgeStyle;rounded=0;orthogonalLoop=1;jettySize=auto;html=1;exitX=1;exitY=0.5;exitDx=0;exitDy=0;exitPerimeter=0;strokeWidth=3;endArrow=none;endFill=0;jumpStyle=arc;" parent="iDJwnyWc_OIMwmr35-Ot-2" source="iDJwnyWc_OIMwmr35-Ot-16" edge="1">
          <mxGeometry relative="1" as="geometry">
            <mxPoint x="1773" y="1251" as="targetPoint" />
          </mxGeometry>
        </mxCell>
        <mxCell id="iDJwnyWc_OIMwmr35-Ot-23" style="edgeStyle=orthogonalEdgeStyle;rounded=0;jumpStyle=arc;orthogonalLoop=1;jettySize=auto;html=1;exitX=0;exitY=0.5;exitDx=0;exitDy=0;exitPerimeter=0;entryX=0.5;entryY=0;entryDx=0;entryDy=0;entryPerimeter=0;strokeWidth=3;endArrow=none;endFill=0;" parent="iDJwnyWc_OIMwmr35-Ot-2" source="iDJwnyWc_OIMwmr35-Ot-16" target="iDJwnyWc_OIMwmr35-Ot-7" edge="1">
          <mxGeometry relative="1" as="geometry">
            <Array as="points">
              <mxPoint x="1773" y="1081" />
            </Array>
          </mxGeometry>
        </mxCell>
        <mxCell id="iDJwnyWc_OIMwmr35-Ot-16" value="" style="pointerEvents=1;verticalLabelPosition=bottom;shadow=0;dashed=0;align=center;html=1;verticalAlign=top;shape=mxgraph.electrical.resistors.resistor_2;strokeWidth=3;fillColor=#0000A3;rotation=90;" parent="iDJwnyWc_OIMwmr35-Ot-2" vertex="1">
          <mxGeometry x="1723" y="1141" width="100" height="20" as="geometry" />
        </mxCell>
        <mxCell id="iDJwnyWc_OIMwmr35-Ot-25" style="edgeStyle=orthogonalEdgeStyle;rounded=0;jumpStyle=arc;orthogonalLoop=1;jettySize=auto;html=1;exitX=1;exitY=0.5;exitDx=0;exitDy=0;exitPerimeter=0;strokeWidth=3;endArrow=none;endFill=0;" parent="iDJwnyWc_OIMwmr35-Ot-2" source="iDJwnyWc_OIMwmr35-Ot-24" edge="1">
          <mxGeometry relative="1" as="geometry">
            <mxPoint x="1843" y="1221" as="targetPoint" />
          </mxGeometry>
        </mxCell>
        <mxCell id="iDJwnyWc_OIMwmr35-Ot-26" style="edgeStyle=orthogonalEdgeStyle;rounded=0;jumpStyle=arc;orthogonalLoop=1;jettySize=auto;html=1;exitX=0;exitY=0.5;exitDx=0;exitDy=0;exitPerimeter=0;entryX=0.5;entryY=0;entryDx=0;entryDy=0;entryPerimeter=0;strokeWidth=3;endArrow=none;endFill=0;" parent="iDJwnyWc_OIMwmr35-Ot-2" source="iDJwnyWc_OIMwmr35-Ot-24" target="iDJwnyWc_OIMwmr35-Ot-7" edge="1">
          <mxGeometry relative="1" as="geometry">
            <Array as="points">
              <mxPoint x="1843" y="1081" />
            </Array>
          </mxGeometry>
        </mxCell>
        <mxCell id="iDJwnyWc_OIMwmr35-Ot-24" value="" style="pointerEvents=1;verticalLabelPosition=bottom;shadow=0;dashed=0;align=center;html=1;verticalAlign=top;shape=mxgraph.electrical.resistors.resistor_2;strokeWidth=3;fillColor=#0000A3;rotation=90;" parent="iDJwnyWc_OIMwmr35-Ot-2" vertex="1">
          <mxGeometry x="1793" y="1141" width="100" height="20" as="geometry" />
        </mxCell>
        <mxCell id="iDJwnyWc_OIMwmr35-Ot-27" value="I2C" style="rounded=1;whiteSpace=wrap;html=1;strokeWidth=3;fillColor=#E6E6E6;fontStyle=1;fontSize=21;" parent="iDJwnyWc_OIMwmr35-Ot-2" vertex="1">
          <mxGeometry x="1466" y="1201" width="120" height="70" as="geometry" />
        </mxCell>
        <mxCell id="iDJwnyWc_OIMwmr35-Ot-28" value="SDA" style="text;html=1;align=center;verticalAlign=middle;resizable=0;points=[];autosize=1;strokeColor=none;fillColor=none;fontSize=21;fontColor=#FFFFFF;" parent="iDJwnyWc_OIMwmr35-Ot-2" vertex="1">
          <mxGeometry x="1983" y="1281" width="70" height="40" as="geometry" />
        </mxCell>
        <mxCell id="iDJwnyWc_OIMwmr35-Ot-29" value="SCL" style="text;html=1;align=center;verticalAlign=middle;resizable=0;points=[];autosize=1;strokeColor=none;fillColor=none;fontSize=21;fontColor=#FFFFFF;" parent="iDJwnyWc_OIMwmr35-Ot-2" vertex="1">
          <mxGeometry x="1928" y="1281" width="60" height="40" as="geometry" />
        </mxCell>
        <mxCell id="iDJwnyWc_OIMwmr35-Ot-30" value="RC4" style="text;html=1;align=center;verticalAlign=middle;resizable=0;points=[];autosize=1;strokeColor=none;fillColor=none;fontSize=21;fontColor=#000000;" parent="iDJwnyWc_OIMwmr35-Ot-2" vertex="1">
          <mxGeometry x="1633" y="1181" width="70" height="40" as="geometry" />
        </mxCell>
        <mxCell id="iDJwnyWc_OIMwmr35-Ot-31" value="RC3" style="text;html=1;align=center;verticalAlign=middle;resizable=0;points=[];autosize=1;strokeColor=none;fillColor=none;fontSize=21;fontColor=#000000;" parent="iDJwnyWc_OIMwmr35-Ot-2" vertex="1">
          <mxGeometry x="1633" y="1221" width="70" height="40" as="geometry" />
        </mxCell>
        <mxCell id="iDJwnyWc_OIMwmr35-Ot-33" value="Rotary Encoder" style="" parent="0" />
        <mxCell id="iDJwnyWc_OIMwmr35-Ot-47" style="edgeStyle=orthogonalEdgeStyle;rounded=0;jumpStyle=arc;orthogonalLoop=1;jettySize=auto;html=1;exitX=1;exitY=0.5;exitDx=0;exitDy=0;entryX=0.167;entryY=0.503;entryDx=0;entryDy=0;entryPerimeter=0;strokeWidth=3;fontSize=21;fontColor=#000000;endArrow=classic;endFill=1;" parent="iDJwnyWc_OIMwmr35-Ot-33" source="iDJwnyWc_OIMwmr35-Ot-34" target="iDJwnyWc_OIMwmr35-Ot-44" edge="1">
          <mxGeometry relative="1" as="geometry" />
        </mxCell>
        <mxCell id="iDJwnyWc_OIMwmr35-Ot-34" value="TMR4" style="rounded=1;whiteSpace=wrap;html=1;strokeWidth=3;fontSize=21;fontColor=#000000;fillColor=#E6E6E6;fontStyle=1" parent="iDJwnyWc_OIMwmr35-Ot-33" vertex="1">
          <mxGeometry x="1150" y="920" width="120" height="60" as="geometry" />
        </mxCell>
        <mxCell id="iDJwnyWc_OIMwmr35-Ot-48" style="edgeStyle=orthogonalEdgeStyle;rounded=0;jumpStyle=arc;orthogonalLoop=1;jettySize=auto;html=1;exitX=1;exitY=0.5;exitDx=0;exitDy=0;entryX=0.16;entryY=0.55;entryDx=0;entryDy=0;entryPerimeter=0;strokeWidth=3;fontSize=21;fontColor=#000000;endArrow=classic;endFill=1;" parent="iDJwnyWc_OIMwmr35-Ot-33" source="iDJwnyWc_OIMwmr35-Ot-35" target="iDJwnyWc_OIMwmr35-Ot-45" edge="1">
          <mxGeometry relative="1" as="geometry" />
        </mxCell>
        <mxCell id="iDJwnyWc_OIMwmr35-Ot-35" value="TMR6" style="rounded=1;whiteSpace=wrap;html=1;strokeWidth=3;fontSize=21;fontColor=#000000;fillColor=#E6E6E6;fontStyle=1" parent="iDJwnyWc_OIMwmr35-Ot-33" vertex="1">
          <mxGeometry x="1150" y="985" width="120" height="60" as="geometry" />
        </mxCell>
        <mxCell id="iDJwnyWc_OIMwmr35-Ot-40" style="edgeStyle=orthogonalEdgeStyle;rounded=0;jumpStyle=arc;orthogonalLoop=1;jettySize=auto;html=1;exitX=0;exitY=0.75;exitDx=0;exitDy=0;exitPerimeter=0;strokeWidth=3;fontSize=21;fontColor=#000000;endArrow=classic;endFill=1;entryX=0;entryY=0.5;entryDx=0;entryDy=0;" parent="iDJwnyWc_OIMwmr35-Ot-33" source="iDJwnyWc_OIMwmr35-Ot-36" target="iDJwnyWc_OIMwmr35-Ot-34" edge="1">
          <mxGeometry relative="1" as="geometry">
            <mxPoint x="1030" y="952.3684210526314" as="targetPoint" />
          </mxGeometry>
        </mxCell>
        <mxCell id="iDJwnyWc_OIMwmr35-Ot-41" style="edgeStyle=orthogonalEdgeStyle;rounded=0;jumpStyle=arc;orthogonalLoop=1;jettySize=auto;html=1;exitX=0;exitY=0.25;exitDx=0;exitDy=0;exitPerimeter=0;entryX=0;entryY=0.5;entryDx=0;entryDy=0;strokeWidth=3;fontSize=21;fontColor=#000000;endArrow=classic;endFill=1;" parent="iDJwnyWc_OIMwmr35-Ot-33" source="iDJwnyWc_OIMwmr35-Ot-36" target="iDJwnyWc_OIMwmr35-Ot-35" edge="1">
          <mxGeometry relative="1" as="geometry" />
        </mxCell>
        <mxCell id="iDJwnyWc_OIMwmr35-Ot-100" style="edgeStyle=orthogonalEdgeStyle;rounded=0;jumpStyle=arc;orthogonalLoop=1;jettySize=auto;html=1;entryX=0;entryY=0.5;entryDx=0;entryDy=0;strokeWidth=3;fontSize=21;fontColor=#000000;endArrow=classic;endFill=1;" parent="iDJwnyWc_OIMwmr35-Ot-33" source="iDJwnyWc_OIMwmr35-Ot-36" target="iDJwnyWc_OIMwmr35-Ot-99" edge="1">
          <mxGeometry relative="1" as="geometry">
            <Array as="points">
              <mxPoint x="778" y="1475" />
            </Array>
          </mxGeometry>
        </mxCell>
        <mxCell id="iDJwnyWc_OIMwmr35-Ot-36" value="" style="verticalLabelPosition=bottom;aspect=fixed;html=1;verticalAlign=top;fillColor=strokeColor;align=center;outlineConnect=0;shape=mxgraph.fluid_power.x11280;points=[[0,0.25,0],[0,0.75,0]];strokeWidth=3;fontSize=21;fontColor=#000000;rotation=-180;" parent="iDJwnyWc_OIMwmr35-Ot-33" vertex="1">
          <mxGeometry x="690.59" y="918" width="174.03" height="130" as="geometry" />
        </mxCell>
        <mxCell id="iDJwnyWc_OIMwmr35-Ot-37" value="Rotary Encoder" style="text;html=1;align=center;verticalAlign=middle;resizable=0;points=[];autosize=1;strokeColor=none;fillColor=none;fontSize=21;fontColor=#000000;" parent="iDJwnyWc_OIMwmr35-Ot-33" vertex="1">
          <mxGeometry x="660" y="870" width="170" height="40" as="geometry" />
        </mxCell>
        <mxCell id="iDJwnyWc_OIMwmr35-Ot-38" value="ROT_A/CLK" style="text;html=1;align=center;verticalAlign=middle;resizable=0;points=[];autosize=1;strokeColor=none;fillColor=none;fontSize=21;fontColor=#000000;" parent="iDJwnyWc_OIMwmr35-Ot-33" vertex="1">
          <mxGeometry x="830" y="910" width="140" height="40" as="geometry" />
        </mxCell>
        <mxCell id="iDJwnyWc_OIMwmr35-Ot-39" value="ROT_B/DT" style="text;html=1;align=center;verticalAlign=middle;resizable=0;points=[];autosize=1;strokeColor=none;fillColor=none;fontSize=21;fontColor=#000000;" parent="iDJwnyWc_OIMwmr35-Ot-33" vertex="1">
          <mxGeometry x="830" y="980" width="130" height="40" as="geometry" />
        </mxCell>
        <mxCell id="iDJwnyWc_OIMwmr35-Ot-42" value="RC6" style="text;html=1;align=center;verticalAlign=middle;resizable=0;points=[];autosize=1;strokeColor=none;fillColor=none;fontSize=21;fontColor=#000000;" parent="iDJwnyWc_OIMwmr35-Ot-33" vertex="1">
          <mxGeometry x="1040" y="910" width="70" height="40" as="geometry" />
        </mxCell>
        <mxCell id="iDJwnyWc_OIMwmr35-Ot-43" value="RD0" style="text;html=1;align=center;verticalAlign=middle;resizable=0;points=[];autosize=1;strokeColor=none;fillColor=none;fontSize=21;fontColor=#000000;" parent="iDJwnyWc_OIMwmr35-Ot-33" vertex="1">
          <mxGeometry x="1040" y="980" width="70" height="40" as="geometry" />
        </mxCell>
        <mxCell id="iDJwnyWc_OIMwmr35-Ot-55" style="edgeStyle=orthogonalEdgeStyle;rounded=0;jumpStyle=arc;orthogonalLoop=1;jettySize=auto;html=1;exitX=0.875;exitY=0.5;exitDx=0;exitDy=0;exitPerimeter=0;entryX=1;entryY=0.5;entryDx=0;entryDy=0;strokeWidth=3;fontSize=21;fontColor=#000000;endArrow=classic;endFill=1;" parent="iDJwnyWc_OIMwmr35-Ot-33" source="iDJwnyWc_OIMwmr35-Ot-44" target="iDJwnyWc_OIMwmr35-Ot-52" edge="1">
          <mxGeometry relative="1" as="geometry">
            <Array as="points">
              <mxPoint x="1470" y="950" />
              <mxPoint x="1470" y="1085" />
            </Array>
          </mxGeometry>
        </mxCell>
        <mxCell id="iDJwnyWc_OIMwmr35-Ot-44" value="&lt;b&gt;ISR&lt;/b&gt;" style="ellipse;shape=cloud;whiteSpace=wrap;html=1;strokeWidth=3;fontSize=21;fontColor=#000000;fillColor=#E6E6E6;" parent="iDJwnyWc_OIMwmr35-Ot-33" vertex="1">
          <mxGeometry x="1300" y="910" width="120" height="80" as="geometry" />
        </mxCell>
        <mxCell id="iDJwnyWc_OIMwmr35-Ot-54" style="edgeStyle=orthogonalEdgeStyle;rounded=0;jumpStyle=arc;orthogonalLoop=1;jettySize=auto;html=1;exitX=0.55;exitY=0.95;exitDx=0;exitDy=0;exitPerimeter=0;entryX=1;entryY=0.5;entryDx=0;entryDy=0;strokeWidth=3;fontSize=21;fontColor=#000000;endArrow=classic;endFill=1;" parent="iDJwnyWc_OIMwmr35-Ot-33" source="iDJwnyWc_OIMwmr35-Ot-45" target="iDJwnyWc_OIMwmr35-Ot-53" edge="1">
          <mxGeometry relative="1" as="geometry">
            <Array as="points">
              <mxPoint x="1366" y="1135" />
            </Array>
          </mxGeometry>
        </mxCell>
        <mxCell id="iDJwnyWc_OIMwmr35-Ot-45" value="&lt;b&gt;ISR&lt;/b&gt;" style="ellipse;shape=cloud;whiteSpace=wrap;html=1;strokeWidth=3;fontSize=21;fontColor=#000000;fillColor=#E6E6E6;" parent="iDJwnyWc_OIMwmr35-Ot-33" vertex="1">
          <mxGeometry x="1300" y="980" width="120" height="80" as="geometry" />
        </mxCell>
        <mxCell id="iDJwnyWc_OIMwmr35-Ot-64" style="edgeStyle=orthogonalEdgeStyle;rounded=0;jumpStyle=arc;orthogonalLoop=1;jettySize=auto;html=1;exitX=1;exitY=0.5;exitDx=0;exitDy=0;entryX=0;entryY=0.25;entryDx=0;entryDy=0;strokeWidth=3;fontSize=21;fontColor=#000000;endArrow=classic;endFill=1;" parent="iDJwnyWc_OIMwmr35-Ot-33" source="iDJwnyWc_OIMwmr35-Ot-50" target="iDJwnyWc_OIMwmr35-Ot-56" edge="1">
          <mxGeometry relative="1" as="geometry">
            <Array as="points">
              <mxPoint x="1280" y="1215" />
              <mxPoint x="1280" y="1305" />
            </Array>
          </mxGeometry>
        </mxCell>
        <mxCell id="iDJwnyWc_OIMwmr35-Ot-65" style="edgeStyle=orthogonalEdgeStyle;rounded=0;jumpStyle=arc;orthogonalLoop=1;jettySize=auto;html=1;exitX=1;exitY=0.5;exitDx=0;exitDy=0;entryX=0;entryY=0.25;entryDx=0;entryDy=0;strokeWidth=3;fontSize=21;fontColor=#000000;endArrow=classic;endFill=1;" parent="iDJwnyWc_OIMwmr35-Ot-33" source="iDJwnyWc_OIMwmr35-Ot-50" target="iDJwnyWc_OIMwmr35-Ot-57" edge="1">
          <mxGeometry relative="1" as="geometry">
            <Array as="points">
              <mxPoint x="1280" y="1215" />
              <mxPoint x="1280" y="1375" />
            </Array>
          </mxGeometry>
        </mxCell>
        <mxCell id="iDJwnyWc_OIMwmr35-Ot-50" value="CLCIN0" style="rounded=1;whiteSpace=wrap;html=1;strokeWidth=3;fontSize=21;fontColor=#000000;fillColor=#E6E6E6;fontStyle=1" parent="iDJwnyWc_OIMwmr35-Ot-33" vertex="1">
          <mxGeometry x="1150" y="1200" width="120" height="30" as="geometry" />
        </mxCell>
        <mxCell id="iDJwnyWc_OIMwmr35-Ot-67" style="edgeStyle=orthogonalEdgeStyle;rounded=0;jumpStyle=arc;orthogonalLoop=1;jettySize=auto;html=1;exitX=0.75;exitY=1;exitDx=0;exitDy=0;entryX=0;entryY=0.75;entryDx=0;entryDy=0;strokeWidth=3;fontSize=21;fontColor=#000000;endArrow=classic;endFill=1;" parent="iDJwnyWc_OIMwmr35-Ot-33" source="iDJwnyWc_OIMwmr35-Ot-51" target="iDJwnyWc_OIMwmr35-Ot-57" edge="1">
          <mxGeometry relative="1" as="geometry" />
        </mxCell>
        <mxCell id="iDJwnyWc_OIMwmr35-Ot-68" style="edgeStyle=orthogonalEdgeStyle;rounded=0;jumpStyle=arc;orthogonalLoop=1;jettySize=auto;html=1;exitX=0.75;exitY=1;exitDx=0;exitDy=0;entryX=0;entryY=0.75;entryDx=0;entryDy=0;strokeWidth=3;fontSize=21;fontColor=#000000;endArrow=classic;endFill=1;" parent="iDJwnyWc_OIMwmr35-Ot-33" source="iDJwnyWc_OIMwmr35-Ot-51" target="iDJwnyWc_OIMwmr35-Ot-56" edge="1">
          <mxGeometry relative="1" as="geometry" />
        </mxCell>
        <mxCell id="iDJwnyWc_OIMwmr35-Ot-51" value="CLCIN1" style="rounded=1;whiteSpace=wrap;html=1;strokeWidth=3;fontSize=21;fontColor=#000000;fillColor=#E6E6E6;fontStyle=1" parent="iDJwnyWc_OIMwmr35-Ot-33" vertex="1">
          <mxGeometry x="1130" y="1250" width="120" height="30" as="geometry" />
        </mxCell>
        <mxCell id="iDJwnyWc_OIMwmr35-Ot-58" style="edgeStyle=orthogonalEdgeStyle;rounded=0;jumpStyle=arc;orthogonalLoop=1;jettySize=auto;html=1;exitX=0;exitY=0.5;exitDx=0;exitDy=0;entryX=0;entryY=0.5;entryDx=0;entryDy=0;strokeWidth=3;fontSize=21;fontColor=#000000;endArrow=classic;endFill=1;" parent="iDJwnyWc_OIMwmr35-Ot-33" source="iDJwnyWc_OIMwmr35-Ot-52" target="iDJwnyWc_OIMwmr35-Ot-50" edge="1">
          <mxGeometry relative="1" as="geometry">
            <Array as="points">
              <mxPoint x="1020" y="1085" />
              <mxPoint x="1020" y="1215" />
            </Array>
          </mxGeometry>
        </mxCell>
        <mxCell id="iDJwnyWc_OIMwmr35-Ot-52" value="GPIO" style="rounded=1;whiteSpace=wrap;html=1;strokeWidth=3;fontSize=21;fontColor=#000000;fillColor=#E6E6E6;fontStyle=1" parent="iDJwnyWc_OIMwmr35-Ot-33" vertex="1">
          <mxGeometry x="1150" y="1070" width="120" height="30" as="geometry" />
        </mxCell>
        <mxCell id="iDJwnyWc_OIMwmr35-Ot-59" style="edgeStyle=orthogonalEdgeStyle;rounded=0;jumpStyle=arc;orthogonalLoop=1;jettySize=auto;html=1;exitX=0;exitY=0.5;exitDx=0;exitDy=0;entryX=0;entryY=0.5;entryDx=0;entryDy=0;strokeWidth=3;fontSize=21;fontColor=#000000;endArrow=classic;endFill=1;" parent="iDJwnyWc_OIMwmr35-Ot-33" source="iDJwnyWc_OIMwmr35-Ot-53" target="iDJwnyWc_OIMwmr35-Ot-51" edge="1">
          <mxGeometry relative="1" as="geometry">
            <Array as="points">
              <mxPoint x="990" y="1135" />
              <mxPoint x="990" y="1265" />
            </Array>
          </mxGeometry>
        </mxCell>
        <mxCell id="iDJwnyWc_OIMwmr35-Ot-53" value="GPIO" style="rounded=1;whiteSpace=wrap;html=1;strokeWidth=3;fontSize=21;fontColor=#000000;fillColor=#E6E6E6;fontStyle=1" parent="iDJwnyWc_OIMwmr35-Ot-33" vertex="1">
          <mxGeometry x="1150" y="1120" width="120" height="30" as="geometry" />
        </mxCell>
        <mxCell id="iDJwnyWc_OIMwmr35-Ot-97" style="edgeStyle=orthogonalEdgeStyle;rounded=0;jumpStyle=arc;orthogonalLoop=1;jettySize=auto;html=1;exitX=1;exitY=0.5;exitDx=0;exitDy=0;entryX=0.16;entryY=0.55;entryDx=0;entryDy=0;entryPerimeter=0;strokeWidth=3;fontSize=21;fontColor=#000000;endArrow=classic;endFill=1;" parent="iDJwnyWc_OIMwmr35-Ot-33" source="iDJwnyWc_OIMwmr35-Ot-56" target="iDJwnyWc_OIMwmr35-Ot-94" edge="1">
          <mxGeometry relative="1" as="geometry" />
        </mxCell>
        <mxCell id="iDJwnyWc_OIMwmr35-Ot-56" value="CLC2" style="rounded=1;whiteSpace=wrap;html=1;strokeWidth=3;fontSize=21;fontColor=#000000;fillColor=#E6E6E6;fontStyle=1" parent="iDJwnyWc_OIMwmr35-Ot-33" vertex="1">
          <mxGeometry x="1300" y="1290" width="120" height="60" as="geometry" />
        </mxCell>
        <mxCell id="iDJwnyWc_OIMwmr35-Ot-96" style="edgeStyle=orthogonalEdgeStyle;rounded=0;jumpStyle=arc;orthogonalLoop=1;jettySize=auto;html=1;exitX=1;exitY=0.5;exitDx=0;exitDy=0;entryX=0.07;entryY=0.4;entryDx=0;entryDy=0;entryPerimeter=0;strokeWidth=3;fontSize=21;fontColor=#000000;endArrow=classic;endFill=1;" parent="iDJwnyWc_OIMwmr35-Ot-33" source="iDJwnyWc_OIMwmr35-Ot-57" target="iDJwnyWc_OIMwmr35-Ot-95" edge="1">
          <mxGeometry relative="1" as="geometry" />
        </mxCell>
        <mxCell id="iDJwnyWc_OIMwmr35-Ot-57" value="CLC3" style="rounded=1;whiteSpace=wrap;html=1;strokeWidth=3;fontSize=21;fontColor=#000000;fillColor=#E6E6E6;fontStyle=1" parent="iDJwnyWc_OIMwmr35-Ot-33" vertex="1">
          <mxGeometry x="1300" y="1360" width="120" height="60" as="geometry" />
        </mxCell>
        <mxCell id="iDJwnyWc_OIMwmr35-Ot-60" value="RC5" style="text;html=1;align=center;verticalAlign=middle;resizable=0;points=[];autosize=1;strokeColor=none;fillColor=none;fontSize=21;fontColor=#000000;" parent="iDJwnyWc_OIMwmr35-Ot-33" vertex="1">
          <mxGeometry x="1040" y="1050" width="70" height="40" as="geometry" />
        </mxCell>
        <mxCell id="iDJwnyWc_OIMwmr35-Ot-61" value="RD1" style="text;html=1;align=center;verticalAlign=middle;resizable=0;points=[];autosize=1;strokeColor=none;fillColor=none;fontSize=21;fontColor=#000000;" parent="iDJwnyWc_OIMwmr35-Ot-33" vertex="1">
          <mxGeometry x="1040" y="1100" width="70" height="40" as="geometry" />
        </mxCell>
        <mxCell id="iDJwnyWc_OIMwmr35-Ot-62" value="RA1" style="text;html=1;align=center;verticalAlign=middle;resizable=0;points=[];autosize=1;strokeColor=none;fillColor=none;fontSize=21;fontColor=#000000;" parent="iDJwnyWc_OIMwmr35-Ot-33" vertex="1">
          <mxGeometry x="1045" y="1180" width="60" height="40" as="geometry" />
        </mxCell>
        <mxCell id="iDJwnyWc_OIMwmr35-Ot-63" value="RA2" style="text;html=1;align=center;verticalAlign=middle;resizable=0;points=[];autosize=1;strokeColor=none;fillColor=none;fontSize=21;fontColor=#000000;" parent="iDJwnyWc_OIMwmr35-Ot-33" vertex="1">
          <mxGeometry x="1045" y="1230" width="60" height="40" as="geometry" />
        </mxCell>
        <mxCell id="iDJwnyWc_OIMwmr35-Ot-88" style="edgeStyle=orthogonalEdgeStyle;rounded=0;jumpStyle=arc;orthogonalLoop=1;jettySize=auto;html=1;exitX=1;exitY=0.5;exitDx=0;exitDy=0;entryX=0;entryY=0.5;entryDx=0;entryDy=0;strokeWidth=3;fontSize=21;fontColor=#000000;endArrow=classic;endFill=1;" parent="iDJwnyWc_OIMwmr35-Ot-33" source="iDJwnyWc_OIMwmr35-Ot-69" target="iDJwnyWc_OIMwmr35-Ot-78" edge="1">
          <mxGeometry relative="1" as="geometry" />
        </mxCell>
        <mxCell id="iDJwnyWc_OIMwmr35-Ot-69" value="CLC1" style="rounded=1;whiteSpace=wrap;html=1;strokeWidth=3;fontSize=21;fontColor=#000000;fillColor=#E6E6E6;fontStyle=1" parent="iDJwnyWc_OIMwmr35-Ot-33" vertex="1">
          <mxGeometry x="1480" y="1640" width="120" height="60" as="geometry" />
        </mxCell>
        <mxCell id="iDJwnyWc_OIMwmr35-Ot-76" style="edgeStyle=orthogonalEdgeStyle;rounded=0;jumpStyle=arc;orthogonalLoop=1;jettySize=auto;html=1;exitX=1;exitY=0.25;exitDx=0;exitDy=0;entryX=0;entryY=0.5;entryDx=0;entryDy=0;strokeWidth=3;fontSize=21;fontColor=#000000;endArrow=classic;endFill=1;" parent="iDJwnyWc_OIMwmr35-Ot-33" source="iDJwnyWc_OIMwmr35-Ot-70" target="iDJwnyWc_OIMwmr35-Ot-71" edge="1">
          <mxGeometry relative="1" as="geometry" />
        </mxCell>
        <mxCell id="iDJwnyWc_OIMwmr35-Ot-77" style="edgeStyle=orthogonalEdgeStyle;rounded=0;jumpStyle=arc;orthogonalLoop=1;jettySize=auto;html=1;exitX=1;exitY=0.75;exitDx=0;exitDy=0;entryX=0;entryY=0.5;entryDx=0;entryDy=0;strokeWidth=3;fontSize=21;fontColor=#000000;endArrow=classic;endFill=1;" parent="iDJwnyWc_OIMwmr35-Ot-33" source="iDJwnyWc_OIMwmr35-Ot-70" target="iDJwnyWc_OIMwmr35-Ot-72" edge="1">
          <mxGeometry relative="1" as="geometry" />
        </mxCell>
        <mxCell id="iDJwnyWc_OIMwmr35-Ot-70" value="TMR2" style="rounded=1;whiteSpace=wrap;html=1;strokeWidth=3;fontSize=21;fontColor=#000000;fillColor=#E6E6E6;fontStyle=1" parent="iDJwnyWc_OIMwmr35-Ot-33" vertex="1">
          <mxGeometry x="1150" y="1640" width="120" height="60" as="geometry" />
        </mxCell>
        <mxCell id="iDJwnyWc_OIMwmr35-Ot-74" style="edgeStyle=orthogonalEdgeStyle;rounded=0;jumpStyle=arc;orthogonalLoop=1;jettySize=auto;html=1;exitX=1;exitY=0.5;exitDx=0;exitDy=0;entryX=0;entryY=0.25;entryDx=0;entryDy=0;strokeWidth=3;fontSize=21;fontColor=#000000;endArrow=classic;endFill=1;" parent="iDJwnyWc_OIMwmr35-Ot-33" source="iDJwnyWc_OIMwmr35-Ot-71" target="iDJwnyWc_OIMwmr35-Ot-69" edge="1">
          <mxGeometry relative="1" as="geometry" />
        </mxCell>
        <mxCell id="iDJwnyWc_OIMwmr35-Ot-71" value="PWM5" style="rounded=1;whiteSpace=wrap;html=1;strokeWidth=3;fontSize=21;fontColor=#000000;fillColor=#E6E6E6;fontStyle=1" parent="iDJwnyWc_OIMwmr35-Ot-33" vertex="1">
          <mxGeometry x="1320" y="1600" width="120" height="60" as="geometry" />
        </mxCell>
        <mxCell id="iDJwnyWc_OIMwmr35-Ot-73" style="edgeStyle=orthogonalEdgeStyle;rounded=0;jumpStyle=arc;orthogonalLoop=1;jettySize=auto;html=1;exitX=1;exitY=0.5;exitDx=0;exitDy=0;entryX=0;entryY=0.75;entryDx=0;entryDy=0;strokeWidth=3;fontSize=21;fontColor=#000000;endArrow=classic;endFill=1;" parent="iDJwnyWc_OIMwmr35-Ot-33" source="iDJwnyWc_OIMwmr35-Ot-72" target="iDJwnyWc_OIMwmr35-Ot-69" edge="1">
          <mxGeometry relative="1" as="geometry" />
        </mxCell>
        <mxCell id="iDJwnyWc_OIMwmr35-Ot-72" value="SPI1" style="rounded=1;whiteSpace=wrap;html=1;strokeWidth=3;fontSize=21;fontColor=#000000;fillColor=#E6E6E6;fontStyle=1" parent="iDJwnyWc_OIMwmr35-Ot-33" vertex="1">
          <mxGeometry x="1320" y="1680" width="120" height="60" as="geometry" />
        </mxCell>
        <mxCell id="iDJwnyWc_OIMwmr35-Ot-78" value="" style="rounded=1;whiteSpace=wrap;html=1;strokeWidth=3;fontSize=21;fontColor=#000000;fillColor=#808080;" parent="iDJwnyWc_OIMwmr35-Ot-33" vertex="1">
          <mxGeometry x="1820" y="1625" width="610" height="90" as="geometry" />
        </mxCell>
        <mxCell id="iDJwnyWc_OIMwmr35-Ot-79" value="" style="rounded=1;whiteSpace=wrap;html=1;strokeWidth=3;fontSize=21;fontColor=#000000;fillColor=#FFFFFF;" parent="iDJwnyWc_OIMwmr35-Ot-33" vertex="1">
          <mxGeometry x="1870" y="1655" width="30" height="30" as="geometry" />
        </mxCell>
        <mxCell id="iDJwnyWc_OIMwmr35-Ot-80" value="" style="rounded=1;whiteSpace=wrap;html=1;strokeWidth=3;fontSize=21;fontColor=#000000;fillColor=#FFFFFF;" parent="iDJwnyWc_OIMwmr35-Ot-33" vertex="1">
          <mxGeometry x="1930" y="1655" width="30" height="30" as="geometry" />
        </mxCell>
        <mxCell id="iDJwnyWc_OIMwmr35-Ot-81" value="" style="rounded=1;whiteSpace=wrap;html=1;strokeWidth=3;fontSize=21;fontColor=#000000;fillColor=#FFFFFF;" parent="iDJwnyWc_OIMwmr35-Ot-33" vertex="1">
          <mxGeometry x="1990" y="1655" width="30" height="30" as="geometry" />
        </mxCell>
        <mxCell id="iDJwnyWc_OIMwmr35-Ot-82" value="" style="rounded=1;whiteSpace=wrap;html=1;strokeWidth=3;fontSize=21;fontColor=#000000;fillColor=#FFFFFF;" parent="iDJwnyWc_OIMwmr35-Ot-33" vertex="1">
          <mxGeometry x="2050" y="1655" width="30" height="30" as="geometry" />
        </mxCell>
        <mxCell id="iDJwnyWc_OIMwmr35-Ot-83" value="" style="rounded=1;whiteSpace=wrap;html=1;strokeWidth=3;fontSize=21;fontColor=#000000;fillColor=#FFFFFF;" parent="iDJwnyWc_OIMwmr35-Ot-33" vertex="1">
          <mxGeometry x="2110" y="1655" width="30" height="30" as="geometry" />
        </mxCell>
        <mxCell id="iDJwnyWc_OIMwmr35-Ot-84" value="" style="rounded=1;whiteSpace=wrap;html=1;strokeWidth=3;fontSize=21;fontColor=#000000;fillColor=#FFFFFF;" parent="iDJwnyWc_OIMwmr35-Ot-33" vertex="1">
          <mxGeometry x="2170" y="1655" width="30" height="30" as="geometry" />
        </mxCell>
        <mxCell id="iDJwnyWc_OIMwmr35-Ot-85" value="" style="rounded=1;whiteSpace=wrap;html=1;strokeWidth=3;fontSize=21;fontColor=#000000;fillColor=#FFFFFF;" parent="iDJwnyWc_OIMwmr35-Ot-33" vertex="1">
          <mxGeometry x="2230" y="1655" width="30" height="30" as="geometry" />
        </mxCell>
        <mxCell id="iDJwnyWc_OIMwmr35-Ot-86" value="" style="rounded=1;whiteSpace=wrap;html=1;strokeWidth=3;fontSize=21;fontColor=#000000;fillColor=#FFFFFF;" parent="iDJwnyWc_OIMwmr35-Ot-33" vertex="1">
          <mxGeometry x="2290" y="1655" width="30" height="30" as="geometry" />
        </mxCell>
        <mxCell id="iDJwnyWc_OIMwmr35-Ot-87" value="" style="rounded=1;whiteSpace=wrap;html=1;strokeWidth=3;fontSize=21;fontColor=#000000;fillColor=#FFFFFF;" parent="iDJwnyWc_OIMwmr35-Ot-33" vertex="1">
          <mxGeometry x="2350" y="1655" width="30" height="30" as="geometry" />
        </mxCell>
        <mxCell id="iDJwnyWc_OIMwmr35-Ot-89" value="WS2812B Strip" style="text;html=1;align=center;verticalAlign=middle;resizable=0;points=[];autosize=1;strokeColor=none;fillColor=none;fontSize=21;fontColor=#000000;" parent="iDJwnyWc_OIMwmr35-Ot-33" vertex="1">
          <mxGeometry x="2000" y="1720" width="170" height="40" as="geometry" />
        </mxCell>
        <mxCell id="iDJwnyWc_OIMwmr35-Ot-90" value="RC7" style="text;html=1;align=center;verticalAlign=middle;resizable=0;points=[];autosize=1;strokeColor=none;fillColor=none;fontSize=21;fontColor=#000000;" parent="iDJwnyWc_OIMwmr35-Ot-33" vertex="1">
          <mxGeometry x="1635" y="1630" width="70" height="40" as="geometry" />
        </mxCell>
        <mxCell id="iDJwnyWc_OIMwmr35-Ot-93" style="edgeStyle=orthogonalEdgeStyle;rounded=0;jumpStyle=arc;orthogonalLoop=1;jettySize=auto;html=1;exitX=1;exitY=0.5;exitDx=0;exitDy=0;entryX=0.16;entryY=0.55;entryDx=0;entryDy=0;entryPerimeter=0;strokeWidth=3;fontSize=21;fontColor=#000000;endArrow=classic;endFill=1;" parent="iDJwnyWc_OIMwmr35-Ot-33" source="iDJwnyWc_OIMwmr35-Ot-91" target="iDJwnyWc_OIMwmr35-Ot-92" edge="1">
          <mxGeometry relative="1" as="geometry" />
        </mxCell>
        <mxCell id="iDJwnyWc_OIMwmr35-Ot-91" value="TMR5" style="rounded=1;whiteSpace=wrap;html=1;strokeWidth=3;fontSize=21;fontColor=#000000;fillColor=#E6E6E6;fontStyle=1" parent="iDJwnyWc_OIMwmr35-Ot-33" vertex="1">
          <mxGeometry x="1150" y="1810" width="120" height="60" as="geometry" />
        </mxCell>
        <mxCell id="iDJwnyWc_OIMwmr35-Ot-92" value="&lt;b&gt;millis&lt;/b&gt;" style="ellipse;shape=cloud;whiteSpace=wrap;html=1;strokeWidth=3;fontSize=21;fontColor=#000000;fillColor=#E6E6E6;" parent="iDJwnyWc_OIMwmr35-Ot-33" vertex="1">
          <mxGeometry x="1300" y="1800" width="120" height="80" as="geometry" />
        </mxCell>
        <mxCell id="iDJwnyWc_OIMwmr35-Ot-103" style="edgeStyle=orthogonalEdgeStyle;rounded=0;jumpStyle=arc;orthogonalLoop=1;jettySize=auto;html=1;exitX=0.875;exitY=0.5;exitDx=0;exitDy=0;exitPerimeter=0;strokeWidth=3;fontSize=21;fontColor=#000000;endArrow=classic;endFill=1;" parent="iDJwnyWc_OIMwmr35-Ot-33" source="iDJwnyWc_OIMwmr35-Ot-94" edge="1">
          <mxGeometry relative="1" as="geometry">
            <mxPoint x="1700" y="1320.4761904761904" as="targetPoint" />
          </mxGeometry>
        </mxCell>
        <mxCell id="iDJwnyWc_OIMwmr35-Ot-94" value="&lt;b&gt;CCW&lt;/b&gt;" style="ellipse;shape=cloud;whiteSpace=wrap;html=1;strokeWidth=3;fontSize=21;fontColor=#000000;fillColor=#E6E6E6;" parent="iDJwnyWc_OIMwmr35-Ot-33" vertex="1">
          <mxGeometry x="1470" y="1280" width="120" height="80" as="geometry" />
        </mxCell>
        <mxCell id="iDJwnyWc_OIMwmr35-Ot-104" style="edgeStyle=orthogonalEdgeStyle;rounded=0;jumpStyle=arc;orthogonalLoop=1;jettySize=auto;html=1;exitX=0.875;exitY=0.5;exitDx=0;exitDy=0;exitPerimeter=0;strokeWidth=3;fontSize=21;fontColor=#000000;endArrow=classic;endFill=1;" parent="iDJwnyWc_OIMwmr35-Ot-33" source="iDJwnyWc_OIMwmr35-Ot-95" edge="1">
          <mxGeometry relative="1" as="geometry">
            <mxPoint x="1700" y="1390" as="targetPoint" />
          </mxGeometry>
        </mxCell>
        <mxCell id="iDJwnyWc_OIMwmr35-Ot-95" value="&lt;b&gt;CW&lt;/b&gt;" style="ellipse;shape=cloud;whiteSpace=wrap;html=1;strokeWidth=3;fontSize=21;fontColor=#000000;fillColor=#E6E6E6;" parent="iDJwnyWc_OIMwmr35-Ot-33" vertex="1">
          <mxGeometry x="1470" y="1350" width="120" height="80" as="geometry" />
        </mxCell>
        <mxCell id="iDJwnyWc_OIMwmr35-Ot-99" value="GPIO" style="rounded=1;whiteSpace=wrap;html=1;strokeWidth=3;fontSize=21;fontColor=#000000;fillColor=#E6E6E6;fontStyle=1" parent="iDJwnyWc_OIMwmr35-Ot-33" vertex="1">
          <mxGeometry x="1150" y="1460" width="120" height="30" as="geometry" />
        </mxCell>
        <mxCell id="iDJwnyWc_OIMwmr35-Ot-101" value="RA3" style="text;html=1;align=center;verticalAlign=middle;resizable=0;points=[];autosize=1;strokeColor=none;fillColor=none;fontSize=21;fontColor=#000000;" parent="iDJwnyWc_OIMwmr35-Ot-33" vertex="1">
          <mxGeometry x="1040" y="1440" width="60" height="40" as="geometry" />
        </mxCell>
        <mxCell id="iDJwnyWc_OIMwmr35-Ot-102" value="ROT_SW" style="text;html=1;align=center;verticalAlign=middle;resizable=0;points=[];autosize=1;strokeColor=none;fillColor=none;fontSize=21;fontColor=#000000;" parent="iDJwnyWc_OIMwmr35-Ot-33" vertex="1">
          <mxGeometry x="790" y="1070" width="110" height="40" as="geometry" />
        </mxCell>
        <mxCell id="iDJwnyWc_OIMwmr35-Ot-105" value="RA7" style="text;html=1;align=center;verticalAlign=middle;resizable=0;points=[];autosize=1;strokeColor=none;fillColor=none;fontSize=21;fontColor=#000000;" parent="iDJwnyWc_OIMwmr35-Ot-33" vertex="1">
          <mxGeometry x="1640" y="1280" width="60" height="40" as="geometry" />
        </mxCell>
        <mxCell id="iDJwnyWc_OIMwmr35-Ot-106" value="RB0" style="text;html=1;align=center;verticalAlign=middle;resizable=0;points=[];autosize=1;strokeColor=none;fillColor=none;fontSize=21;fontColor=#000000;" parent="iDJwnyWc_OIMwmr35-Ot-33" vertex="1">
          <mxGeometry x="1640" y="1350" width="60" height="40" as="geometry" />
        </mxCell>
        <mxCell id="iDJwnyWc_OIMwmr35-Ot-111" style="edgeStyle=orthogonalEdgeStyle;rounded=0;jumpStyle=arc;orthogonalLoop=1;jettySize=auto;html=1;exitX=1;exitY=0.5;exitDx=0;exitDy=0;strokeWidth=3;fontSize=21;fontColor=#000000;endArrow=classic;endFill=1;" parent="iDJwnyWc_OIMwmr35-Ot-33" source="iDJwnyWc_OIMwmr35-Ot-112" edge="1">
          <mxGeometry relative="1" as="geometry">
            <mxPoint x="1760" y="1770.4761904761904" as="targetPoint" />
          </mxGeometry>
        </mxCell>
        <mxCell id="iDJwnyWc_OIMwmr35-Ot-112" value="GPIO" style="rounded=1;whiteSpace=wrap;html=1;strokeWidth=3;fontSize=21;fontColor=#000000;fillColor=#E6E6E6;fontStyle=1" parent="iDJwnyWc_OIMwmr35-Ot-33" vertex="1">
          <mxGeometry x="1480" y="1755" width="120" height="30" as="geometry" />
        </mxCell>
        <mxCell id="iDJwnyWc_OIMwmr35-Ot-113" value="RD7" style="text;html=1;align=center;verticalAlign=middle;resizable=0;points=[];autosize=1;strokeColor=none;fillColor=none;fontSize=21;fontColor=#000000;" parent="iDJwnyWc_OIMwmr35-Ot-33" vertex="1">
          <mxGeometry x="1645" y="1730" width="70" height="40" as="geometry" />
        </mxCell>
        <mxCell id="iDJwnyWc_OIMwmr35-Ot-114" value="DEBUG GPIO" style="text;html=1;align=center;verticalAlign=middle;resizable=0;points=[];autosize=1;strokeColor=none;fillColor=none;fontSize=21;fontColor=#000000;" parent="iDJwnyWc_OIMwmr35-Ot-33" vertex="1">
          <mxGeometry x="1760" y="1750" width="160" height="40" as="geometry" />
        </mxCell>
        <mxCell id="iDJwnyWc_OIMwmr35-Ot-116" style="edgeStyle=orthogonalEdgeStyle;rounded=0;jumpStyle=arc;orthogonalLoop=1;jettySize=auto;html=1;exitX=1;exitY=0.5;exitDx=0;exitDy=0;strokeWidth=3;fontSize=21;fontColor=#000000;endArrow=classic;endFill=1;" parent="iDJwnyWc_OIMwmr35-Ot-33" source="iDJwnyWc_OIMwmr35-Ot-115" edge="1">
          <mxGeometry relative="1" as="geometry">
            <mxPoint x="1760" y="1814.7619047619046" as="targetPoint" />
          </mxGeometry>
        </mxCell>
        <mxCell id="iDJwnyWc_OIMwmr35-Ot-115" value="GPIO" style="rounded=1;whiteSpace=wrap;html=1;strokeWidth=3;fontSize=21;fontColor=#000000;fillColor=#E6E6E6;fontStyle=1" parent="iDJwnyWc_OIMwmr35-Ot-33" vertex="1">
          <mxGeometry x="1480" y="1800" width="120" height="30" as="geometry" />
        </mxCell>
        <mxCell id="iDJwnyWc_OIMwmr35-Ot-117" value="RE0" style="text;html=1;align=center;verticalAlign=middle;resizable=0;points=[];autosize=1;strokeColor=none;fillColor=none;fontSize=21;fontColor=#000000;" parent="iDJwnyWc_OIMwmr35-Ot-33" vertex="1">
          <mxGeometry x="1650" y="1780" width="60" height="40" as="geometry" />
        </mxCell>
        <mxCell id="iDJwnyWc_OIMwmr35-Ot-118" value="LED0" style="text;html=1;align=center;verticalAlign=middle;resizable=0;points=[];autosize=1;strokeColor=none;fillColor=none;fontSize=21;fontColor=#000000;" parent="iDJwnyWc_OIMwmr35-Ot-33" vertex="1">
          <mxGeometry x="1770" y="1800" width="80" height="40" as="geometry" />
        </mxCell>
        <mxCell id="iDJwnyWc_OIMwmr35-Ot-119" value="GPIO" style="rounded=1;whiteSpace=wrap;html=1;strokeWidth=3;fontSize=21;fontColor=#000000;fillColor=#E6E6E6;fontStyle=1" parent="iDJwnyWc_OIMwmr35-Ot-33" vertex="1">
          <mxGeometry x="1480" y="1850" width="120" height="30" as="geometry" />
        </mxCell>
        <mxCell id="iDJwnyWc_OIMwmr35-Ot-121" style="edgeStyle=orthogonalEdgeStyle;rounded=0;jumpStyle=arc;orthogonalLoop=1;jettySize=auto;html=1;entryX=1;entryY=0.5;entryDx=0;entryDy=0;strokeWidth=3;fontSize=21;fontColor=#000000;endArrow=classic;endFill=1;" parent="iDJwnyWc_OIMwmr35-Ot-33" source="iDJwnyWc_OIMwmr35-Ot-120" target="iDJwnyWc_OIMwmr35-Ot-119" edge="1">
          <mxGeometry relative="1" as="geometry" />
        </mxCell>
        <mxCell id="iDJwnyWc_OIMwmr35-Ot-120" value="SW0" style="text;html=1;align=center;verticalAlign=middle;resizable=0;points=[];autosize=1;strokeColor=none;fillColor=none;fontSize=21;fontColor=#000000;" parent="iDJwnyWc_OIMwmr35-Ot-33" vertex="1">
          <mxGeometry x="1775" y="1845" width="70" height="40" as="geometry" />
        </mxCell>
        <mxCell id="iDJwnyWc_OIMwmr35-Ot-122" value="RE2" style="text;html=1;align=center;verticalAlign=middle;resizable=0;points=[];autosize=1;strokeColor=none;fillColor=none;fontSize=21;fontColor=#000000;" parent="iDJwnyWc_OIMwmr35-Ot-33" vertex="1">
          <mxGeometry x="1650" y="1830" width="60" height="40" as="geometry" />
        </mxCell>
      </root>
    </mxGraphModel>
  </diagram>
  <diagram id="msEpMtwZngzFrFWpi4-Q" name="menu_sm">
    <mxGraphModel dx="1366" dy="737" grid="0" gridSize="10" guides="1" tooltips="1" connect="1" arrows="1" fold="1" page="1" pageScale="1" pageWidth="3300" pageHeight="2339" math="0" shadow="0">
      <root>
        <mxCell id="0" />
        <mxCell id="1" parent="0" />
        <mxCell id="jwEtNOhTTIn63fMqd3Nx-56" style="edgeStyle=orthogonalEdgeStyle;rounded=0;orthogonalLoop=1;jettySize=auto;html=1;exitX=1;exitY=0.5;exitDx=0;exitDy=0;entryX=0;entryY=0.5;entryDx=0;entryDy=0;fontFamily=Lucida Console;fontSize=16;fontColor=#66FFFF;strokeWidth=3;" parent="1" source="VrpsjKCtVtYite0l5RD--1" target="5KFAZ07S46kkrbqEi5Xl-4" edge="1">
          <mxGeometry relative="1" as="geometry" />
        </mxCell>
        <mxCell id="VrpsjKCtVtYite0l5RD--1" value="MENU_INIT" style="rounded=1;whiteSpace=wrap;html=1;strokeWidth=3;fontSize=16;" parent="1" vertex="1">
          <mxGeometry x="510" y="310" width="150" height="80" as="geometry" />
        </mxCell>
        <mxCell id="jwEtNOhTTIn63fMqd3Nx-59" style="edgeStyle=orthogonalEdgeStyle;curved=1;rounded=0;orthogonalLoop=1;jettySize=auto;html=1;exitX=0.25;exitY=0;exitDx=0;exitDy=0;entryX=0.25;entryY=1;entryDx=0;entryDy=0;strokeWidth=3;fontFamily=Lucida Console;fontSize=16;fontColor=#66FFFF;" parent="1" source="5KFAZ07S46kkrbqEi5Xl-1" target="5KFAZ07S46kkrbqEi5Xl-5" edge="1">
          <mxGeometry relative="1" as="geometry" />
        </mxCell>
        <mxCell id="jwEtNOhTTIn63fMqd3Nx-62" style="edgeStyle=orthogonalEdgeStyle;curved=1;rounded=0;orthogonalLoop=1;jettySize=auto;html=1;exitX=0.25;exitY=1;exitDx=0;exitDy=0;entryX=1;entryY=0.25;entryDx=0;entryDy=0;strokeWidth=3;fontFamily=Lucida Console;fontSize=16;fontColor=#66FFFF;" parent="1" source="5KFAZ07S46kkrbqEi5Xl-1" target="5KFAZ07S46kkrbqEi5Xl-6" edge="1">
          <mxGeometry relative="1" as="geometry" />
        </mxCell>
        <mxCell id="jwEtNOhTTIn63fMqd3Nx-65" style="edgeStyle=orthogonalEdgeStyle;curved=1;rounded=0;orthogonalLoop=1;jettySize=auto;html=1;exitX=0.5;exitY=1;exitDx=0;exitDy=0;entryX=0;entryY=0.75;entryDx=0;entryDy=0;strokeWidth=3;fontFamily=Lucida Console;fontSize=16;fontColor=#66FFFF;" parent="1" source="5KFAZ07S46kkrbqEi5Xl-1" target="5KFAZ07S46kkrbqEi5Xl-2" edge="1">
          <mxGeometry relative="1" as="geometry" />
        </mxCell>
        <mxCell id="jwEtNOhTTIn63fMqd3Nx-68" style="edgeStyle=orthogonalEdgeStyle;curved=1;rounded=0;orthogonalLoop=1;jettySize=auto;html=1;exitX=1;exitY=0.25;exitDx=0;exitDy=0;entryX=0;entryY=0.25;entryDx=0;entryDy=0;strokeWidth=3;fontFamily=Lucida Console;fontSize=16;fontColor=#66FFFF;" parent="1" source="5KFAZ07S46kkrbqEi5Xl-1" target="5KFAZ07S46kkrbqEi5Xl-3" edge="1">
          <mxGeometry relative="1" as="geometry" />
        </mxCell>
        <mxCell id="5KFAZ07S46kkrbqEi5Xl-1" value="MENU_MAIN" style="rounded=1;whiteSpace=wrap;html=1;strokeWidth=3;fontSize=16;" parent="1" vertex="1">
          <mxGeometry x="1010" y="310" width="150" height="80" as="geometry" />
        </mxCell>
        <mxCell id="jwEtNOhTTIn63fMqd3Nx-67" style="edgeStyle=orthogonalEdgeStyle;curved=1;rounded=0;orthogonalLoop=1;jettySize=auto;html=1;exitX=0;exitY=0.25;exitDx=0;exitDy=0;entryX=0.75;entryY=1;entryDx=0;entryDy=0;strokeWidth=3;fontFamily=Lucida Console;fontSize=16;fontColor=#66FFFF;" parent="1" source="5KFAZ07S46kkrbqEi5Xl-2" target="5KFAZ07S46kkrbqEi5Xl-1" edge="1">
          <mxGeometry relative="1" as="geometry" />
        </mxCell>
        <mxCell id="t-U3eid17INIP3kVceuN-17" style="edgeStyle=orthogonalEdgeStyle;rounded=0;orthogonalLoop=1;jettySize=auto;html=1;exitX=1;exitY=0.25;exitDx=0;exitDy=0;entryX=0;entryY=0.25;entryDx=0;entryDy=0;strokeWidth=3;" edge="1" parent="1" source="5KFAZ07S46kkrbqEi5Xl-2" target="t-U3eid17INIP3kVceuN-16">
          <mxGeometry relative="1" as="geometry" />
        </mxCell>
        <mxCell id="5KFAZ07S46kkrbqEi5Xl-2" value="MENU_PRFLSLCT" style="rounded=1;whiteSpace=wrap;html=1;strokeWidth=3;fontSize=16;" parent="1" vertex="1">
          <mxGeometry x="1320" y="450" width="150" height="80" as="geometry" />
        </mxCell>
        <mxCell id="jwEtNOhTTIn63fMqd3Nx-70" style="edgeStyle=orthogonalEdgeStyle;curved=1;rounded=0;orthogonalLoop=1;jettySize=auto;html=1;exitX=0;exitY=0.75;exitDx=0;exitDy=0;entryX=1;entryY=0.75;entryDx=0;entryDy=0;strokeWidth=3;fontFamily=Lucida Console;fontSize=16;fontColor=#66FFFF;" parent="1" source="5KFAZ07S46kkrbqEi5Xl-3" target="5KFAZ07S46kkrbqEi5Xl-1" edge="1">
          <mxGeometry relative="1" as="geometry">
            <Array as="points">
              <mxPoint x="1310" y="200" />
              <mxPoint x="1310" y="370" />
            </Array>
          </mxGeometry>
        </mxCell>
        <mxCell id="5KFAZ07S46kkrbqEi5Xl-3" value="MENU_&lt;br&gt;BRIGHTNESS_&lt;br&gt;SELECT" style="rounded=1;whiteSpace=wrap;html=1;strokeWidth=3;fontSize=16;" parent="1" vertex="1">
          <mxGeometry x="1350" y="140" width="150" height="80" as="geometry" />
        </mxCell>
        <mxCell id="jwEtNOhTTIn63fMqd3Nx-57" style="edgeStyle=orthogonalEdgeStyle;rounded=0;orthogonalLoop=1;jettySize=auto;html=1;exitX=1;exitY=0.5;exitDx=0;exitDy=0;entryX=0;entryY=0.5;entryDx=0;entryDy=0;strokeWidth=3;fontFamily=Lucida Console;fontSize=16;fontColor=#66FFFF;curved=1;" parent="1" source="5KFAZ07S46kkrbqEi5Xl-4" target="5KFAZ07S46kkrbqEi5Xl-1" edge="1">
          <mxGeometry relative="1" as="geometry" />
        </mxCell>
        <mxCell id="5KFAZ07S46kkrbqEi5Xl-4" value="MENU_WELCOME" style="rounded=1;whiteSpace=wrap;html=1;strokeWidth=3;fontSize=16;" parent="1" vertex="1">
          <mxGeometry x="726" y="310" width="150" height="80" as="geometry" />
        </mxCell>
        <mxCell id="jwEtNOhTTIn63fMqd3Nx-60" style="edgeStyle=orthogonalEdgeStyle;curved=1;rounded=0;orthogonalLoop=1;jettySize=auto;html=1;exitX=0.75;exitY=1;exitDx=0;exitDy=0;entryX=0.75;entryY=0;entryDx=0;entryDy=0;strokeWidth=3;fontFamily=Lucida Console;fontSize=16;fontColor=#66FFFF;" parent="1" source="5KFAZ07S46kkrbqEi5Xl-5" target="5KFAZ07S46kkrbqEi5Xl-1" edge="1">
          <mxGeometry relative="1" as="geometry" />
        </mxCell>
        <mxCell id="5KFAZ07S46kkrbqEi5Xl-5" value="MENU_ABOUT" style="rounded=1;whiteSpace=wrap;html=1;strokeWidth=3;fontSize=16;" parent="1" vertex="1">
          <mxGeometry x="1010" y="140" width="150" height="80" as="geometry" />
        </mxCell>
        <mxCell id="jwEtNOhTTIn63fMqd3Nx-64" style="edgeStyle=orthogonalEdgeStyle;curved=1;rounded=0;orthogonalLoop=1;jettySize=auto;html=1;exitX=1;exitY=0.75;exitDx=0;exitDy=0;entryX=0.388;entryY=1.028;entryDx=0;entryDy=0;entryPerimeter=0;strokeWidth=3;fontFamily=Lucida Console;fontSize=16;fontColor=#66FFFF;" parent="1" source="5KFAZ07S46kkrbqEi5Xl-6" target="5KFAZ07S46kkrbqEi5Xl-1" edge="1">
          <mxGeometry relative="1" as="geometry">
            <Array as="points">
              <mxPoint x="940" y="510" />
              <mxPoint x="1068" y="510" />
            </Array>
          </mxGeometry>
        </mxCell>
        <mxCell id="5KFAZ07S46kkrbqEi5Xl-6" value="MENU_&lt;br&gt;SCREENSAVER" style="rounded=1;whiteSpace=wrap;html=1;strokeWidth=3;fontSize=16;" parent="1" vertex="1">
          <mxGeometry x="590" y="490" width="150" height="80" as="geometry" />
        </mxCell>
        <mxCell id="YsdFqsc_rVLDs-Jel6li-1" value="" style="rounded=1;whiteSpace=wrap;html=1;strokeWidth=3;fillColor=#0000A3;" parent="1" vertex="1">
          <mxGeometry x="80" y="920" width="310" height="240" as="geometry" />
        </mxCell>
        <mxCell id="YsdFqsc_rVLDs-Jel6li-2" value="" style="rounded=1;whiteSpace=wrap;html=1;strokeWidth=3;fillColor=#000000;" parent="1" vertex="1">
          <mxGeometry x="100" y="950" width="270" height="190" as="geometry" />
        </mxCell>
        <mxCell id="jwEtNOhTTIn63fMqd3Nx-1" value="MENU_MAIN" style="text;html=1;align=center;verticalAlign=middle;resizable=0;points=[];autosize=1;strokeColor=none;fillColor=none;fontSize=16;fontStyle=1" parent="1" vertex="1">
          <mxGeometry x="170" y="890" width="120" height="30" as="geometry" />
        </mxCell>
        <mxCell id="jwEtNOhTTIn63fMqd3Nx-2" value="WS2812B Controller" style="text;html=1;align=center;verticalAlign=middle;resizable=0;points=[];autosize=1;strokeColor=none;fillColor=none;fontSize=16;fontColor=#66FFFF;fontFamily=Lucida Console;" parent="1" vertex="1">
          <mxGeometry x="135" y="950" width="200" height="30" as="geometry" />
        </mxCell>
        <mxCell id="jwEtNOhTTIn63fMqd3Nx-3" value="1. Select LED Profile" style="text;html=1;align=center;verticalAlign=middle;resizable=0;points=[];autosize=1;strokeColor=none;fillColor=none;fontSize=16;fontColor=#66FFFF;fontFamily=Lucida Console;" parent="1" vertex="1">
          <mxGeometry x="100" y="990" width="230" height="30" as="geometry" />
        </mxCell>
        <mxCell id="jwEtNOhTTIn63fMqd3Nx-4" value="2. Adjust Brightness" style="text;html=1;align=center;verticalAlign=middle;resizable=0;points=[];autosize=1;strokeColor=none;fillColor=none;fontSize=16;fontColor=#66FFFF;fontFamily=Lucida Console;" parent="1" vertex="1">
          <mxGeometry x="100" y="1040" width="220" height="30" as="geometry" />
        </mxCell>
        <mxCell id="jwEtNOhTTIn63fMqd3Nx-5" value="3. About" style="text;html=1;align=center;verticalAlign=middle;resizable=0;points=[];autosize=1;strokeColor=none;fillColor=none;fontSize=16;fontColor=#66FFFF;fontFamily=Lucida Console;" parent="1" vertex="1">
          <mxGeometry x="100" y="1090" width="100" height="30" as="geometry" />
        </mxCell>
        <mxCell id="jwEtNOhTTIn63fMqd3Nx-6" value="" style="rounded=1;whiteSpace=wrap;html=1;strokeWidth=3;fillColor=#0000A3;" parent="1" vertex="1">
          <mxGeometry x="520" y="920" width="310" height="240" as="geometry" />
        </mxCell>
        <mxCell id="jwEtNOhTTIn63fMqd3Nx-7" value="" style="rounded=1;whiteSpace=wrap;html=1;strokeWidth=3;fillColor=#000000;" parent="1" vertex="1">
          <mxGeometry x="540" y="950" width="270" height="190" as="geometry" />
        </mxCell>
        <mxCell id="jwEtNOhTTIn63fMqd3Nx-8" value="MENU_ABOUT" style="text;html=1;align=center;verticalAlign=middle;resizable=0;points=[];autosize=1;strokeColor=none;fillColor=none;fontSize=16;fontStyle=1" parent="1" vertex="1">
          <mxGeometry x="600" y="890" width="140" height="30" as="geometry" />
        </mxCell>
        <mxCell id="jwEtNOhTTIn63fMqd3Nx-9" value="About" style="text;html=1;align=center;verticalAlign=middle;resizable=0;points=[];autosize=1;strokeColor=none;fillColor=none;fontSize=16;fontColor=#66FFFF;fontFamily=Lucida Console;" parent="1" vertex="1">
          <mxGeometry x="640" y="950" width="70" height="30" as="geometry" />
        </mxCell>
        <mxCell id="jwEtNOhTTIn63fMqd3Nx-10" value="Project by MJ Neri" style="text;html=1;align=center;verticalAlign=middle;resizable=0;points=[];autosize=1;strokeColor=none;fillColor=none;fontSize=16;fontColor=#66FFFF;fontFamily=Lucida Console;" parent="1" vertex="1">
          <mxGeometry x="540" y="980" width="200" height="30" as="geometry" />
        </mxCell>
        <mxCell id="jwEtNOhTTIn63fMqd3Nx-11" value="See source code:" style="text;html=1;align=center;verticalAlign=middle;resizable=0;points=[];autosize=1;strokeColor=none;fillColor=none;fontSize=16;fontColor=#66FFFF;fontFamily=Lucida Console;" parent="1" vertex="1">
          <mxGeometry x="540" y="1010" width="180" height="30" as="geometry" />
        </mxCell>
        <mxCell id="jwEtNOhTTIn63fMqd3Nx-12" value="github.com/mjneri/ws2812-controller" style="text;html=1;align=center;verticalAlign=middle;resizable=0;points=[];autosize=1;strokeColor=none;fillColor=none;fontSize=16;fontColor=#66FFFF;fontFamily=Lucida Console;" parent="1" vertex="1">
          <mxGeometry x="540" y="1040" width="360" height="30" as="geometry" />
        </mxCell>
        <mxCell id="jwEtNOhTTIn63fMqd3Nx-13" value="Back" style="text;html=1;align=center;verticalAlign=middle;resizable=0;points=[];autosize=1;strokeColor=none;fillColor=none;fontSize=16;fontColor=#000000;fontFamily=Lucida Console;labelBackgroundColor=#66FFFF;" parent="1" vertex="1">
          <mxGeometry x="540" y="1100" width="60" height="30" as="geometry" />
        </mxCell>
        <mxCell id="jwEtNOhTTIn63fMqd3Nx-15" value="" style="rounded=1;whiteSpace=wrap;html=1;strokeWidth=3;fillColor=#0000A3;" parent="1" vertex="1">
          <mxGeometry x="1000" y="920" width="310" height="240" as="geometry" />
        </mxCell>
        <mxCell id="jwEtNOhTTIn63fMqd3Nx-16" value="" style="rounded=1;whiteSpace=wrap;html=1;strokeWidth=3;fillColor=#000000;" parent="1" vertex="1">
          <mxGeometry x="1020" y="950" width="270" height="190" as="geometry" />
        </mxCell>
        <mxCell id="jwEtNOhTTIn63fMqd3Nx-17" value="MENU_BRIGHTNESS_SELECT" style="text;html=1;align=center;verticalAlign=middle;resizable=0;points=[];autosize=1;strokeColor=none;fillColor=none;fontSize=16;fontStyle=1" parent="1" vertex="1">
          <mxGeometry x="1020" y="890" width="260" height="30" as="geometry" />
        </mxCell>
        <mxCell id="jwEtNOhTTIn63fMqd3Nx-18" value="Adjust Brightness" style="text;html=1;align=center;verticalAlign=middle;resizable=0;points=[];autosize=1;strokeColor=none;fillColor=none;fontSize=16;fontColor=#66FFFF;fontFamily=Lucida Console;" parent="1" vertex="1">
          <mxGeometry x="1060" y="950" width="190" height="30" as="geometry" />
        </mxCell>
        <mxCell id="jwEtNOhTTIn63fMqd3Nx-22" value="Back" style="text;html=1;align=center;verticalAlign=middle;resizable=0;points=[];autosize=1;strokeColor=none;fillColor=none;fontSize=16;fontColor=#000000;fontFamily=Lucida Console;labelBackgroundColor=#66FFFF;" parent="1" vertex="1">
          <mxGeometry x="1020" y="1100" width="60" height="30" as="geometry" />
        </mxCell>
        <mxCell id="jwEtNOhTTIn63fMqd3Nx-23" value="Save" style="text;html=1;align=center;verticalAlign=middle;resizable=0;points=[];autosize=1;strokeColor=none;fillColor=none;fontSize=16;fontColor=#66FFFF;fontFamily=Lucida Console;labelBackgroundColor=none;" parent="1" vertex="1">
          <mxGeometry x="1220" y="1100" width="60" height="30" as="geometry" />
        </mxCell>
        <mxCell id="jwEtNOhTTIn63fMqd3Nx-24" value="" style="rounded=1;whiteSpace=wrap;html=1;strokeWidth=3;fillColor=#0000A3;" parent="1" vertex="1">
          <mxGeometry x="1450" y="920" width="310" height="240" as="geometry" />
        </mxCell>
        <mxCell id="jwEtNOhTTIn63fMqd3Nx-25" value="" style="rounded=1;whiteSpace=wrap;html=1;strokeWidth=3;fillColor=#000000;" parent="1" vertex="1">
          <mxGeometry x="1470" y="950" width="270" height="190" as="geometry" />
        </mxCell>
        <mxCell id="jwEtNOhTTIn63fMqd3Nx-26" value="MENU_PRFLSCLT" style="text;html=1;align=center;verticalAlign=middle;resizable=0;points=[];autosize=1;strokeColor=none;fillColor=none;fontSize=16;fontStyle=1" parent="1" vertex="1">
          <mxGeometry x="1520" y="890" width="160" height="30" as="geometry" />
        </mxCell>
        <mxCell id="jwEtNOhTTIn63fMqd3Nx-27" value="Select LED Profile" style="text;html=1;align=center;verticalAlign=middle;resizable=0;points=[];autosize=1;strokeColor=none;fillColor=none;fontSize=16;fontColor=#66FFFF;fontFamily=Lucida Console;" parent="1" vertex="1">
          <mxGeometry x="1505" y="950" width="200" height="30" as="geometry" />
        </mxCell>
        <mxCell id="jwEtNOhTTIn63fMqd3Nx-28" value="1. PIXEL Walk" style="text;html=1;align=center;verticalAlign=middle;resizable=0;points=[];autosize=1;strokeColor=none;fillColor=none;fontSize=16;fontColor=#66FFFF;fontFamily=Lucida Console;" parent="1" vertex="1">
          <mxGeometry x="1470" y="980" width="150" height="30" as="geometry" />
        </mxCell>
        <mxCell id="jwEtNOhTTIn63fMqd3Nx-29" value="2. Comet&#39;s Tail" style="text;html=1;align=center;verticalAlign=middle;resizable=0;points=[];autosize=1;strokeColor=none;fillColor=none;fontSize=16;fontColor=#000000;fontFamily=Lucida Console;labelBackgroundColor=#66FFFF;" parent="1" vertex="1">
          <mxGeometry x="1470" y="1000" width="170" height="30" as="geometry" />
        </mxCell>
        <mxCell id="jwEtNOhTTIn63fMqd3Nx-30" value="3. Theater Chase" style="text;html=1;align=center;verticalAlign=middle;resizable=0;points=[];autosize=1;strokeColor=none;fillColor=none;fontSize=16;fontColor=#66FFFF;fontFamily=Lucida Console;" parent="1" vertex="1">
          <mxGeometry x="1470" y="1020" width="180" height="30" as="geometry" />
        </mxCell>
        <mxCell id="jwEtNOhTTIn63fMqd3Nx-31" value="Back" style="text;html=1;align=center;verticalAlign=middle;resizable=0;points=[];autosize=1;strokeColor=none;fillColor=none;fontSize=16;fontColor=#66FFFF;fontFamily=Lucida Console;labelBackgroundColor=none;" parent="1" vertex="1">
          <mxGeometry x="1470" y="1100" width="60" height="30" as="geometry" />
        </mxCell>
        <mxCell id="jwEtNOhTTIn63fMqd3Nx-33" value="4. 1 Color Pulse" style="text;html=1;align=center;verticalAlign=middle;resizable=0;points=[];autosize=1;strokeColor=none;fillColor=none;fontSize=16;fontColor=#66FFFF;fontFamily=Lucida Console;" parent="1" vertex="1">
          <mxGeometry x="1470" y="1040" width="180" height="30" as="geometry" />
        </mxCell>
        <mxCell id="jwEtNOhTTIn63fMqd3Nx-34" value="5. Solid Color" style="text;html=1;align=center;verticalAlign=middle;resizable=0;points=[];autosize=1;strokeColor=none;fillColor=none;fontSize=16;fontColor=#66FFFF;fontFamily=Lucida Console;" parent="1" vertex="1">
          <mxGeometry x="1470" y="1060" width="160" height="30" as="geometry" />
        </mxCell>
        <mxCell id="jwEtNOhTTIn63fMqd3Nx-38" value="15%" style="rounded=0;whiteSpace=wrap;html=1;labelBackgroundColor=none;strokeWidth=3;fontFamily=Lucida Console;fontSize=16;fontColor=#66FFFF;fillColor=#000000;strokeColor=#66FFFF;" parent="1" vertex="1">
          <mxGeometry x="1025" y="1000" width="255" height="30" as="geometry" />
        </mxCell>
        <mxCell id="jwEtNOhTTIn63fMqd3Nx-36" value="" style="rounded=0;whiteSpace=wrap;html=1;labelBackgroundColor=none;strokeWidth=3;fontFamily=Lucida Console;fontSize=16;fontColor=#66FFFF;fillColor=#66FFFF;strokeColor=#66FFFF;" parent="1" vertex="1">
          <mxGeometry x="1025" y="1000" width="55" height="30" as="geometry" />
        </mxCell>
        <mxCell id="jwEtNOhTTIn63fMqd3Nx-39" value="" style="rounded=1;whiteSpace=wrap;html=1;strokeWidth=3;fillColor=#0000A3;" parent="1" vertex="1">
          <mxGeometry x="995" y="1190" width="310" height="240" as="geometry" />
        </mxCell>
        <mxCell id="jwEtNOhTTIn63fMqd3Nx-40" value="" style="rounded=1;whiteSpace=wrap;html=1;strokeWidth=3;fillColor=#000000;" parent="1" vertex="1">
          <mxGeometry x="1015" y="1220" width="270" height="190" as="geometry" />
        </mxCell>
        <mxCell id="jwEtNOhTTIn63fMqd3Nx-41" value="Adjust Brightness" style="text;html=1;align=center;verticalAlign=middle;resizable=0;points=[];autosize=1;strokeColor=none;fillColor=none;fontSize=16;fontColor=#66FFFF;fontFamily=Lucida Console;" parent="1" vertex="1">
          <mxGeometry x="1055" y="1220" width="190" height="30" as="geometry" />
        </mxCell>
        <mxCell id="jwEtNOhTTIn63fMqd3Nx-42" value="Back" style="text;html=1;align=center;verticalAlign=middle;resizable=0;points=[];autosize=1;strokeColor=none;fillColor=none;fontSize=16;fontColor=#66FFFF;fontFamily=Lucida Console;labelBackgroundColor=none;" parent="1" vertex="1">
          <mxGeometry x="1015" y="1370" width="60" height="30" as="geometry" />
        </mxCell>
        <mxCell id="jwEtNOhTTIn63fMqd3Nx-43" value="Save" style="text;html=1;align=center;verticalAlign=middle;resizable=0;points=[];autosize=1;strokeColor=none;fillColor=none;fontSize=16;fontColor=#000000;fontFamily=Lucida Console;labelBackgroundColor=#66FFFF;" parent="1" vertex="1">
          <mxGeometry x="1215" y="1370" width="60" height="30" as="geometry" />
        </mxCell>
        <mxCell id="jwEtNOhTTIn63fMqd3Nx-45" value="" style="rounded=0;whiteSpace=wrap;html=1;labelBackgroundColor=none;strokeWidth=3;fontFamily=Lucida Console;fontSize=16;fontColor=#66FFFF;fillColor=#66FFFF;strokeColor=#66FFFF;" parent="1" vertex="1">
          <mxGeometry x="1020" y="1270" width="160" height="30" as="geometry" />
        </mxCell>
        <mxCell id="jwEtNOhTTIn63fMqd3Nx-44" value="60%" style="rounded=0;whiteSpace=wrap;html=1;labelBackgroundColor=none;strokeWidth=3;fontFamily=Lucida Console;fontSize=16;fontColor=#000000;fillColor=none;strokeColor=#66FFFF;" parent="1" vertex="1">
          <mxGeometry x="1020" y="1270" width="255" height="30" as="geometry" />
        </mxCell>
        <mxCell id="jwEtNOhTTIn63fMqd3Nx-46" value="" style="rounded=1;whiteSpace=wrap;html=1;strokeWidth=3;fillColor=#0000A3;" parent="1" vertex="1">
          <mxGeometry x="1445" y="1190" width="310" height="240" as="geometry" />
        </mxCell>
        <mxCell id="jwEtNOhTTIn63fMqd3Nx-47" value="" style="rounded=1;whiteSpace=wrap;html=1;strokeWidth=3;fillColor=#000000;" parent="1" vertex="1">
          <mxGeometry x="1465" y="1220" width="270" height="190" as="geometry" />
        </mxCell>
        <mxCell id="jwEtNOhTTIn63fMqd3Nx-48" value="Select LED Profile" style="text;html=1;align=center;verticalAlign=middle;resizable=0;points=[];autosize=1;strokeColor=none;fillColor=none;fontSize=16;fontColor=#66FFFF;fontFamily=Lucida Console;" parent="1" vertex="1">
          <mxGeometry x="1500" y="1220" width="200" height="30" as="geometry" />
        </mxCell>
        <mxCell id="jwEtNOhTTIn63fMqd3Nx-50" value="7. Sound Reactive" style="text;html=1;align=center;verticalAlign=middle;resizable=0;points=[];autosize=1;strokeColor=none;fillColor=none;fontSize=16;fontColor=#66FFFF;fontFamily=Lucida Console;" parent="1" vertex="1">
          <mxGeometry x="1465" y="1267.5" width="190" height="30" as="geometry" />
        </mxCell>
        <mxCell id="jwEtNOhTTIn63fMqd3Nx-51" value="8. MultiColor Pulse" style="text;html=1;align=center;verticalAlign=middle;resizable=0;points=[];autosize=1;strokeColor=none;fillColor=none;fontSize=16;fontColor=#66FFFF;fontFamily=Lucida Console;" parent="1" vertex="1">
          <mxGeometry x="1465" y="1287.5" width="210" height="30" as="geometry" />
        </mxCell>
        <mxCell id="jwEtNOhTTIn63fMqd3Nx-52" value="Back" style="text;html=1;align=center;verticalAlign=middle;resizable=0;points=[];autosize=1;strokeColor=none;fillColor=none;fontSize=16;fontColor=#000000;fontFamily=Lucida Console;labelBackgroundColor=#66FFFF;" parent="1" vertex="1">
          <mxGeometry x="1465" y="1370" width="60" height="30" as="geometry" />
        </mxCell>
        <mxCell id="jwEtNOhTTIn63fMqd3Nx-53" value="9. Sparkles" style="text;html=1;align=center;verticalAlign=middle;resizable=0;points=[];autosize=1;strokeColor=none;fillColor=none;fontSize=16;fontColor=#66FFFF;fontFamily=Lucida Console;" parent="1" vertex="1">
          <mxGeometry x="1465" y="1307.5" width="130" height="30" as="geometry" />
        </mxCell>
        <mxCell id="jwEtNOhTTIn63fMqd3Nx-54" value="10. Rainbow Cycle" style="text;html=1;align=center;verticalAlign=middle;resizable=0;points=[];autosize=1;strokeColor=none;fillColor=none;fontSize=16;fontColor=#66FFFF;fontFamily=Lucida Console;" parent="1" vertex="1">
          <mxGeometry x="1455" y="1327.5" width="190" height="30" as="geometry" />
        </mxCell>
        <mxCell id="jwEtNOhTTIn63fMqd3Nx-55" value="11. Alternating Colors" style="text;html=1;align=center;verticalAlign=middle;resizable=0;points=[];autosize=1;strokeColor=none;fillColor=none;fontSize=16;fontColor=#66FFFF;fontFamily=Lucida Console;" parent="1" vertex="1">
          <mxGeometry x="1455" y="1347.5" width="240" height="30" as="geometry" />
        </mxCell>
        <mxCell id="jwEtNOhTTIn63fMqd3Nx-58" style="edgeStyle=orthogonalEdgeStyle;curved=1;rounded=0;orthogonalLoop=1;jettySize=auto;html=1;exitX=0;exitY=1;exitDx=0;exitDy=0;entryX=0;entryY=0.75;entryDx=0;entryDy=0;strokeWidth=3;fontFamily=Lucida Console;fontSize=16;fontColor=#66FFFF;" parent="1" source="5KFAZ07S46kkrbqEi5Xl-1" target="5KFAZ07S46kkrbqEi5Xl-1" edge="1">
          <mxGeometry relative="1" as="geometry">
            <Array as="points">
              <mxPoint x="1010" y="410" />
              <mxPoint x="970" y="410" />
              <mxPoint x="970" y="370" />
            </Array>
          </mxGeometry>
        </mxCell>
        <mxCell id="jwEtNOhTTIn63fMqd3Nx-61" style="edgeStyle=orthogonalEdgeStyle;curved=1;rounded=0;orthogonalLoop=1;jettySize=auto;html=1;exitX=0.25;exitY=0;exitDx=0;exitDy=0;entryX=0.75;entryY=0;entryDx=0;entryDy=0;strokeWidth=3;fontFamily=Lucida Console;fontSize=16;fontColor=#66FFFF;" parent="1" source="5KFAZ07S46kkrbqEi5Xl-5" target="5KFAZ07S46kkrbqEi5Xl-5" edge="1">
          <mxGeometry relative="1" as="geometry">
            <Array as="points">
              <mxPoint x="1047" y="90" />
              <mxPoint x="1123" y="90" />
            </Array>
          </mxGeometry>
        </mxCell>
        <mxCell id="jwEtNOhTTIn63fMqd3Nx-63" style="edgeStyle=orthogonalEdgeStyle;curved=1;rounded=0;orthogonalLoop=1;jettySize=auto;html=1;exitX=0.25;exitY=1;exitDx=0;exitDy=0;entryX=0.75;entryY=1;entryDx=0;entryDy=0;strokeWidth=3;fontFamily=Lucida Console;fontSize=16;fontColor=#66FFFF;" parent="1" source="5KFAZ07S46kkrbqEi5Xl-6" target="5KFAZ07S46kkrbqEi5Xl-6" edge="1">
          <mxGeometry relative="1" as="geometry">
            <Array as="points">
              <mxPoint x="628" y="630" />
              <mxPoint x="703" y="630" />
              <mxPoint x="703" y="580" />
              <mxPoint x="703" y="580" />
            </Array>
          </mxGeometry>
        </mxCell>
        <mxCell id="jwEtNOhTTIn63fMqd3Nx-66" style="edgeStyle=orthogonalEdgeStyle;curved=1;rounded=0;orthogonalLoop=1;jettySize=auto;html=1;exitX=0.201;exitY=1.02;exitDx=0;exitDy=0;entryX=0.557;entryY=0.996;entryDx=0;entryDy=0;strokeWidth=3;fontFamily=Lucida Console;fontSize=16;fontColor=#66FFFF;exitPerimeter=0;entryPerimeter=0;" parent="1" source="5KFAZ07S46kkrbqEi5Xl-2" target="5KFAZ07S46kkrbqEi5Xl-2" edge="1">
          <mxGeometry relative="1" as="geometry">
            <Array as="points">
              <mxPoint x="1350" y="530" />
              <mxPoint x="1347" y="530" />
              <mxPoint x="1347" y="580" />
              <mxPoint x="1404" y="580" />
            </Array>
          </mxGeometry>
        </mxCell>
        <mxCell id="jwEtNOhTTIn63fMqd3Nx-69" style="edgeStyle=orthogonalEdgeStyle;curved=1;rounded=0;orthogonalLoop=1;jettySize=auto;html=1;exitX=0.25;exitY=0;exitDx=0;exitDy=0;entryX=0.75;entryY=0;entryDx=0;entryDy=0;strokeWidth=3;fontFamily=Lucida Console;fontSize=16;fontColor=#66FFFF;" parent="1" source="5KFAZ07S46kkrbqEi5Xl-3" target="5KFAZ07S46kkrbqEi5Xl-3" edge="1">
          <mxGeometry relative="1" as="geometry">
            <Array as="points">
              <mxPoint x="1388" y="80" />
              <mxPoint x="1460" y="80" />
              <mxPoint x="1460" y="102" />
              <mxPoint x="1463" y="102" />
            </Array>
          </mxGeometry>
        </mxCell>
        <mxCell id="jwEtNOhTTIn63fMqd3Nx-71" value="&lt;font style=&quot;font-size: 10px;&quot; face=&quot;Helvetica&quot; color=&quot;#000000&quot;&gt;&lt;span style=&quot;font-size: 10px;&quot;&gt;press &amp;amp;&amp;amp;&lt;br&gt;counter is 3&lt;/span&gt;&lt;/font&gt;" style="text;html=1;align=center;verticalAlign=middle;resizable=0;points=[];autosize=1;strokeColor=default;fillColor=default;fontSize=10;fontFamily=Lucida Console;fontColor=#66FFFF;fontStyle=0" parent="1" vertex="1">
          <mxGeometry x="990" y="245" width="80" height="40" as="geometry" />
        </mxCell>
        <mxCell id="jwEtNOhTTIn63fMqd3Nx-72" value="&lt;font style=&quot;font-size: 10px;&quot; face=&quot;Helvetica&quot; color=&quot;#000000&quot;&gt;&lt;span style=&quot;font-size: 10px;&quot;&gt;No input&lt;/span&gt;&lt;/font&gt;" style="text;html=1;align=center;verticalAlign=middle;resizable=0;points=[];autosize=1;strokeColor=default;fillColor=default;fontSize=10;fontFamily=Lucida Console;fontColor=#66FFFF;fontStyle=0" parent="1" vertex="1">
          <mxGeometry x="930" y="380" width="60" height="30" as="geometry" />
        </mxCell>
        <mxCell id="jwEtNOhTTIn63fMqd3Nx-73" value="&lt;font style=&quot;font-size: 10px;&quot; face=&quot;Helvetica&quot; color=&quot;#000000&quot;&gt;&lt;span style=&quot;font-size: 10px;&quot;&gt;No input &amp;amp;&amp;amp; &lt;br style=&quot;font-size: 10px;&quot;&gt;specified time elapsed&lt;br style=&quot;font-size: 10px;&quot;&gt;&lt;/span&gt;&lt;/font&gt;" style="text;html=1;align=center;verticalAlign=middle;resizable=0;points=[];autosize=1;strokeColor=default;fillColor=default;fontSize=10;fontFamily=Lucida Console;fontColor=#66FFFF;fontStyle=0" parent="1" vertex="1">
          <mxGeometry x="860" y="460" width="120" height="40" as="geometry" />
        </mxCell>
        <mxCell id="jwEtNOhTTIn63fMqd3Nx-74" value="&lt;font style=&quot;font-size: 12px;&quot; face=&quot;Helvetica&quot; color=&quot;#000000&quot;&gt;&lt;span style=&quot;font-size: 12px;&quot;&gt;No input&lt;br style=&quot;font-size: 12px;&quot;&gt;&lt;/span&gt;&lt;/font&gt;" style="text;html=1;align=center;verticalAlign=middle;resizable=0;points=[];autosize=1;strokeColor=none;fillColor=none;fontSize=12;fontFamily=Lucida Console;fontColor=#66FFFF;fontStyle=0" parent="1" vertex="1">
          <mxGeometry x="630" y="630" width="70" height="30" as="geometry" />
        </mxCell>
        <mxCell id="jwEtNOhTTIn63fMqd3Nx-75" value="&lt;font style=&quot;font-size: 10px;&quot; face=&quot;Helvetica&quot; color=&quot;#000000&quot;&gt;&lt;span style=&quot;font-size: 10px;&quot;&gt;Input detected&lt;br style=&quot;font-size: 10px;&quot;&gt;&lt;/span&gt;&lt;/font&gt;" style="text;html=1;align=center;verticalAlign=middle;resizable=0;points=[];autosize=1;strokeColor=default;fillColor=default;fontSize=10;fontFamily=Lucida Console;fontColor=#66FFFF;fontStyle=0" parent="1" vertex="1">
          <mxGeometry x="905" y="515" width="90" height="30" as="geometry" />
        </mxCell>
        <mxCell id="jwEtNOhTTIn63fMqd3Nx-76" value="&lt;font style=&quot;font-size: 10px;&quot; face=&quot;Helvetica&quot; color=&quot;#000000&quot;&gt;&lt;span style=&quot;font-size: 10px;&quot;&gt;press &amp;amp;&amp;amp; &lt;br style=&quot;font-size: 10px;&quot;&gt;counter is 1&lt;/span&gt;&lt;/font&gt;" style="text;html=1;align=center;verticalAlign=middle;resizable=0;points=[];autosize=1;strokeColor=default;fillColor=default;fontSize=10;fontFamily=Lucida Console;fontColor=#66FFFF;fontStyle=0" parent="1" vertex="1">
          <mxGeometry x="1160" y="482" width="70" height="36" as="geometry" />
        </mxCell>
        <mxCell id="jwEtNOhTTIn63fMqd3Nx-77" value="&lt;font style=&quot;font-size: 10px;&quot; face=&quot;Helvetica&quot; color=&quot;#000000&quot;&gt;&lt;span style=&quot;font-size: 10px;&quot;&gt;press &amp;amp;&amp;amp; &lt;br style=&quot;font-size: 10px;&quot;&gt;counter is 2&lt;/span&gt;&lt;/font&gt;" style="text;html=1;align=center;verticalAlign=middle;resizable=0;points=[];autosize=1;strokeColor=default;fillColor=default;fontSize=10;fontFamily=Lucida Console;fontColor=#66FFFF;fontStyle=0" parent="1" vertex="1">
          <mxGeometry x="1240" y="160" width="80" height="40" as="geometry" />
        </mxCell>
        <mxCell id="hmSFtPiwbH6e3Pr4Od_H-2" value="&lt;font face=&quot;Helvetica&quot; color=&quot;#000000&quot; style=&quot;font-size: 10px;&quot;&gt;&lt;span style=&quot;font-size: 10px;&quot;&gt;press &amp;amp;&amp;amp; &lt;br style=&quot;font-size: 10px;&quot;&gt;back is selected&lt;/span&gt;&lt;/font&gt;" style="text;html=1;align=center;verticalAlign=middle;resizable=0;points=[];autosize=1;strokeColor=default;fillColor=default;fontSize=10;fontFamily=Lucida Console;fontColor=#66FFFF;fontStyle=0" parent="1" vertex="1">
          <mxGeometry x="1280" y="245" width="90" height="40" as="geometry" />
        </mxCell>
        <mxCell id="hmSFtPiwbH6e3Pr4Od_H-3" value="&lt;font face=&quot;Helvetica&quot; color=&quot;#000000&quot; style=&quot;font-size: 10px;&quot;&gt;&lt;span style=&quot;font-size: 10px;&quot;&gt;press &amp;amp;&amp;amp; &lt;br style=&quot;font-size: 10px;&quot;&gt;back is selected&lt;/span&gt;&lt;/font&gt;" style="text;html=1;align=center;verticalAlign=middle;resizable=0;points=[];autosize=1;strokeColor=default;fillColor=default;fontSize=10;fontFamily=Lucida Console;fontColor=#66FFFF;fontStyle=0;perimeterSpacing=0;" parent="1" vertex="1">
          <mxGeometry x="1155" y="430" width="90" height="40" as="geometry" />
        </mxCell>
        <mxCell id="hmSFtPiwbH6e3Pr4Od_H-4" value="&lt;font face=&quot;Helvetica&quot; color=&quot;#000000&quot; style=&quot;font-size: 10px;&quot;&gt;&lt;span style=&quot;font-size: 10px;&quot;&gt;press &amp;amp;&amp;amp; &lt;br style=&quot;font-size: 10px;&quot;&gt;back is selected&lt;/span&gt;&lt;/font&gt;" style="text;html=1;align=center;verticalAlign=middle;resizable=0;points=[];autosize=1;strokeColor=default;fillColor=default;fontSize=10;fontFamily=Lucida Console;fontColor=#66FFFF;fontStyle=0" parent="1" vertex="1">
          <mxGeometry x="1080" y="240" width="90" height="40" as="geometry" />
        </mxCell>
        <mxCell id="t-U3eid17INIP3kVceuN-1" value="6. Color Wave" style="text;html=1;align=center;verticalAlign=middle;resizable=0;points=[];autosize=1;strokeColor=none;fillColor=none;fontSize=16;fontColor=#66FFFF;fontFamily=Lucida Console;" vertex="1" parent="1">
          <mxGeometry x="1467" y="1245" width="150" height="30" as="geometry" />
        </mxCell>
        <mxCell id="t-U3eid17INIP3kVceuN-2" value="+ more below---" style="text;html=1;align=center;verticalAlign=middle;resizable=0;points=[];autosize=1;strokeColor=none;fillColor=none;fontSize=16;fontColor=#66FFFF;fontFamily=Lucida Console;" vertex="1" parent="1">
          <mxGeometry x="1473.5" y="1079" width="163" height="31" as="geometry" />
        </mxCell>
        <mxCell id="t-U3eid17INIP3kVceuN-3" value="" style="rounded=1;whiteSpace=wrap;html=1;strokeWidth=3;fillColor=#0000A3;" vertex="1" parent="1">
          <mxGeometry x="1829" y="925" width="310" height="240" as="geometry" />
        </mxCell>
        <mxCell id="t-U3eid17INIP3kVceuN-4" value="" style="rounded=1;whiteSpace=wrap;html=1;strokeWidth=3;fillColor=#000000;" vertex="1" parent="1">
          <mxGeometry x="1849" y="955" width="270" height="190" as="geometry" />
        </mxCell>
        <mxCell id="t-U3eid17INIP3kVceuN-5" value="Select LED Profile" style="text;html=1;align=center;verticalAlign=middle;resizable=0;points=[];autosize=1;strokeColor=none;fillColor=none;fontSize=16;fontColor=#66FFFF;fontFamily=Lucida Console;" vertex="1" parent="1">
          <mxGeometry x="1884" y="955" width="200" height="30" as="geometry" />
        </mxCell>
        <mxCell id="t-U3eid17INIP3kVceuN-6" value="Selected Profile:&lt;br&gt;Comet&#39;s Tail" style="text;html=1;align=center;verticalAlign=middle;resizable=0;points=[];autosize=1;strokeColor=none;fillColor=none;fontSize=16;fontColor=#66FFFF;fontFamily=Lucida Console;" vertex="1" parent="1">
          <mxGeometry x="1893" y="1000" width="182" height="50" as="geometry" />
        </mxCell>
        <mxCell id="t-U3eid17INIP3kVceuN-14" value="" style="shape=image;html=1;verticalAlign=top;verticalLabelPosition=bottom;labelBackgroundColor=#ffffff;imageAspect=0;aspect=fixed;image=https://cdn2.iconfinder.com/data/icons/web-development-and-studio/512/46_Asteroid_astronomy_meteor_space_comet_space-128.png;imageBorder=none;imageBackground=#66FFFF;" vertex="1" parent="1">
          <mxGeometry x="1947.5" y="1060" width="73" height="73" as="geometry" />
        </mxCell>
        <mxCell id="t-U3eid17INIP3kVceuN-15" value="MENU_DISPLAY_SELECTED_PROFILE" style="text;html=1;align=center;verticalAlign=middle;resizable=0;points=[];autosize=1;strokeColor=none;fillColor=none;fontSize=16;fontStyle=1" vertex="1" parent="1">
          <mxGeometry x="1827" y="890" width="314" height="31" as="geometry" />
        </mxCell>
        <mxCell id="t-U3eid17INIP3kVceuN-20" style="edgeStyle=orthogonalEdgeStyle;rounded=0;orthogonalLoop=1;jettySize=auto;html=1;exitX=0;exitY=0.75;exitDx=0;exitDy=0;entryX=1;entryY=0.75;entryDx=0;entryDy=0;strokeWidth=3;" edge="1" parent="1" source="t-U3eid17INIP3kVceuN-16" target="5KFAZ07S46kkrbqEi5Xl-2">
          <mxGeometry relative="1" as="geometry" />
        </mxCell>
        <mxCell id="t-U3eid17INIP3kVceuN-22" style="edgeStyle=orthogonalEdgeStyle;rounded=0;orthogonalLoop=1;jettySize=auto;html=1;exitX=0.25;exitY=0;exitDx=0;exitDy=0;entryX=0.707;entryY=-0.012;entryDx=0;entryDy=0;entryPerimeter=0;strokeWidth=3;curved=1;" edge="1" parent="1" source="t-U3eid17INIP3kVceuN-16" target="t-U3eid17INIP3kVceuN-16">
          <mxGeometry relative="1" as="geometry">
            <mxPoint x="1694.6" y="348.20000000000005" as="targetPoint" />
            <Array as="points">
              <mxPoint x="1681" y="430" />
              <mxPoint x="1678" y="430" />
              <mxPoint x="1678" y="395" />
              <mxPoint x="1749" y="395" />
            </Array>
          </mxGeometry>
        </mxCell>
        <mxCell id="t-U3eid17INIP3kVceuN-16" value="MENU_DISPLAY_&lt;br&gt;SELECTED_&lt;br&gt;PROFILE" style="rounded=1;whiteSpace=wrap;html=1;strokeWidth=3;fontSize=16;" vertex="1" parent="1">
          <mxGeometry x="1643" y="450" width="150" height="80" as="geometry" />
        </mxCell>
        <mxCell id="t-U3eid17INIP3kVceuN-18" value="&lt;font face=&quot;Helvetica&quot; color=&quot;#000000&quot; style=&quot;font-size: 10px;&quot;&gt;&lt;span style=&quot;font-size: 10px;&quot;&gt;press &amp;amp;&amp;amp; &lt;br style=&quot;font-size: 10px;&quot;&gt;a profile is selected&lt;/span&gt;&lt;/font&gt;" style="text;html=1;align=center;verticalAlign=middle;resizable=0;points=[];autosize=1;strokeColor=default;fillColor=default;fontSize=10;fontFamily=Lucida Console;fontColor=#66FFFF;fontStyle=0;perimeterSpacing=0;" vertex="1" parent="1">
          <mxGeometry x="1500" y="443" width="104" height="36" as="geometry" />
        </mxCell>
        <mxCell id="t-U3eid17INIP3kVceuN-21" value="&lt;font face=&quot;Helvetica&quot; color=&quot;#000000&quot;&gt;specified time elapsed&lt;/font&gt;" style="text;html=1;align=center;verticalAlign=middle;resizable=0;points=[];autosize=1;strokeColor=default;fillColor=default;fontSize=10;fontFamily=Lucida Console;fontColor=#66FFFF;fontStyle=0;perimeterSpacing=0;" vertex="1" parent="1">
          <mxGeometry x="1496" y="496" width="117" height="24" as="geometry" />
        </mxCell>
        <mxCell id="t-U3eid17INIP3kVceuN-23" value="&lt;font face=&quot;Helvetica&quot; color=&quot;#000000&quot;&gt;specified time not elapsed&lt;/font&gt;" style="text;html=1;align=center;verticalAlign=middle;resizable=0;points=[];autosize=1;strokeColor=default;fillColor=default;fontSize=10;fontFamily=Lucida Console;fontColor=#66FFFF;fontStyle=0;perimeterSpacing=0;" vertex="1" parent="1">
          <mxGeometry x="1637" y="366" width="134" height="24" as="geometry" />
        </mxCell>
        <mxCell id="t-U3eid17INIP3kVceuN-24" value="&lt;font face=&quot;Helvetica&quot; color=&quot;#000000&quot;&gt;specified&lt;br&gt;time elapsed&lt;/font&gt;" style="text;html=1;align=center;verticalAlign=middle;resizable=0;points=[];autosize=1;strokeColor=default;fillColor=default;fontSize=10;fontFamily=Lucida Console;fontColor=#66FFFF;fontStyle=0;perimeterSpacing=0;" vertex="1" parent="1">
          <mxGeometry x="900" y="330" width="75" height="36" as="geometry" />
        </mxCell>
      </root>
    </mxGraphModel>
  </diagram>
</mxfile>
